M48
;GenerationSoftware,Autodesk,EAGLE,9.6.2*%
;CreationDate,2022-01-25T16:43:20Z*%
FMAT,2
ICI,OFF
METRIC,TZ,000.000
T21C0.350
T20C0.400
T19C0.500
T18C0.600
T17C0.700
T16C0.920
T15C1.000
T14C1.016
T13C1.020
T12C1.050
T11C1.100
T10C1.150
T9C1.270
T8C1.330
T7C1.570
T6C1.727
T5C2.300
T4C2.350
T3C2.550
T2C3.175
T1C3.251
%
G90
M71
T1
X10960Y116644
X10900Y157446
X10960Y126296
X10900Y147794
T2
X8000Y8000
X8000Y212000
X109660Y78400
X109660Y127400
X167400Y127400
X167400Y78400
X85000Y70000
X85000Y160000
X162000Y8000
X162000Y212000
T3
X144200Y153400
X144200Y186400
X96200Y153400
X96200Y186400
T4
X157650Y13970
X131750Y13970
X98250Y121500
X126550Y13970
X162850Y13970
X89100Y121500
T5
X15710Y191690
X10030Y191690
X10030Y204830
X15710Y204830
T6
X15800Y88202
X15800Y81598
X15680Y26522
X10092Y23220
X15680Y19918
X10212Y84900
T7
X10960Y112682
X10900Y143832
X10900Y161408
X10960Y130258
T8
X86540Y217300
X102240Y217300
X101640Y212400
X87140Y212400
T9
X4610Y113952
X2070Y113952
X7150Y128988
X4610Y128988
X2070Y128988
X4550Y145102
X2010Y145102
X7090Y160138
X2010Y160138
X4550Y160138
T10
X147580Y77210
X147580Y79750
X150120Y77210
X150120Y79750
X152660Y77210
X152660Y79750
X155200Y77210
X155200Y79750
X157740Y77210
X157740Y79750
X160280Y77210
X160280Y79750
X162820Y77210
X162820Y79750
X132340Y77210
X114560Y77210
X114560Y79750
X117100Y77210
X117100Y79750
X119640Y77210
X119640Y79750
X122180Y77210
X122180Y79750
X124720Y77210
X124720Y79750
X127260Y77210
X127260Y79750
X129800Y77210
X129800Y79750
X132340Y79750
X134880Y77210
X134880Y79750
X137420Y77210
X137420Y79750
X139960Y77210
X139960Y79750
X142500Y77210
X142500Y79750
X145040Y77210
X145040Y79750
T11
X44700Y80650
X101940Y17680
X104480Y17680
X104480Y15140
X44700Y77150
X101940Y15140
X101940Y12600
X99400Y17680
X99400Y15140
X104480Y12600
X99400Y12600
T12
X16300Y105930
X16600Y97170
X16600Y94630
X16400Y102870
X16400Y100330
X16300Y108470
T13
X17564Y116390
X17564Y118422
X20104Y125534
X20104Y123502
X17564Y120454
X17564Y122486
X17564Y124518
X17564Y126550
X20104Y115374
X20104Y117406
X20104Y119438
X20104Y127566
X17504Y149572
X17504Y155668
X20044Y156684
X20044Y154652
X20044Y150588
X20044Y148556
X20044Y146524
X17504Y157700
X20044Y158716
X17504Y153636
X17504Y151604
X17504Y147540
T14
X53850Y174400
X53850Y171860
X51310Y174400
X51310Y171860
X48770Y174400
X48770Y171860
X46230Y174400
X43690Y174400
X43690Y171860
X46230Y171860
X69170Y85790
X71710Y90870
X69170Y101030
X71710Y88330
X69170Y88330
X69170Y98490
X115360Y28800
X117900Y28800
X120440Y28800
X71710Y101030
X71710Y98490
X69170Y95950
X71710Y95950
X69170Y93410
X69170Y90870
X71710Y93410
X137690Y41740
X137690Y44280
X137690Y46820
X71710Y85790
T15
X141600Y53700
X17000Y139600
X15800Y168000
X87600Y62000
T16
X15360Y201760
X12740Y194760
X12740Y201760
X15360Y194760
X15360Y197260
X12740Y197260
X12740Y199260
X15360Y199260
T17
X87450Y120250
X90450Y118250
X91450Y120250
X92450Y118250
X83450Y122750
X84450Y124750
X93450Y120250
X87450Y122750
X90450Y124750
X91450Y122750
X94450Y118250
X92450Y124750
X93450Y122750
X78450Y124750
X78450Y118250
X79450Y120250
X85450Y122750
X80450Y118250
X77450Y122750
X79450Y122750
X80450Y124750
X86450Y124750
X81450Y122750
X82450Y124750
X95450Y120250
X94450Y124750
X95450Y122750
X96450Y124750
X77450Y120250
X96450Y118250
X81450Y120250
X82450Y118250
X83450Y120250
X84450Y118250
X85450Y120250
X86450Y118250
T18
X109100Y18500
T19
X125400Y137000
X136300Y137000
X124100Y138000
X141200Y138000
X125100Y139000
X144000Y138900
X124600Y141100
X151400Y141000
X124600Y142600
X154100Y142600
X129800Y123200
X112200Y86400
X112300Y121000
X130300Y72850
X141200Y72850
X131780Y126500
X62600Y98700
X107550Y88200
X111700Y123400
X132700Y127500
X107550Y124000
X107450Y104200
X102400Y104200
X84000Y148000
X70300Y147500
X55700Y147300
X55900Y103900
X64700Y126100
X62800Y126100
X116900Y143800
X116300Y164400
X119800Y132600
X117700Y165100
X118380Y164200
X120200Y134700
X119600Y164200
X124800Y144900
X127100Y143900
X120800Y164300
X124900Y165500
X133600Y165100
X140100Y121400
X129600Y121400
X124100Y164300
X134900Y164300
X141880Y122200
X134827Y122200
X125400Y163500
X137200Y163500
X143000Y118100
X138920Y118100
X124200Y162600
X138200Y162700
X145100Y120200
X140160Y120100
X125400Y161800
X139000Y161700
X124400Y161000
X140400Y160900
X125400Y160200
X149600Y160200
X126800Y159300
X154900Y159300
X125200Y158100
X157600Y158100
X126600Y157300
X160100Y156600
X102700Y59100
X120800Y59600
X138000Y82500
X137000Y84300
X125750Y62000
X137400Y125100
X132400Y125100
X132300Y85700
X134000Y68300
X136965Y128200
X112000Y124900
X106200Y96600
X78985Y85400
X135300Y130000
X107550Y129300
X105050Y100250
X134400Y131800
X72500Y145800
X85200Y183700
X70100Y114300
X95836Y190800
X94300Y190700
X92500Y189600
X91767Y188867
X88800Y188100
X88067Y187367
X46000Y198200
X53800Y199200
X107100Y175700
X105300Y143100
X139700Y188400
X95700Y213300
X24300Y153664
X162700Y82100
X142500Y82200
X51300Y178400
X50500Y145800
X34600Y148100
X53200Y191400
X53700Y180800
X19000Y98700
X39800Y198100
X150100Y68700
X123800Y140100
X148950Y140050
X81300Y77700
X133500Y44200
X52600Y166500
X57400Y99800
X61600Y86100
X58400Y175100
X48937Y189173
X37700Y201500
X48600Y187800
X36664Y201500
X46000Y149700
X21100Y152800
X22755Y148545
X24388Y148812
X43000Y168700
X29100Y156800
X54700Y188200
X42800Y186600
X99600Y63500
X40200Y188300
X114600Y82100
X122200Y74700
X127300Y74800
X140000Y74700
X157900Y74600
X152700Y82000
X132300Y82200
X126300Y146100
X147600Y74900
X30900Y85900
X50100Y177300
X18900Y167000
X34600Y144600
X43300Y176900
X126100Y205800
X84700Y206900
X139300Y205800
X23900Y190700
X40100Y202700
X38300Y198000
X108700Y37100
X117000Y34300
X54300Y204200
X68000Y204300
X58800Y72400
X55900Y61100
X57700Y61100
X57600Y52200
X51400Y72400
X31200Y64700
X99000Y165300
X104292Y138208
X19700Y106100
X16100Y133500
X123400Y131800
X121200Y131700
X48400Y128100
X74100Y138900
X124200Y133700
X128400Y133500
X131000Y134300
X125600Y134600
X124400Y135900
X133600Y135800
T20
X128100Y156400
T21
X91100Y88900
X91900Y88900
X41800Y140400
X35200Y141900
X42400Y148500
X92000Y89800
X44850Y167250
X44900Y152500
X118700Y15391
X25800Y104800
X31000Y153700
X31000Y150700
X31000Y148700
X36500Y156900
X29800Y152300
X92000Y90700
X37495Y156200
X41700Y152300
X35400Y143400
X38800Y182879
X43300Y178100
X48300Y186517
X92900Y90700
X92900Y89800
X93000Y95400
X93000Y94500
X92900Y88900
X93000Y93600
X93000Y92700
X92000Y95400
X92000Y94500
X92000Y93600
X92000Y92700
X91100Y95400
X91100Y94500
X91100Y93600
X91100Y92700
X94000Y91700
X92900Y91700
X92000Y91700
X91100Y91700
X129800Y148300
X123900Y39200
X115300Y38500
X130700Y203300
X57600Y55400
X31150Y66650
X45900Y194000
X27765Y154950
X32600Y158700
X115300Y14500
X115300Y15700
X114500Y15200
X114500Y16100
X82100Y50300
X96400Y98100
X28000Y161100
X50900Y156700
X46800Y145900
X24600Y144600
X24369Y193921
X39100Y150700
X39100Y151700
X39100Y152700
X39100Y153700
X38000Y150700
X38000Y151700
X38000Y152700
X38000Y153700
X36900Y153700
X36900Y152700
X37000Y151700
X37000Y150700
X35900Y150700
X35900Y151700
X35900Y152700
X35900Y153700
X31700Y70200
X29400Y70200
X31700Y71700
X29300Y71600
X57200Y183400
X124500Y153100
X114300Y150400
X112700Y150300
X115300Y153100
X116900Y153100
X118900Y153100
X120900Y153100
X122900Y153100
X125700Y153100
X127300Y153100
X132100Y153100
X114100Y187100
X115300Y187100
X116500Y187100
X117700Y187100
X118900Y187100
X120100Y187100
X121300Y187100
X122500Y187100
X123700Y187100
X124900Y187100
X126100Y187100
X127300Y187100
X128500Y187100
X129700Y187100
X130900Y187100
X132100Y187100
X118700Y41400
X113000Y42300
X130100Y34700
X47000Y153400
X34600Y138700
X42450Y158450
X34200Y159800
X41000Y164400
X36600Y140400
X28530Y150760
X102800Y66300
X81100Y37800
X47500Y198200
X24750Y199129
X47600Y182500
X46400Y182500
X47600Y181300
X46400Y181200
X45200Y181300
X45200Y182500
X47600Y183600
X46400Y183600
X45300Y183600
X100200Y35600
X24600Y134300
X30500Y118800
X25361Y123443
X47100Y95700
X52500Y96400
X49300Y95600
X53700Y97500
X51400Y95600
X62350Y89750
X57300Y82900
X56300Y78400
X55400Y97900
X145950Y12480
X144750Y12480
X143750Y12480
X144750Y13480
X146250Y13480
X146150Y14480
X145150Y14380
X144250Y14380
X143250Y14380
X143350Y13380
X146150Y15480
X30600Y71000
X145150Y15480
X144250Y15480
X143250Y15480
X97706Y213800
X94600Y213400
X93100Y213400
X91600Y213400
X90100Y213400
X113400Y204500
X112200Y13900
X41400Y17100
X39630Y17820
X32300Y28600
X103700Y72200
X91700Y23900
X73000Y15800
X71500Y15900
X73000Y18300
X71600Y18200
X66500Y13600
X83900Y46200
X83700Y44600
X81400Y46200
X81500Y44600
X76300Y65000
X102700Y71500
X100700Y72600
X100600Y71200
X98200Y72600
X98200Y71200
X98700Y76500
X32965Y94623
X93800Y88900
X93800Y89800
X93800Y90700
X117900Y16400
X54000Y182400
X50700Y185600
X41700Y141500
X38400Y147700
X43400Y146200
X39105Y156361
X41700Y155400
X35895Y156057
X46000Y156700
X104300Y30700
X94000Y92700
X30400Y161100
X94000Y93600
X91300Y101100
X92200Y101100
X91300Y96500
X92200Y96400
X93100Y96400
X94000Y96400
X91300Y97500
X91300Y98400
X121200Y14968
X91300Y99300
X91300Y100200
X93200Y101100
X94200Y99300
X94200Y100200
X45600Y95200
X93200Y97500
X93200Y98400
X93200Y99300
X93200Y100200
X92200Y97500
X92200Y98400
X92200Y99300
X92200Y100200
X91100Y90700
X47600Y150800
X51200Y187400
X51300Y197200
X91100Y89800
M30