G04 EAGLE Gerber RS-274X export*
G75*
%MOMM*%
%FSLAX34Y34*%
%LPD*%
%INBottom Copper*%
%IPPOS*%
%AMOC8*
5,1,8,0,0,1.08239X$1,22.5*%
G01*
%ADD10R,5.200000X5.200000*%
%ADD11C,1.428000*%
%ADD12C,2.590800*%
%ADD13R,1.530000X1.530000*%
%ADD14C,1.530000*%
%ADD15C,1.905000*%
%ADD16C,2.355000*%
%ADD17C,1.524000*%
%ADD18P,1.649562X8X112.500000*%
%ADD19R,1.725000X1.725000*%
%ADD20C,1.725000*%
%ADD21C,1.995000*%
%ADD22R,1.208000X1.208000*%
%ADD23C,1.208000*%
%ADD24P,1.649562X8X22.500000*%
%ADD25C,4.445000*%
%ADD26R,1.650000X1.650000*%
%ADD27C,1.650000*%
%ADD28C,1.575000*%
%ADD29C,1.700000*%
%ADD30C,0.152400*%
%ADD31C,0.111759*%
%ADD32C,0.756400*%
%ADD33C,0.906400*%
%ADD34C,0.406400*%
%ADD35C,0.200000*%
%ADD36C,1.500000*%
%ADD37C,2.540000*%
%ADD38C,1.006400*%
%ADD39C,0.609600*%
%ADD40C,0.147000*%
%ADD41C,0.147000*%
%ADD42C,0.806400*%
%ADD43C,1.300000*%
%ADD44C,0.127000*%


D10*
X1576500Y139700D03*
X1317500Y139700D03*
X1265500Y139700D03*
X1628500Y139700D03*
D11*
X153600Y2017600D03*
X153600Y1992600D03*
X153600Y1972600D03*
X153600Y1947600D03*
X127400Y2017600D03*
X127400Y1992600D03*
X127400Y1972600D03*
X127400Y1947600D03*
D12*
X156800Y265220D03*
X100920Y232200D03*
X156800Y199180D03*
D13*
X175040Y1475400D03*
D14*
X175040Y1495720D03*
X175040Y1516040D03*
X175040Y1536360D03*
X175040Y1556680D03*
X175040Y1577000D03*
X200440Y1465240D03*
X200440Y1485560D03*
X200440Y1505880D03*
X200440Y1546520D03*
X200440Y1566840D03*
X200440Y1587160D03*
D15*
X45500Y1451016D03*
X20100Y1451016D03*
X70900Y1601384D03*
X45500Y1601384D03*
X20100Y1601384D03*
D16*
X109000Y1438316D03*
X109000Y1614084D03*
D17*
X1369280Y417400D02*
X1384520Y417400D01*
X1384520Y442800D02*
X1369280Y442800D01*
X1369280Y468200D02*
X1384520Y468200D01*
D18*
X717100Y857900D03*
X691700Y857900D03*
X717100Y883300D03*
X691700Y883300D03*
X717100Y908700D03*
X691700Y908700D03*
X717100Y934100D03*
X691700Y934100D03*
X717100Y959500D03*
X691700Y959500D03*
X717100Y984900D03*
X691700Y984900D03*
X717100Y1010300D03*
X691700Y1010300D03*
D13*
X175640Y1163900D03*
D14*
X175640Y1184220D03*
X175640Y1204540D03*
X175640Y1224860D03*
X175640Y1245180D03*
X175640Y1265500D03*
X201040Y1153740D03*
X201040Y1174060D03*
X201040Y1194380D03*
X201040Y1235020D03*
X201040Y1255340D03*
X201040Y1275660D03*
D15*
X46100Y1139516D03*
X20700Y1139516D03*
X71500Y1289884D03*
X46100Y1289884D03*
X20700Y1289884D03*
D16*
X109600Y1126816D03*
X109600Y1302584D03*
D19*
X1628200Y797500D03*
D20*
X1628200Y772100D03*
X1602800Y797500D03*
X1602800Y772100D03*
X1577400Y797500D03*
X1577400Y772100D03*
X1552000Y797500D03*
X1552000Y772100D03*
X1526600Y797500D03*
X1526600Y772100D03*
X1501200Y797500D03*
X1501200Y772100D03*
X1475800Y797500D03*
X1475800Y772100D03*
X1450400Y797500D03*
X1450400Y772100D03*
X1425000Y797500D03*
X1425000Y772100D03*
X1399600Y797500D03*
X1399600Y772100D03*
X1374200Y797500D03*
X1374200Y772100D03*
X1348800Y797500D03*
X1348800Y772100D03*
X1323400Y797500D03*
X1323400Y772100D03*
X1298000Y797500D03*
X1298000Y772100D03*
X1272600Y797500D03*
X1272600Y772100D03*
X1247200Y797500D03*
X1247200Y772100D03*
X1221800Y797500D03*
X1221800Y772100D03*
X1196400Y797500D03*
X1196400Y772100D03*
X1171000Y797500D03*
X1171000Y772100D03*
X1145600Y797500D03*
X1145600Y772100D03*
D21*
X871400Y2124000D03*
X1016400Y2124000D03*
X1022400Y2173000D03*
X865400Y2173000D03*
D22*
X774500Y1227500D03*
D23*
X784500Y1247500D03*
X794500Y1227500D03*
X804500Y1247500D03*
X814500Y1227500D03*
X824500Y1247500D03*
X834500Y1227500D03*
X844500Y1247500D03*
X854500Y1227500D03*
X864500Y1247500D03*
X874500Y1227500D03*
X904500Y1247500D03*
X914500Y1227500D03*
X924500Y1247500D03*
X934500Y1227500D03*
X944500Y1247500D03*
X954500Y1227500D03*
X964500Y1247500D03*
D22*
X774500Y1202500D03*
D23*
X784500Y1182500D03*
X794500Y1202500D03*
X804500Y1182500D03*
X814500Y1202500D03*
X824500Y1182500D03*
X834500Y1202500D03*
X844500Y1182500D03*
X854500Y1202500D03*
X864500Y1182500D03*
X874500Y1202500D03*
X904500Y1182500D03*
X914500Y1202500D03*
X924500Y1182500D03*
X934500Y1202500D03*
X944500Y1182500D03*
X954500Y1202500D03*
X964500Y1182500D03*
D24*
X436900Y1718600D03*
X436900Y1744000D03*
X462300Y1718600D03*
X462300Y1744000D03*
X487700Y1718600D03*
X487700Y1744000D03*
X513100Y1718600D03*
X513100Y1744000D03*
X538500Y1718600D03*
X538500Y1744000D03*
D12*
X158000Y882020D03*
X102120Y849000D03*
X158000Y815980D03*
D25*
X80000Y2120000D03*
X80000Y80000D03*
X1620000Y80000D03*
X1620000Y2120000D03*
X850000Y1600000D03*
X850000Y700000D03*
D17*
X1153600Y295620D02*
X1153600Y280380D01*
X1179000Y280380D02*
X1179000Y295620D01*
X1204400Y295620D02*
X1204400Y280380D01*
D26*
X994000Y126000D03*
D27*
X994000Y151400D03*
X994000Y176800D03*
X1019400Y126000D03*
X1019400Y151400D03*
X1019400Y176800D03*
X1044800Y126000D03*
X1044800Y151400D03*
X1044800Y176800D03*
D25*
X1674000Y784000D03*
X1674000Y1274000D03*
X1096600Y1274000D03*
X1096600Y784000D03*
D28*
X164000Y1003300D03*
X164000Y1028700D03*
X166000Y946300D03*
X166000Y971700D03*
X163000Y1059300D03*
X163000Y1084700D03*
D29*
X447000Y771500D03*
X447000Y806500D03*
D30*
X27760Y2156000D02*
X17600Y2156000D01*
X43000Y2171240D02*
X43000Y2181400D01*
X43000Y2140760D02*
X43000Y2130600D01*
X58240Y2156000D02*
X68400Y2156000D01*
D31*
X53856Y2156812D02*
X43649Y2156649D01*
X43649Y2156649D01*
X43812Y2166856D01*
X43813Y2166856D01*
X44072Y2166839D01*
X44330Y2166816D01*
X44587Y2166787D01*
X44844Y2166751D01*
X45100Y2166709D01*
X45355Y2166661D01*
X45608Y2166607D01*
X45861Y2166546D01*
X46111Y2166479D01*
X46360Y2166406D01*
X46607Y2166328D01*
X46852Y2166243D01*
X47095Y2166152D01*
X47336Y2166055D01*
X47574Y2165952D01*
X47809Y2165844D01*
X48042Y2165730D01*
X48272Y2165610D01*
X48499Y2165485D01*
X48723Y2165354D01*
X48944Y2165218D01*
X49161Y2165076D01*
X49375Y2164929D01*
X49585Y2164777D01*
X49791Y2164620D01*
X49993Y2164458D01*
X50192Y2164291D01*
X50386Y2164119D01*
X50576Y2163942D01*
X50761Y2163761D01*
X50942Y2163576D01*
X51119Y2163386D01*
X51291Y2163192D01*
X51458Y2162993D01*
X51620Y2162791D01*
X51777Y2162585D01*
X51929Y2162375D01*
X52076Y2162161D01*
X52218Y2161944D01*
X52354Y2161723D01*
X52485Y2161499D01*
X52610Y2161272D01*
X52730Y2161042D01*
X52844Y2160809D01*
X52952Y2160574D01*
X53055Y2160336D01*
X53152Y2160095D01*
X53243Y2159852D01*
X53328Y2159607D01*
X53406Y2159360D01*
X53479Y2159111D01*
X53546Y2158861D01*
X53607Y2158608D01*
X53661Y2158355D01*
X53709Y2158100D01*
X53751Y2157844D01*
X53787Y2157587D01*
X53816Y2157330D01*
X53839Y2157072D01*
X53856Y2156813D01*
X52794Y2156813D01*
X52777Y2157044D01*
X52755Y2157274D01*
X52728Y2157504D01*
X52695Y2157733D01*
X52656Y2157961D01*
X52612Y2158189D01*
X52562Y2158415D01*
X52507Y2158640D01*
X52447Y2158863D01*
X52381Y2159085D01*
X52310Y2159306D01*
X52233Y2159524D01*
X52151Y2159741D01*
X52064Y2159955D01*
X51972Y2160168D01*
X51874Y2160378D01*
X51772Y2160585D01*
X51665Y2160790D01*
X51552Y2160993D01*
X51435Y2161192D01*
X51313Y2161389D01*
X51186Y2161583D01*
X51055Y2161774D01*
X50919Y2161961D01*
X50778Y2162145D01*
X50633Y2162326D01*
X50484Y2162503D01*
X50331Y2162676D01*
X50173Y2162845D01*
X50011Y2163011D01*
X49845Y2163173D01*
X49676Y2163331D01*
X49503Y2163484D01*
X49326Y2163633D01*
X49145Y2163778D01*
X48961Y2163919D01*
X48774Y2164055D01*
X48583Y2164186D01*
X48389Y2164313D01*
X48192Y2164435D01*
X47993Y2164552D01*
X47790Y2164665D01*
X47585Y2164772D01*
X47378Y2164874D01*
X47168Y2164972D01*
X46955Y2165064D01*
X46741Y2165151D01*
X46524Y2165233D01*
X46306Y2165310D01*
X46085Y2165381D01*
X45863Y2165447D01*
X45640Y2165507D01*
X45415Y2165562D01*
X45189Y2165612D01*
X44961Y2165656D01*
X44733Y2165695D01*
X44504Y2165728D01*
X44274Y2165755D01*
X44044Y2165777D01*
X43813Y2165794D01*
X43813Y2164731D01*
X44019Y2164714D01*
X44225Y2164693D01*
X44431Y2164667D01*
X44636Y2164636D01*
X44840Y2164600D01*
X45043Y2164559D01*
X45245Y2164512D01*
X45446Y2164461D01*
X45645Y2164406D01*
X45843Y2164345D01*
X46040Y2164279D01*
X46235Y2164209D01*
X46428Y2164134D01*
X46619Y2164054D01*
X46808Y2163970D01*
X46996Y2163881D01*
X47180Y2163787D01*
X47363Y2163689D01*
X47543Y2163587D01*
X47721Y2163480D01*
X47896Y2163369D01*
X48068Y2163253D01*
X48237Y2163134D01*
X48403Y2163010D01*
X48567Y2162883D01*
X48727Y2162751D01*
X48884Y2162616D01*
X49037Y2162477D01*
X49187Y2162334D01*
X49334Y2162187D01*
X49477Y2162037D01*
X49616Y2161884D01*
X49751Y2161727D01*
X49883Y2161567D01*
X50010Y2161403D01*
X50134Y2161237D01*
X50253Y2161068D01*
X50369Y2160896D01*
X50480Y2160721D01*
X50587Y2160543D01*
X50689Y2160363D01*
X50787Y2160180D01*
X50881Y2159996D01*
X50970Y2159808D01*
X51054Y2159619D01*
X51134Y2159428D01*
X51209Y2159235D01*
X51279Y2159040D01*
X51345Y2158843D01*
X51406Y2158645D01*
X51461Y2158446D01*
X51512Y2158245D01*
X51559Y2158043D01*
X51600Y2157840D01*
X51636Y2157636D01*
X51667Y2157431D01*
X51693Y2157225D01*
X51714Y2157019D01*
X51731Y2156813D01*
X50667Y2156812D01*
X50651Y2156994D01*
X50631Y2157175D01*
X50606Y2157355D01*
X50577Y2157535D01*
X50543Y2157714D01*
X50505Y2157892D01*
X50463Y2158069D01*
X50416Y2158245D01*
X50366Y2158420D01*
X50310Y2158593D01*
X50251Y2158765D01*
X50187Y2158936D01*
X50120Y2159105D01*
X50048Y2159272D01*
X49972Y2159438D01*
X49892Y2159601D01*
X49808Y2159763D01*
X49720Y2159922D01*
X49628Y2160079D01*
X49533Y2160234D01*
X49433Y2160387D01*
X49330Y2160537D01*
X49224Y2160684D01*
X49113Y2160829D01*
X49000Y2160971D01*
X48882Y2161111D01*
X48762Y2161247D01*
X48638Y2161380D01*
X48511Y2161511D01*
X48380Y2161638D01*
X48247Y2161762D01*
X48111Y2161882D01*
X47971Y2162000D01*
X47829Y2162113D01*
X47684Y2162224D01*
X47537Y2162330D01*
X47387Y2162433D01*
X47234Y2162533D01*
X47079Y2162628D01*
X46922Y2162720D01*
X46763Y2162808D01*
X46601Y2162892D01*
X46438Y2162972D01*
X46272Y2163048D01*
X46105Y2163120D01*
X45936Y2163187D01*
X45765Y2163251D01*
X45593Y2163310D01*
X45420Y2163366D01*
X45245Y2163416D01*
X45069Y2163463D01*
X44892Y2163505D01*
X44714Y2163543D01*
X44535Y2163577D01*
X44355Y2163606D01*
X44175Y2163631D01*
X43994Y2163651D01*
X43812Y2163667D01*
X43812Y2162602D01*
X43970Y2162587D01*
X44128Y2162567D01*
X44285Y2162543D01*
X44441Y2162515D01*
X44597Y2162484D01*
X44752Y2162449D01*
X44906Y2162409D01*
X45058Y2162366D01*
X45210Y2162319D01*
X45361Y2162269D01*
X45510Y2162214D01*
X45658Y2162156D01*
X45804Y2162095D01*
X45949Y2162029D01*
X46092Y2161960D01*
X46233Y2161888D01*
X46372Y2161812D01*
X46510Y2161733D01*
X46645Y2161650D01*
X46779Y2161564D01*
X46910Y2161474D01*
X47039Y2161381D01*
X47165Y2161285D01*
X47290Y2161186D01*
X47411Y2161084D01*
X47530Y2160979D01*
X47647Y2160871D01*
X47760Y2160760D01*
X47871Y2160647D01*
X47979Y2160530D01*
X48084Y2160411D01*
X48186Y2160290D01*
X48285Y2160165D01*
X48381Y2160039D01*
X48474Y2159910D01*
X48564Y2159779D01*
X48650Y2159645D01*
X48733Y2159510D01*
X48812Y2159372D01*
X48888Y2159233D01*
X48960Y2159092D01*
X49029Y2158949D01*
X49095Y2158804D01*
X49156Y2158658D01*
X49214Y2158510D01*
X49269Y2158361D01*
X49319Y2158210D01*
X49366Y2158058D01*
X49409Y2157906D01*
X49449Y2157752D01*
X49484Y2157597D01*
X49515Y2157441D01*
X49543Y2157285D01*
X49567Y2157128D01*
X49587Y2156970D01*
X49602Y2156812D01*
X48537Y2156812D01*
X48519Y2156955D01*
X48498Y2157098D01*
X48474Y2157241D01*
X48445Y2157382D01*
X48412Y2157523D01*
X48376Y2157663D01*
X48335Y2157802D01*
X48291Y2157940D01*
X48244Y2158076D01*
X48192Y2158211D01*
X48137Y2158345D01*
X48079Y2158477D01*
X48016Y2158607D01*
X47951Y2158736D01*
X47881Y2158863D01*
X47809Y2158988D01*
X47733Y2159110D01*
X47653Y2159231D01*
X47571Y2159350D01*
X47485Y2159466D01*
X47396Y2159580D01*
X47304Y2159691D01*
X47209Y2159800D01*
X47111Y2159907D01*
X47010Y2160010D01*
X46907Y2160111D01*
X46800Y2160209D01*
X46691Y2160304D01*
X46580Y2160396D01*
X46466Y2160485D01*
X46350Y2160571D01*
X46231Y2160653D01*
X46110Y2160733D01*
X45988Y2160809D01*
X45863Y2160881D01*
X45736Y2160951D01*
X45607Y2161016D01*
X45477Y2161079D01*
X45345Y2161137D01*
X45211Y2161192D01*
X45076Y2161244D01*
X44940Y2161291D01*
X44802Y2161335D01*
X44663Y2161376D01*
X44523Y2161412D01*
X44382Y2161445D01*
X44241Y2161474D01*
X44098Y2161498D01*
X43955Y2161519D01*
X43812Y2161537D01*
X43811Y2160468D01*
X43939Y2160449D01*
X44067Y2160427D01*
X44193Y2160400D01*
X44319Y2160370D01*
X44443Y2160335D01*
X44567Y2160297D01*
X44689Y2160255D01*
X44810Y2160210D01*
X44930Y2160161D01*
X45048Y2160108D01*
X45164Y2160052D01*
X45279Y2159992D01*
X45392Y2159928D01*
X45502Y2159862D01*
X45611Y2159792D01*
X45717Y2159718D01*
X45822Y2159642D01*
X45924Y2159562D01*
X46023Y2159480D01*
X46120Y2159394D01*
X46214Y2159305D01*
X46305Y2159214D01*
X46394Y2159120D01*
X46480Y2159023D01*
X46562Y2158924D01*
X46642Y2158822D01*
X46718Y2158717D01*
X46792Y2158611D01*
X46862Y2158502D01*
X46928Y2158392D01*
X46992Y2158279D01*
X47052Y2158164D01*
X47108Y2158048D01*
X47161Y2157930D01*
X47210Y2157810D01*
X47255Y2157689D01*
X47297Y2157567D01*
X47335Y2157443D01*
X47370Y2157319D01*
X47400Y2157193D01*
X47427Y2157067D01*
X47449Y2156939D01*
X47468Y2156811D01*
X46395Y2156810D01*
X46374Y2156919D01*
X46349Y2157028D01*
X46320Y2157135D01*
X46287Y2157241D01*
X46251Y2157347D01*
X46211Y2157450D01*
X46168Y2157553D01*
X46121Y2157653D01*
X46070Y2157753D01*
X46016Y2157850D01*
X45959Y2157945D01*
X45898Y2158038D01*
X45834Y2158130D01*
X45767Y2158218D01*
X45697Y2158305D01*
X45625Y2158389D01*
X45549Y2158470D01*
X45470Y2158549D01*
X45389Y2158625D01*
X45305Y2158697D01*
X45218Y2158767D01*
X45130Y2158834D01*
X45038Y2158898D01*
X44945Y2158959D01*
X44850Y2159016D01*
X44753Y2159070D01*
X44653Y2159121D01*
X44553Y2159168D01*
X44450Y2159211D01*
X44347Y2159251D01*
X44241Y2159287D01*
X44135Y2159320D01*
X44028Y2159349D01*
X43919Y2159374D01*
X43810Y2159395D01*
X43807Y2158310D01*
X43892Y2158285D01*
X43976Y2158257D01*
X44060Y2158225D01*
X44141Y2158189D01*
X44221Y2158151D01*
X44300Y2158108D01*
X44376Y2158063D01*
X44451Y2158015D01*
X44524Y2157963D01*
X44594Y2157908D01*
X44662Y2157851D01*
X44728Y2157791D01*
X44791Y2157728D01*
X44851Y2157662D01*
X44908Y2157594D01*
X44963Y2157524D01*
X45015Y2157451D01*
X45063Y2157376D01*
X45108Y2157300D01*
X45151Y2157221D01*
X45189Y2157141D01*
X45225Y2157060D01*
X45257Y2156976D01*
X45285Y2156892D01*
X45310Y2156807D01*
X44179Y2156788D01*
X44146Y2156841D01*
X44111Y2156892D01*
X44072Y2156940D01*
X44031Y2156987D01*
X43987Y2157031D01*
X43940Y2157072D01*
X43892Y2157111D01*
X43841Y2157146D01*
X43788Y2157179D01*
X32144Y2155188D02*
X42351Y2155351D01*
X42351Y2155351D01*
X42188Y2145144D01*
X42187Y2145144D01*
X41928Y2145161D01*
X41670Y2145184D01*
X41413Y2145213D01*
X41156Y2145249D01*
X40900Y2145291D01*
X40645Y2145339D01*
X40392Y2145393D01*
X40139Y2145454D01*
X39889Y2145521D01*
X39640Y2145594D01*
X39393Y2145672D01*
X39148Y2145757D01*
X38905Y2145848D01*
X38664Y2145945D01*
X38426Y2146048D01*
X38191Y2146156D01*
X37958Y2146270D01*
X37728Y2146390D01*
X37501Y2146515D01*
X37277Y2146646D01*
X37056Y2146782D01*
X36839Y2146924D01*
X36625Y2147071D01*
X36415Y2147223D01*
X36209Y2147380D01*
X36007Y2147542D01*
X35808Y2147709D01*
X35614Y2147881D01*
X35424Y2148058D01*
X35239Y2148239D01*
X35058Y2148424D01*
X34881Y2148614D01*
X34709Y2148808D01*
X34542Y2149007D01*
X34380Y2149209D01*
X34223Y2149415D01*
X34071Y2149625D01*
X33924Y2149839D01*
X33782Y2150056D01*
X33646Y2150277D01*
X33515Y2150501D01*
X33390Y2150728D01*
X33270Y2150958D01*
X33156Y2151191D01*
X33048Y2151426D01*
X32945Y2151664D01*
X32848Y2151905D01*
X32757Y2152148D01*
X32672Y2152393D01*
X32594Y2152640D01*
X32521Y2152889D01*
X32454Y2153139D01*
X32393Y2153392D01*
X32339Y2153645D01*
X32291Y2153900D01*
X32249Y2154156D01*
X32213Y2154413D01*
X32184Y2154670D01*
X32161Y2154928D01*
X32144Y2155187D01*
X33206Y2155187D01*
X33223Y2154956D01*
X33245Y2154726D01*
X33272Y2154496D01*
X33305Y2154267D01*
X33344Y2154039D01*
X33388Y2153811D01*
X33438Y2153585D01*
X33493Y2153360D01*
X33553Y2153137D01*
X33619Y2152915D01*
X33690Y2152694D01*
X33767Y2152476D01*
X33849Y2152259D01*
X33936Y2152045D01*
X34028Y2151832D01*
X34126Y2151622D01*
X34228Y2151415D01*
X34335Y2151210D01*
X34448Y2151007D01*
X34565Y2150808D01*
X34687Y2150611D01*
X34814Y2150417D01*
X34945Y2150226D01*
X35081Y2150039D01*
X35222Y2149855D01*
X35367Y2149674D01*
X35516Y2149497D01*
X35669Y2149324D01*
X35827Y2149155D01*
X35989Y2148989D01*
X36155Y2148827D01*
X36324Y2148669D01*
X36497Y2148516D01*
X36674Y2148367D01*
X36855Y2148222D01*
X37039Y2148081D01*
X37226Y2147945D01*
X37417Y2147814D01*
X37611Y2147687D01*
X37808Y2147565D01*
X38007Y2147448D01*
X38210Y2147335D01*
X38415Y2147228D01*
X38622Y2147126D01*
X38832Y2147028D01*
X39045Y2146936D01*
X39259Y2146849D01*
X39476Y2146767D01*
X39694Y2146690D01*
X39915Y2146619D01*
X40137Y2146553D01*
X40360Y2146493D01*
X40585Y2146438D01*
X40811Y2146388D01*
X41039Y2146344D01*
X41267Y2146305D01*
X41496Y2146272D01*
X41726Y2146245D01*
X41956Y2146223D01*
X42187Y2146206D01*
X42187Y2147269D01*
X41981Y2147286D01*
X41775Y2147307D01*
X41569Y2147333D01*
X41364Y2147364D01*
X41160Y2147400D01*
X40957Y2147441D01*
X40755Y2147488D01*
X40554Y2147539D01*
X40355Y2147594D01*
X40157Y2147655D01*
X39960Y2147721D01*
X39765Y2147791D01*
X39572Y2147866D01*
X39381Y2147946D01*
X39192Y2148030D01*
X39004Y2148119D01*
X38820Y2148213D01*
X38637Y2148311D01*
X38457Y2148413D01*
X38279Y2148520D01*
X38104Y2148631D01*
X37932Y2148747D01*
X37763Y2148866D01*
X37597Y2148990D01*
X37433Y2149117D01*
X37273Y2149249D01*
X37116Y2149384D01*
X36963Y2149523D01*
X36813Y2149666D01*
X36666Y2149813D01*
X36523Y2149963D01*
X36384Y2150116D01*
X36249Y2150273D01*
X36117Y2150433D01*
X35990Y2150597D01*
X35866Y2150763D01*
X35747Y2150932D01*
X35631Y2151104D01*
X35520Y2151279D01*
X35413Y2151457D01*
X35311Y2151637D01*
X35213Y2151820D01*
X35119Y2152004D01*
X35030Y2152192D01*
X34946Y2152381D01*
X34866Y2152572D01*
X34791Y2152765D01*
X34721Y2152960D01*
X34655Y2153157D01*
X34594Y2153355D01*
X34539Y2153554D01*
X34488Y2153755D01*
X34441Y2153957D01*
X34400Y2154160D01*
X34364Y2154364D01*
X34333Y2154569D01*
X34307Y2154775D01*
X34286Y2154981D01*
X34269Y2155187D01*
X35333Y2155188D01*
X35349Y2155006D01*
X35369Y2154825D01*
X35394Y2154645D01*
X35423Y2154465D01*
X35457Y2154286D01*
X35495Y2154108D01*
X35537Y2153931D01*
X35584Y2153755D01*
X35634Y2153580D01*
X35690Y2153407D01*
X35749Y2153235D01*
X35813Y2153064D01*
X35880Y2152895D01*
X35952Y2152728D01*
X36028Y2152562D01*
X36108Y2152399D01*
X36192Y2152237D01*
X36280Y2152078D01*
X36372Y2151921D01*
X36467Y2151766D01*
X36567Y2151613D01*
X36670Y2151463D01*
X36776Y2151316D01*
X36887Y2151171D01*
X37000Y2151029D01*
X37118Y2150889D01*
X37238Y2150753D01*
X37362Y2150620D01*
X37489Y2150489D01*
X37620Y2150362D01*
X37753Y2150238D01*
X37889Y2150118D01*
X38029Y2150000D01*
X38171Y2149887D01*
X38316Y2149776D01*
X38463Y2149670D01*
X38613Y2149567D01*
X38766Y2149467D01*
X38921Y2149372D01*
X39078Y2149280D01*
X39237Y2149192D01*
X39399Y2149108D01*
X39562Y2149028D01*
X39728Y2148952D01*
X39895Y2148880D01*
X40064Y2148813D01*
X40235Y2148749D01*
X40407Y2148690D01*
X40580Y2148634D01*
X40755Y2148584D01*
X40931Y2148537D01*
X41108Y2148495D01*
X41286Y2148457D01*
X41465Y2148423D01*
X41645Y2148394D01*
X41825Y2148369D01*
X42006Y2148349D01*
X42188Y2148333D01*
X42188Y2149398D01*
X42030Y2149413D01*
X41872Y2149433D01*
X41715Y2149457D01*
X41559Y2149485D01*
X41403Y2149516D01*
X41248Y2149551D01*
X41094Y2149591D01*
X40942Y2149634D01*
X40790Y2149681D01*
X40639Y2149731D01*
X40490Y2149786D01*
X40342Y2149844D01*
X40196Y2149905D01*
X40051Y2149971D01*
X39908Y2150040D01*
X39767Y2150112D01*
X39628Y2150188D01*
X39490Y2150267D01*
X39355Y2150350D01*
X39221Y2150436D01*
X39090Y2150526D01*
X38961Y2150619D01*
X38835Y2150715D01*
X38710Y2150814D01*
X38589Y2150916D01*
X38470Y2151021D01*
X38353Y2151129D01*
X38240Y2151240D01*
X38129Y2151353D01*
X38021Y2151470D01*
X37916Y2151589D01*
X37814Y2151710D01*
X37715Y2151835D01*
X37619Y2151961D01*
X37526Y2152090D01*
X37436Y2152221D01*
X37350Y2152355D01*
X37267Y2152490D01*
X37188Y2152628D01*
X37112Y2152767D01*
X37040Y2152908D01*
X36971Y2153051D01*
X36905Y2153196D01*
X36844Y2153342D01*
X36786Y2153490D01*
X36731Y2153639D01*
X36681Y2153790D01*
X36634Y2153942D01*
X36591Y2154094D01*
X36551Y2154248D01*
X36516Y2154403D01*
X36485Y2154559D01*
X36457Y2154715D01*
X36433Y2154872D01*
X36413Y2155030D01*
X36398Y2155188D01*
X37463Y2155188D01*
X37481Y2155045D01*
X37502Y2154902D01*
X37526Y2154759D01*
X37555Y2154618D01*
X37588Y2154477D01*
X37624Y2154337D01*
X37665Y2154198D01*
X37709Y2154060D01*
X37756Y2153924D01*
X37808Y2153789D01*
X37863Y2153655D01*
X37921Y2153523D01*
X37984Y2153393D01*
X38049Y2153264D01*
X38119Y2153137D01*
X38191Y2153012D01*
X38267Y2152890D01*
X38347Y2152769D01*
X38429Y2152650D01*
X38515Y2152534D01*
X38604Y2152420D01*
X38696Y2152309D01*
X38791Y2152200D01*
X38889Y2152093D01*
X38990Y2151990D01*
X39093Y2151889D01*
X39200Y2151791D01*
X39309Y2151696D01*
X39420Y2151604D01*
X39534Y2151515D01*
X39650Y2151429D01*
X39769Y2151347D01*
X39890Y2151267D01*
X40012Y2151191D01*
X40137Y2151119D01*
X40264Y2151049D01*
X40393Y2150984D01*
X40523Y2150921D01*
X40655Y2150863D01*
X40789Y2150808D01*
X40924Y2150756D01*
X41060Y2150709D01*
X41198Y2150665D01*
X41337Y2150624D01*
X41477Y2150588D01*
X41618Y2150555D01*
X41759Y2150526D01*
X41902Y2150502D01*
X42045Y2150481D01*
X42188Y2150463D01*
X42189Y2151532D01*
X42061Y2151551D01*
X41933Y2151573D01*
X41807Y2151600D01*
X41681Y2151630D01*
X41557Y2151665D01*
X41433Y2151703D01*
X41311Y2151745D01*
X41190Y2151790D01*
X41070Y2151839D01*
X40952Y2151892D01*
X40836Y2151948D01*
X40721Y2152008D01*
X40608Y2152072D01*
X40498Y2152138D01*
X40389Y2152208D01*
X40283Y2152282D01*
X40178Y2152358D01*
X40076Y2152438D01*
X39977Y2152520D01*
X39880Y2152606D01*
X39786Y2152695D01*
X39695Y2152786D01*
X39606Y2152880D01*
X39520Y2152977D01*
X39438Y2153076D01*
X39358Y2153178D01*
X39282Y2153283D01*
X39208Y2153389D01*
X39138Y2153498D01*
X39072Y2153608D01*
X39008Y2153721D01*
X38948Y2153836D01*
X38892Y2153952D01*
X38839Y2154070D01*
X38790Y2154190D01*
X38745Y2154311D01*
X38703Y2154433D01*
X38665Y2154557D01*
X38630Y2154681D01*
X38600Y2154807D01*
X38573Y2154933D01*
X38551Y2155061D01*
X38532Y2155189D01*
X39605Y2155190D01*
X39626Y2155081D01*
X39651Y2154972D01*
X39680Y2154865D01*
X39713Y2154759D01*
X39749Y2154653D01*
X39789Y2154550D01*
X39832Y2154447D01*
X39879Y2154347D01*
X39930Y2154247D01*
X39984Y2154150D01*
X40041Y2154055D01*
X40102Y2153962D01*
X40166Y2153870D01*
X40233Y2153782D01*
X40303Y2153695D01*
X40375Y2153611D01*
X40451Y2153530D01*
X40530Y2153451D01*
X40611Y2153375D01*
X40695Y2153303D01*
X40782Y2153233D01*
X40870Y2153166D01*
X40962Y2153102D01*
X41055Y2153041D01*
X41150Y2152984D01*
X41247Y2152930D01*
X41347Y2152879D01*
X41447Y2152832D01*
X41550Y2152789D01*
X41653Y2152749D01*
X41759Y2152713D01*
X41865Y2152680D01*
X41972Y2152651D01*
X42081Y2152626D01*
X42190Y2152605D01*
X42193Y2153690D01*
X42108Y2153715D01*
X42024Y2153743D01*
X41940Y2153775D01*
X41859Y2153811D01*
X41779Y2153849D01*
X41700Y2153892D01*
X41624Y2153937D01*
X41549Y2153985D01*
X41476Y2154037D01*
X41406Y2154092D01*
X41338Y2154149D01*
X41272Y2154209D01*
X41209Y2154272D01*
X41149Y2154338D01*
X41092Y2154406D01*
X41037Y2154476D01*
X40985Y2154549D01*
X40937Y2154624D01*
X40892Y2154700D01*
X40849Y2154779D01*
X40811Y2154859D01*
X40775Y2154940D01*
X40743Y2155024D01*
X40715Y2155108D01*
X40690Y2155193D01*
X41821Y2155212D01*
X41854Y2155159D01*
X41889Y2155108D01*
X41928Y2155060D01*
X41969Y2155013D01*
X42013Y2154969D01*
X42060Y2154928D01*
X42108Y2154889D01*
X42159Y2154854D01*
X42212Y2154821D01*
D30*
X30300Y2156000D02*
X30304Y2156312D01*
X30315Y2156623D01*
X30334Y2156934D01*
X30361Y2157245D01*
X30396Y2157555D01*
X30437Y2157863D01*
X30487Y2158171D01*
X30544Y2158478D01*
X30609Y2158783D01*
X30681Y2159086D01*
X30760Y2159387D01*
X30847Y2159687D01*
X30941Y2159984D01*
X31042Y2160279D01*
X31151Y2160571D01*
X31267Y2160860D01*
X31390Y2161147D01*
X31519Y2161430D01*
X31656Y2161710D01*
X31800Y2161987D01*
X31950Y2162260D01*
X32107Y2162529D01*
X32270Y2162794D01*
X32440Y2163056D01*
X32617Y2163313D01*
X32799Y2163565D01*
X32988Y2163813D01*
X33183Y2164057D01*
X33383Y2164295D01*
X33590Y2164529D01*
X33802Y2164757D01*
X34020Y2164980D01*
X34243Y2165198D01*
X34471Y2165410D01*
X34705Y2165617D01*
X34943Y2165817D01*
X35187Y2166012D01*
X35435Y2166201D01*
X35687Y2166383D01*
X35944Y2166560D01*
X36206Y2166730D01*
X36471Y2166893D01*
X36740Y2167050D01*
X37013Y2167200D01*
X37290Y2167344D01*
X37570Y2167481D01*
X37853Y2167610D01*
X38140Y2167733D01*
X38429Y2167849D01*
X38721Y2167958D01*
X39016Y2168059D01*
X39313Y2168153D01*
X39613Y2168240D01*
X39914Y2168319D01*
X40217Y2168391D01*
X40522Y2168456D01*
X40829Y2168513D01*
X41137Y2168563D01*
X41445Y2168604D01*
X41755Y2168639D01*
X42066Y2168666D01*
X42377Y2168685D01*
X42688Y2168696D01*
X43000Y2168700D01*
X43312Y2168696D01*
X43623Y2168685D01*
X43934Y2168666D01*
X44245Y2168639D01*
X44555Y2168604D01*
X44863Y2168563D01*
X45171Y2168513D01*
X45478Y2168456D01*
X45783Y2168391D01*
X46086Y2168319D01*
X46387Y2168240D01*
X46687Y2168153D01*
X46984Y2168059D01*
X47279Y2167958D01*
X47571Y2167849D01*
X47860Y2167733D01*
X48147Y2167610D01*
X48430Y2167481D01*
X48710Y2167344D01*
X48987Y2167200D01*
X49260Y2167050D01*
X49529Y2166893D01*
X49794Y2166730D01*
X50056Y2166560D01*
X50313Y2166383D01*
X50565Y2166201D01*
X50813Y2166012D01*
X51057Y2165817D01*
X51295Y2165617D01*
X51529Y2165410D01*
X51757Y2165198D01*
X51980Y2164980D01*
X52198Y2164757D01*
X52410Y2164529D01*
X52617Y2164295D01*
X52817Y2164057D01*
X53012Y2163813D01*
X53201Y2163565D01*
X53383Y2163313D01*
X53560Y2163056D01*
X53730Y2162794D01*
X53893Y2162529D01*
X54050Y2162260D01*
X54200Y2161987D01*
X54344Y2161710D01*
X54481Y2161430D01*
X54610Y2161147D01*
X54733Y2160860D01*
X54849Y2160571D01*
X54958Y2160279D01*
X55059Y2159984D01*
X55153Y2159687D01*
X55240Y2159387D01*
X55319Y2159086D01*
X55391Y2158783D01*
X55456Y2158478D01*
X55513Y2158171D01*
X55563Y2157863D01*
X55604Y2157555D01*
X55639Y2157245D01*
X55666Y2156934D01*
X55685Y2156623D01*
X55696Y2156312D01*
X55700Y2156000D01*
X55696Y2155688D01*
X55685Y2155377D01*
X55666Y2155066D01*
X55639Y2154755D01*
X55604Y2154445D01*
X55563Y2154137D01*
X55513Y2153829D01*
X55456Y2153522D01*
X55391Y2153217D01*
X55319Y2152914D01*
X55240Y2152613D01*
X55153Y2152313D01*
X55059Y2152016D01*
X54958Y2151721D01*
X54849Y2151429D01*
X54733Y2151140D01*
X54610Y2150853D01*
X54481Y2150570D01*
X54344Y2150290D01*
X54200Y2150013D01*
X54050Y2149740D01*
X53893Y2149471D01*
X53730Y2149206D01*
X53560Y2148944D01*
X53383Y2148687D01*
X53201Y2148435D01*
X53012Y2148187D01*
X52817Y2147943D01*
X52617Y2147705D01*
X52410Y2147471D01*
X52198Y2147243D01*
X51980Y2147020D01*
X51757Y2146802D01*
X51529Y2146590D01*
X51295Y2146383D01*
X51057Y2146183D01*
X50813Y2145988D01*
X50565Y2145799D01*
X50313Y2145617D01*
X50056Y2145440D01*
X49794Y2145270D01*
X49529Y2145107D01*
X49260Y2144950D01*
X48987Y2144800D01*
X48710Y2144656D01*
X48430Y2144519D01*
X48147Y2144390D01*
X47860Y2144267D01*
X47571Y2144151D01*
X47279Y2144042D01*
X46984Y2143941D01*
X46687Y2143847D01*
X46387Y2143760D01*
X46086Y2143681D01*
X45783Y2143609D01*
X45478Y2143544D01*
X45171Y2143487D01*
X44863Y2143437D01*
X44555Y2143396D01*
X44245Y2143361D01*
X43934Y2143334D01*
X43623Y2143315D01*
X43312Y2143304D01*
X43000Y2143300D01*
X42688Y2143304D01*
X42377Y2143315D01*
X42066Y2143334D01*
X41755Y2143361D01*
X41445Y2143396D01*
X41137Y2143437D01*
X40829Y2143487D01*
X40522Y2143544D01*
X40217Y2143609D01*
X39914Y2143681D01*
X39613Y2143760D01*
X39313Y2143847D01*
X39016Y2143941D01*
X38721Y2144042D01*
X38429Y2144151D01*
X38140Y2144267D01*
X37853Y2144390D01*
X37570Y2144519D01*
X37290Y2144656D01*
X37013Y2144800D01*
X36740Y2144950D01*
X36471Y2145107D01*
X36206Y2145270D01*
X35944Y2145440D01*
X35687Y2145617D01*
X35435Y2145799D01*
X35187Y2145988D01*
X34943Y2146183D01*
X34705Y2146383D01*
X34471Y2146590D01*
X34243Y2146802D01*
X34020Y2147020D01*
X33802Y2147243D01*
X33590Y2147471D01*
X33383Y2147705D01*
X33183Y2147943D01*
X32988Y2148187D01*
X32799Y2148435D01*
X32617Y2148687D01*
X32440Y2148944D01*
X32270Y2149206D01*
X32107Y2149471D01*
X31950Y2149740D01*
X31800Y2150013D01*
X31656Y2150290D01*
X31519Y2150570D01*
X31390Y2150853D01*
X31267Y2151140D01*
X31151Y2151429D01*
X31042Y2151721D01*
X30941Y2152016D01*
X30847Y2152313D01*
X30760Y2152613D01*
X30681Y2152914D01*
X30609Y2153217D01*
X30544Y2153522D01*
X30487Y2153829D01*
X30437Y2154137D01*
X30396Y2154445D01*
X30361Y2154755D01*
X30334Y2155066D01*
X30315Y2155377D01*
X30304Y2155688D01*
X30300Y2156000D01*
X1634600Y2154000D02*
X1644760Y2154000D01*
X1660000Y2169240D02*
X1660000Y2179400D01*
X1660000Y2138760D02*
X1660000Y2128600D01*
X1675240Y2154000D02*
X1685400Y2154000D01*
D31*
X1670856Y2154812D02*
X1660649Y2154649D01*
X1660649Y2154649D01*
X1660812Y2164856D01*
X1660813Y2164856D01*
X1661072Y2164839D01*
X1661330Y2164816D01*
X1661587Y2164787D01*
X1661844Y2164751D01*
X1662100Y2164709D01*
X1662355Y2164661D01*
X1662608Y2164607D01*
X1662861Y2164546D01*
X1663111Y2164479D01*
X1663360Y2164406D01*
X1663607Y2164328D01*
X1663852Y2164243D01*
X1664095Y2164152D01*
X1664336Y2164055D01*
X1664574Y2163952D01*
X1664809Y2163844D01*
X1665042Y2163730D01*
X1665272Y2163610D01*
X1665499Y2163485D01*
X1665723Y2163354D01*
X1665944Y2163218D01*
X1666161Y2163076D01*
X1666375Y2162929D01*
X1666585Y2162777D01*
X1666791Y2162620D01*
X1666993Y2162458D01*
X1667192Y2162291D01*
X1667386Y2162119D01*
X1667576Y2161942D01*
X1667761Y2161761D01*
X1667942Y2161576D01*
X1668119Y2161386D01*
X1668291Y2161192D01*
X1668458Y2160993D01*
X1668620Y2160791D01*
X1668777Y2160585D01*
X1668929Y2160375D01*
X1669076Y2160161D01*
X1669218Y2159944D01*
X1669354Y2159723D01*
X1669485Y2159499D01*
X1669610Y2159272D01*
X1669730Y2159042D01*
X1669844Y2158809D01*
X1669952Y2158574D01*
X1670055Y2158336D01*
X1670152Y2158095D01*
X1670243Y2157852D01*
X1670328Y2157607D01*
X1670406Y2157360D01*
X1670479Y2157111D01*
X1670546Y2156861D01*
X1670607Y2156608D01*
X1670661Y2156355D01*
X1670709Y2156100D01*
X1670751Y2155844D01*
X1670787Y2155587D01*
X1670816Y2155330D01*
X1670839Y2155072D01*
X1670856Y2154813D01*
X1669794Y2154813D01*
X1669777Y2155044D01*
X1669755Y2155274D01*
X1669728Y2155504D01*
X1669695Y2155733D01*
X1669656Y2155961D01*
X1669612Y2156189D01*
X1669562Y2156415D01*
X1669507Y2156640D01*
X1669447Y2156863D01*
X1669381Y2157085D01*
X1669310Y2157306D01*
X1669233Y2157524D01*
X1669151Y2157741D01*
X1669064Y2157955D01*
X1668972Y2158168D01*
X1668874Y2158378D01*
X1668772Y2158585D01*
X1668665Y2158790D01*
X1668552Y2158993D01*
X1668435Y2159192D01*
X1668313Y2159389D01*
X1668186Y2159583D01*
X1668055Y2159774D01*
X1667919Y2159961D01*
X1667778Y2160145D01*
X1667633Y2160326D01*
X1667484Y2160503D01*
X1667331Y2160676D01*
X1667173Y2160845D01*
X1667011Y2161011D01*
X1666845Y2161173D01*
X1666676Y2161331D01*
X1666503Y2161484D01*
X1666326Y2161633D01*
X1666145Y2161778D01*
X1665961Y2161919D01*
X1665774Y2162055D01*
X1665583Y2162186D01*
X1665389Y2162313D01*
X1665192Y2162435D01*
X1664993Y2162552D01*
X1664790Y2162665D01*
X1664585Y2162772D01*
X1664378Y2162874D01*
X1664168Y2162972D01*
X1663955Y2163064D01*
X1663741Y2163151D01*
X1663524Y2163233D01*
X1663306Y2163310D01*
X1663085Y2163381D01*
X1662863Y2163447D01*
X1662640Y2163507D01*
X1662415Y2163562D01*
X1662189Y2163612D01*
X1661961Y2163656D01*
X1661733Y2163695D01*
X1661504Y2163728D01*
X1661274Y2163755D01*
X1661044Y2163777D01*
X1660813Y2163794D01*
X1660813Y2162731D01*
X1661019Y2162714D01*
X1661225Y2162693D01*
X1661431Y2162667D01*
X1661636Y2162636D01*
X1661840Y2162600D01*
X1662043Y2162559D01*
X1662245Y2162512D01*
X1662446Y2162461D01*
X1662645Y2162406D01*
X1662843Y2162345D01*
X1663040Y2162279D01*
X1663235Y2162209D01*
X1663428Y2162134D01*
X1663619Y2162054D01*
X1663808Y2161970D01*
X1663996Y2161881D01*
X1664180Y2161787D01*
X1664363Y2161689D01*
X1664543Y2161587D01*
X1664721Y2161480D01*
X1664896Y2161369D01*
X1665068Y2161253D01*
X1665237Y2161134D01*
X1665403Y2161010D01*
X1665567Y2160883D01*
X1665727Y2160751D01*
X1665884Y2160616D01*
X1666037Y2160477D01*
X1666187Y2160334D01*
X1666334Y2160187D01*
X1666477Y2160037D01*
X1666616Y2159884D01*
X1666751Y2159727D01*
X1666883Y2159567D01*
X1667010Y2159403D01*
X1667134Y2159237D01*
X1667253Y2159068D01*
X1667369Y2158896D01*
X1667480Y2158721D01*
X1667587Y2158543D01*
X1667689Y2158363D01*
X1667787Y2158180D01*
X1667881Y2157996D01*
X1667970Y2157808D01*
X1668054Y2157619D01*
X1668134Y2157428D01*
X1668209Y2157235D01*
X1668279Y2157040D01*
X1668345Y2156843D01*
X1668406Y2156645D01*
X1668461Y2156446D01*
X1668512Y2156245D01*
X1668559Y2156043D01*
X1668600Y2155840D01*
X1668636Y2155636D01*
X1668667Y2155431D01*
X1668693Y2155225D01*
X1668714Y2155019D01*
X1668731Y2154813D01*
X1667667Y2154812D01*
X1667651Y2154994D01*
X1667631Y2155175D01*
X1667606Y2155355D01*
X1667577Y2155535D01*
X1667543Y2155714D01*
X1667505Y2155892D01*
X1667463Y2156069D01*
X1667416Y2156245D01*
X1667366Y2156420D01*
X1667310Y2156593D01*
X1667251Y2156765D01*
X1667187Y2156936D01*
X1667120Y2157105D01*
X1667048Y2157272D01*
X1666972Y2157438D01*
X1666892Y2157601D01*
X1666808Y2157763D01*
X1666720Y2157922D01*
X1666628Y2158079D01*
X1666533Y2158234D01*
X1666433Y2158387D01*
X1666330Y2158537D01*
X1666224Y2158684D01*
X1666113Y2158829D01*
X1666000Y2158971D01*
X1665882Y2159111D01*
X1665762Y2159247D01*
X1665638Y2159380D01*
X1665511Y2159511D01*
X1665380Y2159638D01*
X1665247Y2159762D01*
X1665111Y2159882D01*
X1664971Y2160000D01*
X1664829Y2160113D01*
X1664684Y2160224D01*
X1664537Y2160330D01*
X1664387Y2160433D01*
X1664234Y2160533D01*
X1664079Y2160628D01*
X1663922Y2160720D01*
X1663763Y2160808D01*
X1663601Y2160892D01*
X1663438Y2160972D01*
X1663272Y2161048D01*
X1663105Y2161120D01*
X1662936Y2161187D01*
X1662765Y2161251D01*
X1662593Y2161310D01*
X1662420Y2161366D01*
X1662245Y2161416D01*
X1662069Y2161463D01*
X1661892Y2161505D01*
X1661714Y2161543D01*
X1661535Y2161577D01*
X1661355Y2161606D01*
X1661175Y2161631D01*
X1660994Y2161651D01*
X1660812Y2161667D01*
X1660812Y2160602D01*
X1660970Y2160587D01*
X1661128Y2160567D01*
X1661285Y2160543D01*
X1661441Y2160515D01*
X1661597Y2160484D01*
X1661752Y2160449D01*
X1661906Y2160409D01*
X1662058Y2160366D01*
X1662210Y2160319D01*
X1662361Y2160269D01*
X1662510Y2160214D01*
X1662658Y2160156D01*
X1662804Y2160095D01*
X1662949Y2160029D01*
X1663092Y2159960D01*
X1663233Y2159888D01*
X1663372Y2159812D01*
X1663510Y2159733D01*
X1663645Y2159650D01*
X1663779Y2159564D01*
X1663910Y2159474D01*
X1664039Y2159381D01*
X1664165Y2159285D01*
X1664290Y2159186D01*
X1664411Y2159084D01*
X1664530Y2158979D01*
X1664647Y2158871D01*
X1664760Y2158760D01*
X1664871Y2158647D01*
X1664979Y2158530D01*
X1665084Y2158411D01*
X1665186Y2158290D01*
X1665285Y2158165D01*
X1665381Y2158039D01*
X1665474Y2157910D01*
X1665564Y2157779D01*
X1665650Y2157645D01*
X1665733Y2157510D01*
X1665812Y2157372D01*
X1665888Y2157233D01*
X1665960Y2157092D01*
X1666029Y2156949D01*
X1666095Y2156804D01*
X1666156Y2156658D01*
X1666214Y2156510D01*
X1666269Y2156361D01*
X1666319Y2156210D01*
X1666366Y2156058D01*
X1666409Y2155906D01*
X1666449Y2155752D01*
X1666484Y2155597D01*
X1666515Y2155441D01*
X1666543Y2155285D01*
X1666567Y2155128D01*
X1666587Y2154970D01*
X1666602Y2154812D01*
X1665537Y2154812D01*
X1665519Y2154955D01*
X1665498Y2155098D01*
X1665474Y2155241D01*
X1665445Y2155382D01*
X1665412Y2155523D01*
X1665376Y2155663D01*
X1665335Y2155802D01*
X1665291Y2155940D01*
X1665244Y2156076D01*
X1665192Y2156211D01*
X1665137Y2156345D01*
X1665079Y2156477D01*
X1665016Y2156607D01*
X1664951Y2156736D01*
X1664881Y2156863D01*
X1664809Y2156988D01*
X1664733Y2157110D01*
X1664653Y2157231D01*
X1664571Y2157350D01*
X1664485Y2157466D01*
X1664396Y2157580D01*
X1664304Y2157691D01*
X1664209Y2157800D01*
X1664111Y2157907D01*
X1664010Y2158010D01*
X1663907Y2158111D01*
X1663800Y2158209D01*
X1663691Y2158304D01*
X1663580Y2158396D01*
X1663466Y2158485D01*
X1663350Y2158571D01*
X1663231Y2158653D01*
X1663110Y2158733D01*
X1662988Y2158809D01*
X1662863Y2158881D01*
X1662736Y2158951D01*
X1662607Y2159016D01*
X1662477Y2159079D01*
X1662345Y2159137D01*
X1662211Y2159192D01*
X1662076Y2159244D01*
X1661940Y2159291D01*
X1661802Y2159335D01*
X1661663Y2159376D01*
X1661523Y2159412D01*
X1661382Y2159445D01*
X1661241Y2159474D01*
X1661098Y2159498D01*
X1660955Y2159519D01*
X1660812Y2159537D01*
X1660811Y2158468D01*
X1660939Y2158449D01*
X1661067Y2158427D01*
X1661193Y2158400D01*
X1661319Y2158370D01*
X1661443Y2158335D01*
X1661567Y2158297D01*
X1661689Y2158255D01*
X1661810Y2158210D01*
X1661930Y2158161D01*
X1662048Y2158108D01*
X1662164Y2158052D01*
X1662279Y2157992D01*
X1662392Y2157928D01*
X1662502Y2157862D01*
X1662611Y2157792D01*
X1662717Y2157718D01*
X1662822Y2157642D01*
X1662924Y2157562D01*
X1663023Y2157480D01*
X1663120Y2157394D01*
X1663214Y2157305D01*
X1663305Y2157214D01*
X1663394Y2157120D01*
X1663480Y2157023D01*
X1663562Y2156924D01*
X1663642Y2156822D01*
X1663718Y2156717D01*
X1663792Y2156611D01*
X1663862Y2156502D01*
X1663928Y2156392D01*
X1663992Y2156279D01*
X1664052Y2156164D01*
X1664108Y2156048D01*
X1664161Y2155930D01*
X1664210Y2155810D01*
X1664255Y2155689D01*
X1664297Y2155567D01*
X1664335Y2155443D01*
X1664370Y2155319D01*
X1664400Y2155193D01*
X1664427Y2155067D01*
X1664449Y2154939D01*
X1664468Y2154811D01*
X1663395Y2154810D01*
X1663374Y2154919D01*
X1663349Y2155028D01*
X1663320Y2155135D01*
X1663287Y2155241D01*
X1663251Y2155347D01*
X1663211Y2155450D01*
X1663168Y2155553D01*
X1663121Y2155653D01*
X1663070Y2155753D01*
X1663016Y2155850D01*
X1662959Y2155945D01*
X1662898Y2156038D01*
X1662834Y2156130D01*
X1662767Y2156218D01*
X1662697Y2156305D01*
X1662625Y2156389D01*
X1662549Y2156470D01*
X1662470Y2156549D01*
X1662389Y2156625D01*
X1662305Y2156697D01*
X1662218Y2156767D01*
X1662130Y2156834D01*
X1662038Y2156898D01*
X1661945Y2156959D01*
X1661850Y2157016D01*
X1661753Y2157070D01*
X1661653Y2157121D01*
X1661553Y2157168D01*
X1661450Y2157211D01*
X1661347Y2157251D01*
X1661241Y2157287D01*
X1661135Y2157320D01*
X1661028Y2157349D01*
X1660919Y2157374D01*
X1660810Y2157395D01*
X1660807Y2156310D01*
X1660892Y2156285D01*
X1660976Y2156257D01*
X1661060Y2156225D01*
X1661141Y2156189D01*
X1661221Y2156151D01*
X1661300Y2156108D01*
X1661376Y2156063D01*
X1661451Y2156015D01*
X1661524Y2155963D01*
X1661594Y2155908D01*
X1661662Y2155851D01*
X1661728Y2155791D01*
X1661791Y2155728D01*
X1661851Y2155662D01*
X1661908Y2155594D01*
X1661963Y2155524D01*
X1662015Y2155451D01*
X1662063Y2155376D01*
X1662108Y2155300D01*
X1662151Y2155221D01*
X1662189Y2155141D01*
X1662225Y2155060D01*
X1662257Y2154976D01*
X1662285Y2154892D01*
X1662310Y2154807D01*
X1661179Y2154788D01*
X1661146Y2154841D01*
X1661111Y2154892D01*
X1661072Y2154940D01*
X1661031Y2154987D01*
X1660987Y2155031D01*
X1660940Y2155072D01*
X1660892Y2155111D01*
X1660841Y2155146D01*
X1660788Y2155179D01*
X1649144Y2153188D02*
X1659351Y2153351D01*
X1659351Y2153351D01*
X1659188Y2143144D01*
X1659187Y2143144D01*
X1658928Y2143161D01*
X1658670Y2143184D01*
X1658413Y2143213D01*
X1658156Y2143249D01*
X1657900Y2143291D01*
X1657645Y2143339D01*
X1657392Y2143393D01*
X1657139Y2143454D01*
X1656889Y2143521D01*
X1656640Y2143594D01*
X1656393Y2143672D01*
X1656148Y2143757D01*
X1655905Y2143848D01*
X1655664Y2143945D01*
X1655426Y2144048D01*
X1655191Y2144156D01*
X1654958Y2144270D01*
X1654728Y2144390D01*
X1654501Y2144515D01*
X1654277Y2144646D01*
X1654056Y2144782D01*
X1653839Y2144924D01*
X1653625Y2145071D01*
X1653415Y2145223D01*
X1653209Y2145380D01*
X1653007Y2145542D01*
X1652808Y2145709D01*
X1652614Y2145881D01*
X1652424Y2146058D01*
X1652239Y2146239D01*
X1652058Y2146424D01*
X1651881Y2146614D01*
X1651709Y2146808D01*
X1651542Y2147007D01*
X1651380Y2147209D01*
X1651223Y2147415D01*
X1651071Y2147625D01*
X1650924Y2147839D01*
X1650782Y2148056D01*
X1650646Y2148277D01*
X1650515Y2148501D01*
X1650390Y2148728D01*
X1650270Y2148958D01*
X1650156Y2149191D01*
X1650048Y2149426D01*
X1649945Y2149664D01*
X1649848Y2149905D01*
X1649757Y2150148D01*
X1649672Y2150393D01*
X1649594Y2150640D01*
X1649521Y2150889D01*
X1649454Y2151139D01*
X1649393Y2151392D01*
X1649339Y2151645D01*
X1649291Y2151900D01*
X1649249Y2152156D01*
X1649213Y2152413D01*
X1649184Y2152670D01*
X1649161Y2152928D01*
X1649144Y2153187D01*
X1650206Y2153187D01*
X1650223Y2152956D01*
X1650245Y2152726D01*
X1650272Y2152496D01*
X1650305Y2152267D01*
X1650344Y2152039D01*
X1650388Y2151811D01*
X1650438Y2151585D01*
X1650493Y2151360D01*
X1650553Y2151137D01*
X1650619Y2150915D01*
X1650690Y2150694D01*
X1650767Y2150476D01*
X1650849Y2150259D01*
X1650936Y2150045D01*
X1651028Y2149832D01*
X1651126Y2149622D01*
X1651228Y2149415D01*
X1651335Y2149210D01*
X1651448Y2149007D01*
X1651565Y2148808D01*
X1651687Y2148611D01*
X1651814Y2148417D01*
X1651945Y2148226D01*
X1652081Y2148039D01*
X1652222Y2147855D01*
X1652367Y2147674D01*
X1652516Y2147497D01*
X1652669Y2147324D01*
X1652827Y2147155D01*
X1652989Y2146989D01*
X1653155Y2146827D01*
X1653324Y2146669D01*
X1653497Y2146516D01*
X1653674Y2146367D01*
X1653855Y2146222D01*
X1654039Y2146081D01*
X1654226Y2145945D01*
X1654417Y2145814D01*
X1654611Y2145687D01*
X1654808Y2145565D01*
X1655007Y2145448D01*
X1655210Y2145335D01*
X1655415Y2145228D01*
X1655622Y2145126D01*
X1655832Y2145028D01*
X1656045Y2144936D01*
X1656259Y2144849D01*
X1656476Y2144767D01*
X1656694Y2144690D01*
X1656915Y2144619D01*
X1657137Y2144553D01*
X1657360Y2144493D01*
X1657585Y2144438D01*
X1657811Y2144388D01*
X1658039Y2144344D01*
X1658267Y2144305D01*
X1658496Y2144272D01*
X1658726Y2144245D01*
X1658956Y2144223D01*
X1659187Y2144206D01*
X1659187Y2145269D01*
X1658981Y2145286D01*
X1658775Y2145307D01*
X1658569Y2145333D01*
X1658364Y2145364D01*
X1658160Y2145400D01*
X1657957Y2145441D01*
X1657755Y2145488D01*
X1657554Y2145539D01*
X1657355Y2145594D01*
X1657157Y2145655D01*
X1656960Y2145721D01*
X1656765Y2145791D01*
X1656572Y2145866D01*
X1656381Y2145946D01*
X1656192Y2146030D01*
X1656004Y2146119D01*
X1655820Y2146213D01*
X1655637Y2146311D01*
X1655457Y2146413D01*
X1655279Y2146520D01*
X1655104Y2146631D01*
X1654932Y2146747D01*
X1654763Y2146866D01*
X1654597Y2146990D01*
X1654433Y2147117D01*
X1654273Y2147249D01*
X1654116Y2147384D01*
X1653963Y2147523D01*
X1653813Y2147666D01*
X1653666Y2147813D01*
X1653523Y2147963D01*
X1653384Y2148116D01*
X1653249Y2148273D01*
X1653117Y2148433D01*
X1652990Y2148597D01*
X1652866Y2148763D01*
X1652747Y2148932D01*
X1652631Y2149104D01*
X1652520Y2149279D01*
X1652413Y2149457D01*
X1652311Y2149637D01*
X1652213Y2149820D01*
X1652119Y2150004D01*
X1652030Y2150192D01*
X1651946Y2150381D01*
X1651866Y2150572D01*
X1651791Y2150765D01*
X1651721Y2150960D01*
X1651655Y2151157D01*
X1651594Y2151355D01*
X1651539Y2151554D01*
X1651488Y2151755D01*
X1651441Y2151957D01*
X1651400Y2152160D01*
X1651364Y2152364D01*
X1651333Y2152569D01*
X1651307Y2152775D01*
X1651286Y2152981D01*
X1651269Y2153187D01*
X1652333Y2153188D01*
X1652349Y2153006D01*
X1652369Y2152825D01*
X1652394Y2152645D01*
X1652423Y2152465D01*
X1652457Y2152286D01*
X1652495Y2152108D01*
X1652537Y2151931D01*
X1652584Y2151755D01*
X1652634Y2151580D01*
X1652690Y2151407D01*
X1652749Y2151235D01*
X1652813Y2151064D01*
X1652880Y2150895D01*
X1652952Y2150728D01*
X1653028Y2150562D01*
X1653108Y2150399D01*
X1653192Y2150237D01*
X1653280Y2150078D01*
X1653372Y2149921D01*
X1653467Y2149766D01*
X1653567Y2149613D01*
X1653670Y2149463D01*
X1653776Y2149316D01*
X1653887Y2149171D01*
X1654000Y2149029D01*
X1654118Y2148889D01*
X1654238Y2148753D01*
X1654362Y2148620D01*
X1654489Y2148489D01*
X1654620Y2148362D01*
X1654753Y2148238D01*
X1654889Y2148118D01*
X1655029Y2148000D01*
X1655171Y2147887D01*
X1655316Y2147776D01*
X1655463Y2147670D01*
X1655613Y2147567D01*
X1655766Y2147467D01*
X1655921Y2147372D01*
X1656078Y2147280D01*
X1656237Y2147192D01*
X1656399Y2147108D01*
X1656562Y2147028D01*
X1656728Y2146952D01*
X1656895Y2146880D01*
X1657064Y2146813D01*
X1657235Y2146749D01*
X1657407Y2146690D01*
X1657580Y2146634D01*
X1657755Y2146584D01*
X1657931Y2146537D01*
X1658108Y2146495D01*
X1658286Y2146457D01*
X1658465Y2146423D01*
X1658645Y2146394D01*
X1658825Y2146369D01*
X1659006Y2146349D01*
X1659188Y2146333D01*
X1659188Y2147398D01*
X1659030Y2147413D01*
X1658872Y2147433D01*
X1658715Y2147457D01*
X1658559Y2147485D01*
X1658403Y2147516D01*
X1658248Y2147551D01*
X1658094Y2147591D01*
X1657942Y2147634D01*
X1657790Y2147681D01*
X1657639Y2147731D01*
X1657490Y2147786D01*
X1657342Y2147844D01*
X1657196Y2147905D01*
X1657051Y2147971D01*
X1656908Y2148040D01*
X1656767Y2148112D01*
X1656628Y2148188D01*
X1656490Y2148267D01*
X1656355Y2148350D01*
X1656221Y2148436D01*
X1656090Y2148526D01*
X1655961Y2148619D01*
X1655835Y2148715D01*
X1655710Y2148814D01*
X1655589Y2148916D01*
X1655470Y2149021D01*
X1655353Y2149129D01*
X1655240Y2149240D01*
X1655129Y2149353D01*
X1655021Y2149470D01*
X1654916Y2149589D01*
X1654814Y2149710D01*
X1654715Y2149835D01*
X1654619Y2149961D01*
X1654526Y2150090D01*
X1654436Y2150221D01*
X1654350Y2150355D01*
X1654267Y2150490D01*
X1654188Y2150628D01*
X1654112Y2150767D01*
X1654040Y2150908D01*
X1653971Y2151051D01*
X1653905Y2151196D01*
X1653844Y2151342D01*
X1653786Y2151490D01*
X1653731Y2151639D01*
X1653681Y2151790D01*
X1653634Y2151942D01*
X1653591Y2152094D01*
X1653551Y2152248D01*
X1653516Y2152403D01*
X1653485Y2152559D01*
X1653457Y2152715D01*
X1653433Y2152872D01*
X1653413Y2153030D01*
X1653398Y2153188D01*
X1654463Y2153188D01*
X1654481Y2153045D01*
X1654502Y2152902D01*
X1654526Y2152759D01*
X1654555Y2152618D01*
X1654588Y2152477D01*
X1654624Y2152337D01*
X1654665Y2152198D01*
X1654709Y2152060D01*
X1654756Y2151924D01*
X1654808Y2151789D01*
X1654863Y2151655D01*
X1654921Y2151523D01*
X1654984Y2151393D01*
X1655049Y2151264D01*
X1655119Y2151137D01*
X1655191Y2151012D01*
X1655267Y2150890D01*
X1655347Y2150769D01*
X1655429Y2150650D01*
X1655515Y2150534D01*
X1655604Y2150420D01*
X1655696Y2150309D01*
X1655791Y2150200D01*
X1655889Y2150093D01*
X1655990Y2149990D01*
X1656093Y2149889D01*
X1656200Y2149791D01*
X1656309Y2149696D01*
X1656420Y2149604D01*
X1656534Y2149515D01*
X1656650Y2149429D01*
X1656769Y2149347D01*
X1656890Y2149267D01*
X1657012Y2149191D01*
X1657137Y2149119D01*
X1657264Y2149049D01*
X1657393Y2148984D01*
X1657523Y2148921D01*
X1657655Y2148863D01*
X1657789Y2148808D01*
X1657924Y2148756D01*
X1658060Y2148709D01*
X1658198Y2148665D01*
X1658337Y2148624D01*
X1658477Y2148588D01*
X1658618Y2148555D01*
X1658759Y2148526D01*
X1658902Y2148502D01*
X1659045Y2148481D01*
X1659188Y2148463D01*
X1659189Y2149532D01*
X1659061Y2149551D01*
X1658933Y2149573D01*
X1658807Y2149600D01*
X1658681Y2149630D01*
X1658557Y2149665D01*
X1658433Y2149703D01*
X1658311Y2149745D01*
X1658190Y2149790D01*
X1658070Y2149839D01*
X1657952Y2149892D01*
X1657836Y2149948D01*
X1657721Y2150008D01*
X1657608Y2150072D01*
X1657498Y2150138D01*
X1657389Y2150208D01*
X1657283Y2150282D01*
X1657178Y2150358D01*
X1657076Y2150438D01*
X1656977Y2150520D01*
X1656880Y2150606D01*
X1656786Y2150695D01*
X1656695Y2150786D01*
X1656606Y2150880D01*
X1656520Y2150977D01*
X1656438Y2151076D01*
X1656358Y2151178D01*
X1656282Y2151283D01*
X1656208Y2151389D01*
X1656138Y2151498D01*
X1656072Y2151608D01*
X1656008Y2151721D01*
X1655948Y2151836D01*
X1655892Y2151952D01*
X1655839Y2152070D01*
X1655790Y2152190D01*
X1655745Y2152311D01*
X1655703Y2152433D01*
X1655665Y2152557D01*
X1655630Y2152681D01*
X1655600Y2152807D01*
X1655573Y2152933D01*
X1655551Y2153061D01*
X1655532Y2153189D01*
X1656605Y2153190D01*
X1656626Y2153081D01*
X1656651Y2152972D01*
X1656680Y2152865D01*
X1656713Y2152759D01*
X1656749Y2152653D01*
X1656789Y2152550D01*
X1656832Y2152447D01*
X1656879Y2152347D01*
X1656930Y2152247D01*
X1656984Y2152150D01*
X1657041Y2152055D01*
X1657102Y2151962D01*
X1657166Y2151870D01*
X1657233Y2151782D01*
X1657303Y2151695D01*
X1657375Y2151611D01*
X1657451Y2151530D01*
X1657530Y2151451D01*
X1657611Y2151375D01*
X1657695Y2151303D01*
X1657782Y2151233D01*
X1657870Y2151166D01*
X1657962Y2151102D01*
X1658055Y2151041D01*
X1658150Y2150984D01*
X1658247Y2150930D01*
X1658347Y2150879D01*
X1658447Y2150832D01*
X1658550Y2150789D01*
X1658653Y2150749D01*
X1658759Y2150713D01*
X1658865Y2150680D01*
X1658972Y2150651D01*
X1659081Y2150626D01*
X1659190Y2150605D01*
X1659193Y2151690D01*
X1659108Y2151715D01*
X1659024Y2151743D01*
X1658940Y2151775D01*
X1658859Y2151811D01*
X1658779Y2151849D01*
X1658700Y2151892D01*
X1658624Y2151937D01*
X1658549Y2151985D01*
X1658476Y2152037D01*
X1658406Y2152092D01*
X1658338Y2152149D01*
X1658272Y2152209D01*
X1658209Y2152272D01*
X1658149Y2152338D01*
X1658092Y2152406D01*
X1658037Y2152476D01*
X1657985Y2152549D01*
X1657937Y2152624D01*
X1657892Y2152700D01*
X1657849Y2152779D01*
X1657811Y2152859D01*
X1657775Y2152940D01*
X1657743Y2153024D01*
X1657715Y2153108D01*
X1657690Y2153193D01*
X1658821Y2153212D01*
X1658854Y2153159D01*
X1658889Y2153108D01*
X1658928Y2153060D01*
X1658969Y2153013D01*
X1659013Y2152969D01*
X1659060Y2152928D01*
X1659108Y2152889D01*
X1659159Y2152854D01*
X1659212Y2152821D01*
D30*
X1647300Y2154000D02*
X1647304Y2154312D01*
X1647315Y2154623D01*
X1647334Y2154934D01*
X1647361Y2155245D01*
X1647396Y2155555D01*
X1647437Y2155863D01*
X1647487Y2156171D01*
X1647544Y2156478D01*
X1647609Y2156783D01*
X1647681Y2157086D01*
X1647760Y2157387D01*
X1647847Y2157687D01*
X1647941Y2157984D01*
X1648042Y2158279D01*
X1648151Y2158571D01*
X1648267Y2158860D01*
X1648390Y2159147D01*
X1648519Y2159430D01*
X1648656Y2159710D01*
X1648800Y2159987D01*
X1648950Y2160260D01*
X1649107Y2160529D01*
X1649270Y2160794D01*
X1649440Y2161056D01*
X1649617Y2161313D01*
X1649799Y2161565D01*
X1649988Y2161813D01*
X1650183Y2162057D01*
X1650383Y2162295D01*
X1650590Y2162529D01*
X1650802Y2162757D01*
X1651020Y2162980D01*
X1651243Y2163198D01*
X1651471Y2163410D01*
X1651705Y2163617D01*
X1651943Y2163817D01*
X1652187Y2164012D01*
X1652435Y2164201D01*
X1652687Y2164383D01*
X1652944Y2164560D01*
X1653206Y2164730D01*
X1653471Y2164893D01*
X1653740Y2165050D01*
X1654013Y2165200D01*
X1654290Y2165344D01*
X1654570Y2165481D01*
X1654853Y2165610D01*
X1655140Y2165733D01*
X1655429Y2165849D01*
X1655721Y2165958D01*
X1656016Y2166059D01*
X1656313Y2166153D01*
X1656613Y2166240D01*
X1656914Y2166319D01*
X1657217Y2166391D01*
X1657522Y2166456D01*
X1657829Y2166513D01*
X1658137Y2166563D01*
X1658445Y2166604D01*
X1658755Y2166639D01*
X1659066Y2166666D01*
X1659377Y2166685D01*
X1659688Y2166696D01*
X1660000Y2166700D01*
X1660312Y2166696D01*
X1660623Y2166685D01*
X1660934Y2166666D01*
X1661245Y2166639D01*
X1661555Y2166604D01*
X1661863Y2166563D01*
X1662171Y2166513D01*
X1662478Y2166456D01*
X1662783Y2166391D01*
X1663086Y2166319D01*
X1663387Y2166240D01*
X1663687Y2166153D01*
X1663984Y2166059D01*
X1664279Y2165958D01*
X1664571Y2165849D01*
X1664860Y2165733D01*
X1665147Y2165610D01*
X1665430Y2165481D01*
X1665710Y2165344D01*
X1665987Y2165200D01*
X1666260Y2165050D01*
X1666529Y2164893D01*
X1666794Y2164730D01*
X1667056Y2164560D01*
X1667313Y2164383D01*
X1667565Y2164201D01*
X1667813Y2164012D01*
X1668057Y2163817D01*
X1668295Y2163617D01*
X1668529Y2163410D01*
X1668757Y2163198D01*
X1668980Y2162980D01*
X1669198Y2162757D01*
X1669410Y2162529D01*
X1669617Y2162295D01*
X1669817Y2162057D01*
X1670012Y2161813D01*
X1670201Y2161565D01*
X1670383Y2161313D01*
X1670560Y2161056D01*
X1670730Y2160794D01*
X1670893Y2160529D01*
X1671050Y2160260D01*
X1671200Y2159987D01*
X1671344Y2159710D01*
X1671481Y2159430D01*
X1671610Y2159147D01*
X1671733Y2158860D01*
X1671849Y2158571D01*
X1671958Y2158279D01*
X1672059Y2157984D01*
X1672153Y2157687D01*
X1672240Y2157387D01*
X1672319Y2157086D01*
X1672391Y2156783D01*
X1672456Y2156478D01*
X1672513Y2156171D01*
X1672563Y2155863D01*
X1672604Y2155555D01*
X1672639Y2155245D01*
X1672666Y2154934D01*
X1672685Y2154623D01*
X1672696Y2154312D01*
X1672700Y2154000D01*
X1672696Y2153688D01*
X1672685Y2153377D01*
X1672666Y2153066D01*
X1672639Y2152755D01*
X1672604Y2152445D01*
X1672563Y2152137D01*
X1672513Y2151829D01*
X1672456Y2151522D01*
X1672391Y2151217D01*
X1672319Y2150914D01*
X1672240Y2150613D01*
X1672153Y2150313D01*
X1672059Y2150016D01*
X1671958Y2149721D01*
X1671849Y2149429D01*
X1671733Y2149140D01*
X1671610Y2148853D01*
X1671481Y2148570D01*
X1671344Y2148290D01*
X1671200Y2148013D01*
X1671050Y2147740D01*
X1670893Y2147471D01*
X1670730Y2147206D01*
X1670560Y2146944D01*
X1670383Y2146687D01*
X1670201Y2146435D01*
X1670012Y2146187D01*
X1669817Y2145943D01*
X1669617Y2145705D01*
X1669410Y2145471D01*
X1669198Y2145243D01*
X1668980Y2145020D01*
X1668757Y2144802D01*
X1668529Y2144590D01*
X1668295Y2144383D01*
X1668057Y2144183D01*
X1667813Y2143988D01*
X1667565Y2143799D01*
X1667313Y2143617D01*
X1667056Y2143440D01*
X1666794Y2143270D01*
X1666529Y2143107D01*
X1666260Y2142950D01*
X1665987Y2142800D01*
X1665710Y2142656D01*
X1665430Y2142519D01*
X1665147Y2142390D01*
X1664860Y2142267D01*
X1664571Y2142151D01*
X1664279Y2142042D01*
X1663984Y2141941D01*
X1663687Y2141847D01*
X1663387Y2141760D01*
X1663086Y2141681D01*
X1662783Y2141609D01*
X1662478Y2141544D01*
X1662171Y2141487D01*
X1661863Y2141437D01*
X1661555Y2141396D01*
X1661245Y2141361D01*
X1660934Y2141334D01*
X1660623Y2141315D01*
X1660312Y2141304D01*
X1660000Y2141300D01*
X1659688Y2141304D01*
X1659377Y2141315D01*
X1659066Y2141334D01*
X1658755Y2141361D01*
X1658445Y2141396D01*
X1658137Y2141437D01*
X1657829Y2141487D01*
X1657522Y2141544D01*
X1657217Y2141609D01*
X1656914Y2141681D01*
X1656613Y2141760D01*
X1656313Y2141847D01*
X1656016Y2141941D01*
X1655721Y2142042D01*
X1655429Y2142151D01*
X1655140Y2142267D01*
X1654853Y2142390D01*
X1654570Y2142519D01*
X1654290Y2142656D01*
X1654013Y2142800D01*
X1653740Y2142950D01*
X1653471Y2143107D01*
X1653206Y2143270D01*
X1652944Y2143440D01*
X1652687Y2143617D01*
X1652435Y2143799D01*
X1652187Y2143988D01*
X1651943Y2144183D01*
X1651705Y2144383D01*
X1651471Y2144590D01*
X1651243Y2144802D01*
X1651020Y2145020D01*
X1650802Y2145243D01*
X1650590Y2145471D01*
X1650383Y2145705D01*
X1650183Y2145943D01*
X1649988Y2146187D01*
X1649799Y2146435D01*
X1649617Y2146687D01*
X1649440Y2146944D01*
X1649270Y2147206D01*
X1649107Y2147471D01*
X1648950Y2147740D01*
X1648800Y2148013D01*
X1648656Y2148290D01*
X1648519Y2148570D01*
X1648390Y2148853D01*
X1648267Y2149140D01*
X1648151Y2149429D01*
X1648042Y2149721D01*
X1647941Y2150016D01*
X1647847Y2150313D01*
X1647760Y2150613D01*
X1647681Y2150914D01*
X1647609Y2151217D01*
X1647544Y2151522D01*
X1647487Y2151829D01*
X1647437Y2152137D01*
X1647396Y2152445D01*
X1647361Y2152755D01*
X1647334Y2153066D01*
X1647315Y2153377D01*
X1647304Y2153688D01*
X1647300Y2154000D01*
X1646760Y52000D02*
X1636600Y52000D01*
X1662000Y67240D02*
X1662000Y77400D01*
X1662000Y36760D02*
X1662000Y26600D01*
X1677240Y52000D02*
X1687400Y52000D01*
D31*
X1672856Y52812D02*
X1662649Y52649D01*
X1662649Y52649D01*
X1662812Y62856D01*
X1662813Y62856D01*
X1663072Y62839D01*
X1663330Y62816D01*
X1663587Y62787D01*
X1663844Y62751D01*
X1664100Y62709D01*
X1664355Y62661D01*
X1664608Y62607D01*
X1664861Y62546D01*
X1665111Y62479D01*
X1665360Y62406D01*
X1665607Y62328D01*
X1665852Y62243D01*
X1666095Y62152D01*
X1666336Y62055D01*
X1666574Y61952D01*
X1666809Y61844D01*
X1667042Y61730D01*
X1667272Y61610D01*
X1667499Y61485D01*
X1667723Y61354D01*
X1667944Y61218D01*
X1668161Y61076D01*
X1668375Y60929D01*
X1668585Y60777D01*
X1668791Y60620D01*
X1668993Y60458D01*
X1669192Y60291D01*
X1669386Y60119D01*
X1669576Y59942D01*
X1669761Y59761D01*
X1669942Y59576D01*
X1670119Y59386D01*
X1670291Y59192D01*
X1670458Y58993D01*
X1670620Y58791D01*
X1670777Y58585D01*
X1670929Y58375D01*
X1671076Y58161D01*
X1671218Y57944D01*
X1671354Y57723D01*
X1671485Y57499D01*
X1671610Y57272D01*
X1671730Y57042D01*
X1671844Y56809D01*
X1671952Y56574D01*
X1672055Y56336D01*
X1672152Y56095D01*
X1672243Y55852D01*
X1672328Y55607D01*
X1672406Y55360D01*
X1672479Y55111D01*
X1672546Y54861D01*
X1672607Y54608D01*
X1672661Y54355D01*
X1672709Y54100D01*
X1672751Y53844D01*
X1672787Y53587D01*
X1672816Y53330D01*
X1672839Y53072D01*
X1672856Y52813D01*
X1671794Y52813D01*
X1671777Y53044D01*
X1671755Y53274D01*
X1671728Y53504D01*
X1671695Y53733D01*
X1671656Y53961D01*
X1671612Y54189D01*
X1671562Y54415D01*
X1671507Y54640D01*
X1671447Y54863D01*
X1671381Y55085D01*
X1671310Y55306D01*
X1671233Y55524D01*
X1671151Y55741D01*
X1671064Y55955D01*
X1670972Y56168D01*
X1670874Y56378D01*
X1670772Y56585D01*
X1670665Y56790D01*
X1670552Y56993D01*
X1670435Y57192D01*
X1670313Y57389D01*
X1670186Y57583D01*
X1670055Y57774D01*
X1669919Y57961D01*
X1669778Y58145D01*
X1669633Y58326D01*
X1669484Y58503D01*
X1669331Y58676D01*
X1669173Y58845D01*
X1669011Y59011D01*
X1668845Y59173D01*
X1668676Y59331D01*
X1668503Y59484D01*
X1668326Y59633D01*
X1668145Y59778D01*
X1667961Y59919D01*
X1667774Y60055D01*
X1667583Y60186D01*
X1667389Y60313D01*
X1667192Y60435D01*
X1666993Y60552D01*
X1666790Y60665D01*
X1666585Y60772D01*
X1666378Y60874D01*
X1666168Y60972D01*
X1665955Y61064D01*
X1665741Y61151D01*
X1665524Y61233D01*
X1665306Y61310D01*
X1665085Y61381D01*
X1664863Y61447D01*
X1664640Y61507D01*
X1664415Y61562D01*
X1664189Y61612D01*
X1663961Y61656D01*
X1663733Y61695D01*
X1663504Y61728D01*
X1663274Y61755D01*
X1663044Y61777D01*
X1662813Y61794D01*
X1662813Y60731D01*
X1663019Y60714D01*
X1663225Y60693D01*
X1663431Y60667D01*
X1663636Y60636D01*
X1663840Y60600D01*
X1664043Y60559D01*
X1664245Y60512D01*
X1664446Y60461D01*
X1664645Y60406D01*
X1664843Y60345D01*
X1665040Y60279D01*
X1665235Y60209D01*
X1665428Y60134D01*
X1665619Y60054D01*
X1665808Y59970D01*
X1665996Y59881D01*
X1666180Y59787D01*
X1666363Y59689D01*
X1666543Y59587D01*
X1666721Y59480D01*
X1666896Y59369D01*
X1667068Y59253D01*
X1667237Y59134D01*
X1667403Y59010D01*
X1667567Y58883D01*
X1667727Y58751D01*
X1667884Y58616D01*
X1668037Y58477D01*
X1668187Y58334D01*
X1668334Y58187D01*
X1668477Y58037D01*
X1668616Y57884D01*
X1668751Y57727D01*
X1668883Y57567D01*
X1669010Y57403D01*
X1669134Y57237D01*
X1669253Y57068D01*
X1669369Y56896D01*
X1669480Y56721D01*
X1669587Y56543D01*
X1669689Y56363D01*
X1669787Y56180D01*
X1669881Y55996D01*
X1669970Y55808D01*
X1670054Y55619D01*
X1670134Y55428D01*
X1670209Y55235D01*
X1670279Y55040D01*
X1670345Y54843D01*
X1670406Y54645D01*
X1670461Y54446D01*
X1670512Y54245D01*
X1670559Y54043D01*
X1670600Y53840D01*
X1670636Y53636D01*
X1670667Y53431D01*
X1670693Y53225D01*
X1670714Y53019D01*
X1670731Y52813D01*
X1669667Y52812D01*
X1669651Y52994D01*
X1669631Y53175D01*
X1669606Y53355D01*
X1669577Y53535D01*
X1669543Y53714D01*
X1669505Y53892D01*
X1669463Y54069D01*
X1669416Y54245D01*
X1669366Y54420D01*
X1669310Y54593D01*
X1669251Y54765D01*
X1669187Y54936D01*
X1669120Y55105D01*
X1669048Y55272D01*
X1668972Y55438D01*
X1668892Y55601D01*
X1668808Y55763D01*
X1668720Y55922D01*
X1668628Y56079D01*
X1668533Y56234D01*
X1668433Y56387D01*
X1668330Y56537D01*
X1668224Y56684D01*
X1668113Y56829D01*
X1668000Y56971D01*
X1667882Y57111D01*
X1667762Y57247D01*
X1667638Y57380D01*
X1667511Y57511D01*
X1667380Y57638D01*
X1667247Y57762D01*
X1667111Y57882D01*
X1666971Y58000D01*
X1666829Y58113D01*
X1666684Y58224D01*
X1666537Y58330D01*
X1666387Y58433D01*
X1666234Y58533D01*
X1666079Y58628D01*
X1665922Y58720D01*
X1665763Y58808D01*
X1665601Y58892D01*
X1665438Y58972D01*
X1665272Y59048D01*
X1665105Y59120D01*
X1664936Y59187D01*
X1664765Y59251D01*
X1664593Y59310D01*
X1664420Y59366D01*
X1664245Y59416D01*
X1664069Y59463D01*
X1663892Y59505D01*
X1663714Y59543D01*
X1663535Y59577D01*
X1663355Y59606D01*
X1663175Y59631D01*
X1662994Y59651D01*
X1662812Y59667D01*
X1662812Y58602D01*
X1662970Y58587D01*
X1663128Y58567D01*
X1663285Y58543D01*
X1663441Y58515D01*
X1663597Y58484D01*
X1663752Y58449D01*
X1663906Y58409D01*
X1664058Y58366D01*
X1664210Y58319D01*
X1664361Y58269D01*
X1664510Y58214D01*
X1664658Y58156D01*
X1664804Y58095D01*
X1664949Y58029D01*
X1665092Y57960D01*
X1665233Y57888D01*
X1665372Y57812D01*
X1665510Y57733D01*
X1665645Y57650D01*
X1665779Y57564D01*
X1665910Y57474D01*
X1666039Y57381D01*
X1666165Y57285D01*
X1666290Y57186D01*
X1666411Y57084D01*
X1666530Y56979D01*
X1666647Y56871D01*
X1666760Y56760D01*
X1666871Y56647D01*
X1666979Y56530D01*
X1667084Y56411D01*
X1667186Y56290D01*
X1667285Y56165D01*
X1667381Y56039D01*
X1667474Y55910D01*
X1667564Y55779D01*
X1667650Y55645D01*
X1667733Y55510D01*
X1667812Y55372D01*
X1667888Y55233D01*
X1667960Y55092D01*
X1668029Y54949D01*
X1668095Y54804D01*
X1668156Y54658D01*
X1668214Y54510D01*
X1668269Y54361D01*
X1668319Y54210D01*
X1668366Y54058D01*
X1668409Y53906D01*
X1668449Y53752D01*
X1668484Y53597D01*
X1668515Y53441D01*
X1668543Y53285D01*
X1668567Y53128D01*
X1668587Y52970D01*
X1668602Y52812D01*
X1667537Y52812D01*
X1667519Y52955D01*
X1667498Y53098D01*
X1667474Y53241D01*
X1667445Y53382D01*
X1667412Y53523D01*
X1667376Y53663D01*
X1667335Y53802D01*
X1667291Y53940D01*
X1667244Y54076D01*
X1667192Y54211D01*
X1667137Y54345D01*
X1667079Y54477D01*
X1667016Y54607D01*
X1666951Y54736D01*
X1666881Y54863D01*
X1666809Y54988D01*
X1666733Y55110D01*
X1666653Y55231D01*
X1666571Y55350D01*
X1666485Y55466D01*
X1666396Y55580D01*
X1666304Y55691D01*
X1666209Y55800D01*
X1666111Y55907D01*
X1666010Y56010D01*
X1665907Y56111D01*
X1665800Y56209D01*
X1665691Y56304D01*
X1665580Y56396D01*
X1665466Y56485D01*
X1665350Y56571D01*
X1665231Y56653D01*
X1665110Y56733D01*
X1664988Y56809D01*
X1664863Y56881D01*
X1664736Y56951D01*
X1664607Y57016D01*
X1664477Y57079D01*
X1664345Y57137D01*
X1664211Y57192D01*
X1664076Y57244D01*
X1663940Y57291D01*
X1663802Y57335D01*
X1663663Y57376D01*
X1663523Y57412D01*
X1663382Y57445D01*
X1663241Y57474D01*
X1663098Y57498D01*
X1662955Y57519D01*
X1662812Y57537D01*
X1662811Y56468D01*
X1662939Y56449D01*
X1663067Y56427D01*
X1663193Y56400D01*
X1663319Y56370D01*
X1663443Y56335D01*
X1663567Y56297D01*
X1663689Y56255D01*
X1663810Y56210D01*
X1663930Y56161D01*
X1664048Y56108D01*
X1664164Y56052D01*
X1664279Y55992D01*
X1664392Y55928D01*
X1664502Y55862D01*
X1664611Y55792D01*
X1664717Y55718D01*
X1664822Y55642D01*
X1664924Y55562D01*
X1665023Y55480D01*
X1665120Y55394D01*
X1665214Y55305D01*
X1665305Y55214D01*
X1665394Y55120D01*
X1665480Y55023D01*
X1665562Y54924D01*
X1665642Y54822D01*
X1665718Y54717D01*
X1665792Y54611D01*
X1665862Y54502D01*
X1665928Y54392D01*
X1665992Y54279D01*
X1666052Y54164D01*
X1666108Y54048D01*
X1666161Y53930D01*
X1666210Y53810D01*
X1666255Y53689D01*
X1666297Y53567D01*
X1666335Y53443D01*
X1666370Y53319D01*
X1666400Y53193D01*
X1666427Y53067D01*
X1666449Y52939D01*
X1666468Y52811D01*
X1665395Y52810D01*
X1665374Y52919D01*
X1665349Y53028D01*
X1665320Y53135D01*
X1665287Y53241D01*
X1665251Y53347D01*
X1665211Y53450D01*
X1665168Y53553D01*
X1665121Y53653D01*
X1665070Y53753D01*
X1665016Y53850D01*
X1664959Y53945D01*
X1664898Y54038D01*
X1664834Y54130D01*
X1664767Y54218D01*
X1664697Y54305D01*
X1664625Y54389D01*
X1664549Y54470D01*
X1664470Y54549D01*
X1664389Y54625D01*
X1664305Y54697D01*
X1664218Y54767D01*
X1664130Y54834D01*
X1664038Y54898D01*
X1663945Y54959D01*
X1663850Y55016D01*
X1663753Y55070D01*
X1663653Y55121D01*
X1663553Y55168D01*
X1663450Y55211D01*
X1663347Y55251D01*
X1663241Y55287D01*
X1663135Y55320D01*
X1663028Y55349D01*
X1662919Y55374D01*
X1662810Y55395D01*
X1662807Y54310D01*
X1662892Y54285D01*
X1662976Y54257D01*
X1663060Y54225D01*
X1663141Y54189D01*
X1663221Y54151D01*
X1663300Y54108D01*
X1663376Y54063D01*
X1663451Y54015D01*
X1663524Y53963D01*
X1663594Y53908D01*
X1663662Y53851D01*
X1663728Y53791D01*
X1663791Y53728D01*
X1663851Y53662D01*
X1663908Y53594D01*
X1663963Y53524D01*
X1664015Y53451D01*
X1664063Y53376D01*
X1664108Y53300D01*
X1664151Y53221D01*
X1664189Y53141D01*
X1664225Y53060D01*
X1664257Y52976D01*
X1664285Y52892D01*
X1664310Y52807D01*
X1663179Y52788D01*
X1663146Y52841D01*
X1663111Y52892D01*
X1663072Y52940D01*
X1663031Y52987D01*
X1662987Y53031D01*
X1662940Y53072D01*
X1662892Y53111D01*
X1662841Y53146D01*
X1662788Y53179D01*
X1651144Y51188D02*
X1661351Y51351D01*
X1661351Y51351D01*
X1661188Y41144D01*
X1661187Y41144D01*
X1660928Y41161D01*
X1660670Y41184D01*
X1660413Y41213D01*
X1660156Y41249D01*
X1659900Y41291D01*
X1659645Y41339D01*
X1659392Y41393D01*
X1659139Y41454D01*
X1658889Y41521D01*
X1658640Y41594D01*
X1658393Y41672D01*
X1658148Y41757D01*
X1657905Y41848D01*
X1657664Y41945D01*
X1657426Y42048D01*
X1657191Y42156D01*
X1656958Y42270D01*
X1656728Y42390D01*
X1656501Y42515D01*
X1656277Y42646D01*
X1656056Y42782D01*
X1655839Y42924D01*
X1655625Y43071D01*
X1655415Y43223D01*
X1655209Y43380D01*
X1655007Y43542D01*
X1654808Y43709D01*
X1654614Y43881D01*
X1654424Y44058D01*
X1654239Y44239D01*
X1654058Y44424D01*
X1653881Y44614D01*
X1653709Y44808D01*
X1653542Y45007D01*
X1653380Y45209D01*
X1653223Y45415D01*
X1653071Y45625D01*
X1652924Y45839D01*
X1652782Y46056D01*
X1652646Y46277D01*
X1652515Y46501D01*
X1652390Y46728D01*
X1652270Y46958D01*
X1652156Y47191D01*
X1652048Y47426D01*
X1651945Y47664D01*
X1651848Y47905D01*
X1651757Y48148D01*
X1651672Y48393D01*
X1651594Y48640D01*
X1651521Y48889D01*
X1651454Y49139D01*
X1651393Y49392D01*
X1651339Y49645D01*
X1651291Y49900D01*
X1651249Y50156D01*
X1651213Y50413D01*
X1651184Y50670D01*
X1651161Y50928D01*
X1651144Y51187D01*
X1652206Y51187D01*
X1652223Y50956D01*
X1652245Y50726D01*
X1652272Y50496D01*
X1652305Y50267D01*
X1652344Y50039D01*
X1652388Y49811D01*
X1652438Y49585D01*
X1652493Y49360D01*
X1652553Y49137D01*
X1652619Y48915D01*
X1652690Y48694D01*
X1652767Y48476D01*
X1652849Y48259D01*
X1652936Y48045D01*
X1653028Y47832D01*
X1653126Y47622D01*
X1653228Y47415D01*
X1653335Y47210D01*
X1653448Y47007D01*
X1653565Y46808D01*
X1653687Y46611D01*
X1653814Y46417D01*
X1653945Y46226D01*
X1654081Y46039D01*
X1654222Y45855D01*
X1654367Y45674D01*
X1654516Y45497D01*
X1654669Y45324D01*
X1654827Y45155D01*
X1654989Y44989D01*
X1655155Y44827D01*
X1655324Y44669D01*
X1655497Y44516D01*
X1655674Y44367D01*
X1655855Y44222D01*
X1656039Y44081D01*
X1656226Y43945D01*
X1656417Y43814D01*
X1656611Y43687D01*
X1656808Y43565D01*
X1657007Y43448D01*
X1657210Y43335D01*
X1657415Y43228D01*
X1657622Y43126D01*
X1657832Y43028D01*
X1658045Y42936D01*
X1658259Y42849D01*
X1658476Y42767D01*
X1658694Y42690D01*
X1658915Y42619D01*
X1659137Y42553D01*
X1659360Y42493D01*
X1659585Y42438D01*
X1659811Y42388D01*
X1660039Y42344D01*
X1660267Y42305D01*
X1660496Y42272D01*
X1660726Y42245D01*
X1660956Y42223D01*
X1661187Y42206D01*
X1661187Y43269D01*
X1660981Y43286D01*
X1660775Y43307D01*
X1660569Y43333D01*
X1660364Y43364D01*
X1660160Y43400D01*
X1659957Y43441D01*
X1659755Y43488D01*
X1659554Y43539D01*
X1659355Y43594D01*
X1659157Y43655D01*
X1658960Y43721D01*
X1658765Y43791D01*
X1658572Y43866D01*
X1658381Y43946D01*
X1658192Y44030D01*
X1658004Y44119D01*
X1657820Y44213D01*
X1657637Y44311D01*
X1657457Y44413D01*
X1657279Y44520D01*
X1657104Y44631D01*
X1656932Y44747D01*
X1656763Y44866D01*
X1656597Y44990D01*
X1656433Y45117D01*
X1656273Y45249D01*
X1656116Y45384D01*
X1655963Y45523D01*
X1655813Y45666D01*
X1655666Y45813D01*
X1655523Y45963D01*
X1655384Y46116D01*
X1655249Y46273D01*
X1655117Y46433D01*
X1654990Y46597D01*
X1654866Y46763D01*
X1654747Y46932D01*
X1654631Y47104D01*
X1654520Y47279D01*
X1654413Y47457D01*
X1654311Y47637D01*
X1654213Y47820D01*
X1654119Y48004D01*
X1654030Y48192D01*
X1653946Y48381D01*
X1653866Y48572D01*
X1653791Y48765D01*
X1653721Y48960D01*
X1653655Y49157D01*
X1653594Y49355D01*
X1653539Y49554D01*
X1653488Y49755D01*
X1653441Y49957D01*
X1653400Y50160D01*
X1653364Y50364D01*
X1653333Y50569D01*
X1653307Y50775D01*
X1653286Y50981D01*
X1653269Y51187D01*
X1654333Y51188D01*
X1654349Y51006D01*
X1654369Y50825D01*
X1654394Y50645D01*
X1654423Y50465D01*
X1654457Y50286D01*
X1654495Y50108D01*
X1654537Y49931D01*
X1654584Y49755D01*
X1654634Y49580D01*
X1654690Y49407D01*
X1654749Y49235D01*
X1654813Y49064D01*
X1654880Y48895D01*
X1654952Y48728D01*
X1655028Y48562D01*
X1655108Y48399D01*
X1655192Y48237D01*
X1655280Y48078D01*
X1655372Y47921D01*
X1655467Y47766D01*
X1655567Y47613D01*
X1655670Y47463D01*
X1655776Y47316D01*
X1655887Y47171D01*
X1656000Y47029D01*
X1656118Y46889D01*
X1656238Y46753D01*
X1656362Y46620D01*
X1656489Y46489D01*
X1656620Y46362D01*
X1656753Y46238D01*
X1656889Y46118D01*
X1657029Y46000D01*
X1657171Y45887D01*
X1657316Y45776D01*
X1657463Y45670D01*
X1657613Y45567D01*
X1657766Y45467D01*
X1657921Y45372D01*
X1658078Y45280D01*
X1658237Y45192D01*
X1658399Y45108D01*
X1658562Y45028D01*
X1658728Y44952D01*
X1658895Y44880D01*
X1659064Y44813D01*
X1659235Y44749D01*
X1659407Y44690D01*
X1659580Y44634D01*
X1659755Y44584D01*
X1659931Y44537D01*
X1660108Y44495D01*
X1660286Y44457D01*
X1660465Y44423D01*
X1660645Y44394D01*
X1660825Y44369D01*
X1661006Y44349D01*
X1661188Y44333D01*
X1661188Y45398D01*
X1661030Y45413D01*
X1660872Y45433D01*
X1660715Y45457D01*
X1660559Y45485D01*
X1660403Y45516D01*
X1660248Y45551D01*
X1660094Y45591D01*
X1659942Y45634D01*
X1659790Y45681D01*
X1659639Y45731D01*
X1659490Y45786D01*
X1659342Y45844D01*
X1659196Y45905D01*
X1659051Y45971D01*
X1658908Y46040D01*
X1658767Y46112D01*
X1658628Y46188D01*
X1658490Y46267D01*
X1658355Y46350D01*
X1658221Y46436D01*
X1658090Y46526D01*
X1657961Y46619D01*
X1657835Y46715D01*
X1657710Y46814D01*
X1657589Y46916D01*
X1657470Y47021D01*
X1657353Y47129D01*
X1657240Y47240D01*
X1657129Y47353D01*
X1657021Y47470D01*
X1656916Y47589D01*
X1656814Y47710D01*
X1656715Y47835D01*
X1656619Y47961D01*
X1656526Y48090D01*
X1656436Y48221D01*
X1656350Y48355D01*
X1656267Y48490D01*
X1656188Y48628D01*
X1656112Y48767D01*
X1656040Y48908D01*
X1655971Y49051D01*
X1655905Y49196D01*
X1655844Y49342D01*
X1655786Y49490D01*
X1655731Y49639D01*
X1655681Y49790D01*
X1655634Y49942D01*
X1655591Y50094D01*
X1655551Y50248D01*
X1655516Y50403D01*
X1655485Y50559D01*
X1655457Y50715D01*
X1655433Y50872D01*
X1655413Y51030D01*
X1655398Y51188D01*
X1656463Y51188D01*
X1656481Y51045D01*
X1656502Y50902D01*
X1656526Y50759D01*
X1656555Y50618D01*
X1656588Y50477D01*
X1656624Y50337D01*
X1656665Y50198D01*
X1656709Y50060D01*
X1656756Y49924D01*
X1656808Y49789D01*
X1656863Y49655D01*
X1656921Y49523D01*
X1656984Y49393D01*
X1657049Y49264D01*
X1657119Y49137D01*
X1657191Y49012D01*
X1657267Y48890D01*
X1657347Y48769D01*
X1657429Y48650D01*
X1657515Y48534D01*
X1657604Y48420D01*
X1657696Y48309D01*
X1657791Y48200D01*
X1657889Y48093D01*
X1657990Y47990D01*
X1658093Y47889D01*
X1658200Y47791D01*
X1658309Y47696D01*
X1658420Y47604D01*
X1658534Y47515D01*
X1658650Y47429D01*
X1658769Y47347D01*
X1658890Y47267D01*
X1659012Y47191D01*
X1659137Y47119D01*
X1659264Y47049D01*
X1659393Y46984D01*
X1659523Y46921D01*
X1659655Y46863D01*
X1659789Y46808D01*
X1659924Y46756D01*
X1660060Y46709D01*
X1660198Y46665D01*
X1660337Y46624D01*
X1660477Y46588D01*
X1660618Y46555D01*
X1660759Y46526D01*
X1660902Y46502D01*
X1661045Y46481D01*
X1661188Y46463D01*
X1661189Y47532D01*
X1661061Y47551D01*
X1660933Y47573D01*
X1660807Y47600D01*
X1660681Y47630D01*
X1660557Y47665D01*
X1660433Y47703D01*
X1660311Y47745D01*
X1660190Y47790D01*
X1660070Y47839D01*
X1659952Y47892D01*
X1659836Y47948D01*
X1659721Y48008D01*
X1659608Y48072D01*
X1659498Y48138D01*
X1659389Y48208D01*
X1659283Y48282D01*
X1659178Y48358D01*
X1659076Y48438D01*
X1658977Y48520D01*
X1658880Y48606D01*
X1658786Y48695D01*
X1658695Y48786D01*
X1658606Y48880D01*
X1658520Y48977D01*
X1658438Y49076D01*
X1658358Y49178D01*
X1658282Y49283D01*
X1658208Y49389D01*
X1658138Y49498D01*
X1658072Y49608D01*
X1658008Y49721D01*
X1657948Y49836D01*
X1657892Y49952D01*
X1657839Y50070D01*
X1657790Y50190D01*
X1657745Y50311D01*
X1657703Y50433D01*
X1657665Y50557D01*
X1657630Y50681D01*
X1657600Y50807D01*
X1657573Y50933D01*
X1657551Y51061D01*
X1657532Y51189D01*
X1658605Y51190D01*
X1658626Y51081D01*
X1658651Y50972D01*
X1658680Y50865D01*
X1658713Y50759D01*
X1658749Y50653D01*
X1658789Y50550D01*
X1658832Y50447D01*
X1658879Y50347D01*
X1658930Y50247D01*
X1658984Y50150D01*
X1659041Y50055D01*
X1659102Y49962D01*
X1659166Y49870D01*
X1659233Y49782D01*
X1659303Y49695D01*
X1659375Y49611D01*
X1659451Y49530D01*
X1659530Y49451D01*
X1659611Y49375D01*
X1659695Y49303D01*
X1659782Y49233D01*
X1659870Y49166D01*
X1659962Y49102D01*
X1660055Y49041D01*
X1660150Y48984D01*
X1660247Y48930D01*
X1660347Y48879D01*
X1660447Y48832D01*
X1660550Y48789D01*
X1660653Y48749D01*
X1660759Y48713D01*
X1660865Y48680D01*
X1660972Y48651D01*
X1661081Y48626D01*
X1661190Y48605D01*
X1661193Y49690D01*
X1661108Y49715D01*
X1661024Y49743D01*
X1660940Y49775D01*
X1660859Y49811D01*
X1660779Y49849D01*
X1660700Y49892D01*
X1660624Y49937D01*
X1660549Y49985D01*
X1660476Y50037D01*
X1660406Y50092D01*
X1660338Y50149D01*
X1660272Y50209D01*
X1660209Y50272D01*
X1660149Y50338D01*
X1660092Y50406D01*
X1660037Y50476D01*
X1659985Y50549D01*
X1659937Y50624D01*
X1659892Y50700D01*
X1659849Y50779D01*
X1659811Y50859D01*
X1659775Y50940D01*
X1659743Y51024D01*
X1659715Y51108D01*
X1659690Y51193D01*
X1660821Y51212D01*
X1660854Y51159D01*
X1660889Y51108D01*
X1660928Y51060D01*
X1660969Y51013D01*
X1661013Y50969D01*
X1661060Y50928D01*
X1661108Y50889D01*
X1661159Y50854D01*
X1661212Y50821D01*
D30*
X1649300Y52000D02*
X1649304Y52312D01*
X1649315Y52623D01*
X1649334Y52934D01*
X1649361Y53245D01*
X1649396Y53555D01*
X1649437Y53863D01*
X1649487Y54171D01*
X1649544Y54478D01*
X1649609Y54783D01*
X1649681Y55086D01*
X1649760Y55387D01*
X1649847Y55687D01*
X1649941Y55984D01*
X1650042Y56279D01*
X1650151Y56571D01*
X1650267Y56860D01*
X1650390Y57147D01*
X1650519Y57430D01*
X1650656Y57710D01*
X1650800Y57987D01*
X1650950Y58260D01*
X1651107Y58529D01*
X1651270Y58794D01*
X1651440Y59056D01*
X1651617Y59313D01*
X1651799Y59565D01*
X1651988Y59813D01*
X1652183Y60057D01*
X1652383Y60295D01*
X1652590Y60529D01*
X1652802Y60757D01*
X1653020Y60980D01*
X1653243Y61198D01*
X1653471Y61410D01*
X1653705Y61617D01*
X1653943Y61817D01*
X1654187Y62012D01*
X1654435Y62201D01*
X1654687Y62383D01*
X1654944Y62560D01*
X1655206Y62730D01*
X1655471Y62893D01*
X1655740Y63050D01*
X1656013Y63200D01*
X1656290Y63344D01*
X1656570Y63481D01*
X1656853Y63610D01*
X1657140Y63733D01*
X1657429Y63849D01*
X1657721Y63958D01*
X1658016Y64059D01*
X1658313Y64153D01*
X1658613Y64240D01*
X1658914Y64319D01*
X1659217Y64391D01*
X1659522Y64456D01*
X1659829Y64513D01*
X1660137Y64563D01*
X1660445Y64604D01*
X1660755Y64639D01*
X1661066Y64666D01*
X1661377Y64685D01*
X1661688Y64696D01*
X1662000Y64700D01*
X1662312Y64696D01*
X1662623Y64685D01*
X1662934Y64666D01*
X1663245Y64639D01*
X1663555Y64604D01*
X1663863Y64563D01*
X1664171Y64513D01*
X1664478Y64456D01*
X1664783Y64391D01*
X1665086Y64319D01*
X1665387Y64240D01*
X1665687Y64153D01*
X1665984Y64059D01*
X1666279Y63958D01*
X1666571Y63849D01*
X1666860Y63733D01*
X1667147Y63610D01*
X1667430Y63481D01*
X1667710Y63344D01*
X1667987Y63200D01*
X1668260Y63050D01*
X1668529Y62893D01*
X1668794Y62730D01*
X1669056Y62560D01*
X1669313Y62383D01*
X1669565Y62201D01*
X1669813Y62012D01*
X1670057Y61817D01*
X1670295Y61617D01*
X1670529Y61410D01*
X1670757Y61198D01*
X1670980Y60980D01*
X1671198Y60757D01*
X1671410Y60529D01*
X1671617Y60295D01*
X1671817Y60057D01*
X1672012Y59813D01*
X1672201Y59565D01*
X1672383Y59313D01*
X1672560Y59056D01*
X1672730Y58794D01*
X1672893Y58529D01*
X1673050Y58260D01*
X1673200Y57987D01*
X1673344Y57710D01*
X1673481Y57430D01*
X1673610Y57147D01*
X1673733Y56860D01*
X1673849Y56571D01*
X1673958Y56279D01*
X1674059Y55984D01*
X1674153Y55687D01*
X1674240Y55387D01*
X1674319Y55086D01*
X1674391Y54783D01*
X1674456Y54478D01*
X1674513Y54171D01*
X1674563Y53863D01*
X1674604Y53555D01*
X1674639Y53245D01*
X1674666Y52934D01*
X1674685Y52623D01*
X1674696Y52312D01*
X1674700Y52000D01*
X1674696Y51688D01*
X1674685Y51377D01*
X1674666Y51066D01*
X1674639Y50755D01*
X1674604Y50445D01*
X1674563Y50137D01*
X1674513Y49829D01*
X1674456Y49522D01*
X1674391Y49217D01*
X1674319Y48914D01*
X1674240Y48613D01*
X1674153Y48313D01*
X1674059Y48016D01*
X1673958Y47721D01*
X1673849Y47429D01*
X1673733Y47140D01*
X1673610Y46853D01*
X1673481Y46570D01*
X1673344Y46290D01*
X1673200Y46013D01*
X1673050Y45740D01*
X1672893Y45471D01*
X1672730Y45206D01*
X1672560Y44944D01*
X1672383Y44687D01*
X1672201Y44435D01*
X1672012Y44187D01*
X1671817Y43943D01*
X1671617Y43705D01*
X1671410Y43471D01*
X1671198Y43243D01*
X1670980Y43020D01*
X1670757Y42802D01*
X1670529Y42590D01*
X1670295Y42383D01*
X1670057Y42183D01*
X1669813Y41988D01*
X1669565Y41799D01*
X1669313Y41617D01*
X1669056Y41440D01*
X1668794Y41270D01*
X1668529Y41107D01*
X1668260Y40950D01*
X1667987Y40800D01*
X1667710Y40656D01*
X1667430Y40519D01*
X1667147Y40390D01*
X1666860Y40267D01*
X1666571Y40151D01*
X1666279Y40042D01*
X1665984Y39941D01*
X1665687Y39847D01*
X1665387Y39760D01*
X1665086Y39681D01*
X1664783Y39609D01*
X1664478Y39544D01*
X1664171Y39487D01*
X1663863Y39437D01*
X1663555Y39396D01*
X1663245Y39361D01*
X1662934Y39334D01*
X1662623Y39315D01*
X1662312Y39304D01*
X1662000Y39300D01*
X1661688Y39304D01*
X1661377Y39315D01*
X1661066Y39334D01*
X1660755Y39361D01*
X1660445Y39396D01*
X1660137Y39437D01*
X1659829Y39487D01*
X1659522Y39544D01*
X1659217Y39609D01*
X1658914Y39681D01*
X1658613Y39760D01*
X1658313Y39847D01*
X1658016Y39941D01*
X1657721Y40042D01*
X1657429Y40151D01*
X1657140Y40267D01*
X1656853Y40390D01*
X1656570Y40519D01*
X1656290Y40656D01*
X1656013Y40800D01*
X1655740Y40950D01*
X1655471Y41107D01*
X1655206Y41270D01*
X1654944Y41440D01*
X1654687Y41617D01*
X1654435Y41799D01*
X1654187Y41988D01*
X1653943Y42183D01*
X1653705Y42383D01*
X1653471Y42590D01*
X1653243Y42802D01*
X1653020Y43020D01*
X1652802Y43243D01*
X1652590Y43471D01*
X1652383Y43705D01*
X1652183Y43943D01*
X1651988Y44187D01*
X1651799Y44435D01*
X1651617Y44687D01*
X1651440Y44944D01*
X1651270Y45206D01*
X1651107Y45471D01*
X1650950Y45740D01*
X1650800Y46013D01*
X1650656Y46290D01*
X1650519Y46570D01*
X1650390Y46853D01*
X1650267Y47140D01*
X1650151Y47429D01*
X1650042Y47721D01*
X1649941Y48016D01*
X1649847Y48313D01*
X1649760Y48613D01*
X1649681Y48914D01*
X1649609Y49217D01*
X1649544Y49522D01*
X1649487Y49829D01*
X1649437Y50137D01*
X1649396Y50445D01*
X1649361Y50755D01*
X1649334Y51066D01*
X1649315Y51377D01*
X1649304Y51688D01*
X1649300Y52000D01*
X23760Y44000D02*
X13600Y44000D01*
X39000Y59240D02*
X39000Y69400D01*
X39000Y28760D02*
X39000Y18600D01*
X54240Y44000D02*
X64400Y44000D01*
D31*
X49856Y44812D02*
X39649Y44649D01*
X39649Y44649D01*
X39812Y54856D01*
X39813Y54856D01*
X40072Y54839D01*
X40330Y54816D01*
X40587Y54787D01*
X40844Y54751D01*
X41100Y54709D01*
X41355Y54661D01*
X41608Y54607D01*
X41861Y54546D01*
X42111Y54479D01*
X42360Y54406D01*
X42607Y54328D01*
X42852Y54243D01*
X43095Y54152D01*
X43336Y54055D01*
X43574Y53952D01*
X43809Y53844D01*
X44042Y53730D01*
X44272Y53610D01*
X44499Y53485D01*
X44723Y53354D01*
X44944Y53218D01*
X45161Y53076D01*
X45375Y52929D01*
X45585Y52777D01*
X45791Y52620D01*
X45993Y52458D01*
X46192Y52291D01*
X46386Y52119D01*
X46576Y51942D01*
X46761Y51761D01*
X46942Y51576D01*
X47119Y51386D01*
X47291Y51192D01*
X47458Y50993D01*
X47620Y50791D01*
X47777Y50585D01*
X47929Y50375D01*
X48076Y50161D01*
X48218Y49944D01*
X48354Y49723D01*
X48485Y49499D01*
X48610Y49272D01*
X48730Y49042D01*
X48844Y48809D01*
X48952Y48574D01*
X49055Y48336D01*
X49152Y48095D01*
X49243Y47852D01*
X49328Y47607D01*
X49406Y47360D01*
X49479Y47111D01*
X49546Y46861D01*
X49607Y46608D01*
X49661Y46355D01*
X49709Y46100D01*
X49751Y45844D01*
X49787Y45587D01*
X49816Y45330D01*
X49839Y45072D01*
X49856Y44813D01*
X48794Y44813D01*
X48777Y45044D01*
X48755Y45274D01*
X48728Y45504D01*
X48695Y45733D01*
X48656Y45961D01*
X48612Y46189D01*
X48562Y46415D01*
X48507Y46640D01*
X48447Y46863D01*
X48381Y47085D01*
X48310Y47306D01*
X48233Y47524D01*
X48151Y47741D01*
X48064Y47955D01*
X47972Y48168D01*
X47874Y48378D01*
X47772Y48585D01*
X47665Y48790D01*
X47552Y48993D01*
X47435Y49192D01*
X47313Y49389D01*
X47186Y49583D01*
X47055Y49774D01*
X46919Y49961D01*
X46778Y50145D01*
X46633Y50326D01*
X46484Y50503D01*
X46331Y50676D01*
X46173Y50845D01*
X46011Y51011D01*
X45845Y51173D01*
X45676Y51331D01*
X45503Y51484D01*
X45326Y51633D01*
X45145Y51778D01*
X44961Y51919D01*
X44774Y52055D01*
X44583Y52186D01*
X44389Y52313D01*
X44192Y52435D01*
X43993Y52552D01*
X43790Y52665D01*
X43585Y52772D01*
X43378Y52874D01*
X43168Y52972D01*
X42955Y53064D01*
X42741Y53151D01*
X42524Y53233D01*
X42306Y53310D01*
X42085Y53381D01*
X41863Y53447D01*
X41640Y53507D01*
X41415Y53562D01*
X41189Y53612D01*
X40961Y53656D01*
X40733Y53695D01*
X40504Y53728D01*
X40274Y53755D01*
X40044Y53777D01*
X39813Y53794D01*
X39813Y52731D01*
X40019Y52714D01*
X40225Y52693D01*
X40431Y52667D01*
X40636Y52636D01*
X40840Y52600D01*
X41043Y52559D01*
X41245Y52512D01*
X41446Y52461D01*
X41645Y52406D01*
X41843Y52345D01*
X42040Y52279D01*
X42235Y52209D01*
X42428Y52134D01*
X42619Y52054D01*
X42808Y51970D01*
X42996Y51881D01*
X43180Y51787D01*
X43363Y51689D01*
X43543Y51587D01*
X43721Y51480D01*
X43896Y51369D01*
X44068Y51253D01*
X44237Y51134D01*
X44403Y51010D01*
X44567Y50883D01*
X44727Y50751D01*
X44884Y50616D01*
X45037Y50477D01*
X45187Y50334D01*
X45334Y50187D01*
X45477Y50037D01*
X45616Y49884D01*
X45751Y49727D01*
X45883Y49567D01*
X46010Y49403D01*
X46134Y49237D01*
X46253Y49068D01*
X46369Y48896D01*
X46480Y48721D01*
X46587Y48543D01*
X46689Y48363D01*
X46787Y48180D01*
X46881Y47996D01*
X46970Y47808D01*
X47054Y47619D01*
X47134Y47428D01*
X47209Y47235D01*
X47279Y47040D01*
X47345Y46843D01*
X47406Y46645D01*
X47461Y46446D01*
X47512Y46245D01*
X47559Y46043D01*
X47600Y45840D01*
X47636Y45636D01*
X47667Y45431D01*
X47693Y45225D01*
X47714Y45019D01*
X47731Y44813D01*
X46667Y44812D01*
X46651Y44994D01*
X46631Y45175D01*
X46606Y45355D01*
X46577Y45535D01*
X46543Y45714D01*
X46505Y45892D01*
X46463Y46069D01*
X46416Y46245D01*
X46366Y46420D01*
X46310Y46593D01*
X46251Y46765D01*
X46187Y46936D01*
X46120Y47105D01*
X46048Y47272D01*
X45972Y47438D01*
X45892Y47601D01*
X45808Y47763D01*
X45720Y47922D01*
X45628Y48079D01*
X45533Y48234D01*
X45433Y48387D01*
X45330Y48537D01*
X45224Y48684D01*
X45113Y48829D01*
X45000Y48971D01*
X44882Y49111D01*
X44762Y49247D01*
X44638Y49380D01*
X44511Y49511D01*
X44380Y49638D01*
X44247Y49762D01*
X44111Y49882D01*
X43971Y50000D01*
X43829Y50113D01*
X43684Y50224D01*
X43537Y50330D01*
X43387Y50433D01*
X43234Y50533D01*
X43079Y50628D01*
X42922Y50720D01*
X42763Y50808D01*
X42601Y50892D01*
X42438Y50972D01*
X42272Y51048D01*
X42105Y51120D01*
X41936Y51187D01*
X41765Y51251D01*
X41593Y51310D01*
X41420Y51366D01*
X41245Y51416D01*
X41069Y51463D01*
X40892Y51505D01*
X40714Y51543D01*
X40535Y51577D01*
X40355Y51606D01*
X40175Y51631D01*
X39994Y51651D01*
X39812Y51667D01*
X39812Y50602D01*
X39970Y50587D01*
X40128Y50567D01*
X40285Y50543D01*
X40441Y50515D01*
X40597Y50484D01*
X40752Y50449D01*
X40906Y50409D01*
X41058Y50366D01*
X41210Y50319D01*
X41361Y50269D01*
X41510Y50214D01*
X41658Y50156D01*
X41804Y50095D01*
X41949Y50029D01*
X42092Y49960D01*
X42233Y49888D01*
X42372Y49812D01*
X42510Y49733D01*
X42645Y49650D01*
X42779Y49564D01*
X42910Y49474D01*
X43039Y49381D01*
X43165Y49285D01*
X43290Y49186D01*
X43411Y49084D01*
X43530Y48979D01*
X43647Y48871D01*
X43760Y48760D01*
X43871Y48647D01*
X43979Y48530D01*
X44084Y48411D01*
X44186Y48290D01*
X44285Y48165D01*
X44381Y48039D01*
X44474Y47910D01*
X44564Y47779D01*
X44650Y47645D01*
X44733Y47510D01*
X44812Y47372D01*
X44888Y47233D01*
X44960Y47092D01*
X45029Y46949D01*
X45095Y46804D01*
X45156Y46658D01*
X45214Y46510D01*
X45269Y46361D01*
X45319Y46210D01*
X45366Y46058D01*
X45409Y45906D01*
X45449Y45752D01*
X45484Y45597D01*
X45515Y45441D01*
X45543Y45285D01*
X45567Y45128D01*
X45587Y44970D01*
X45602Y44812D01*
X44537Y44812D01*
X44519Y44955D01*
X44498Y45098D01*
X44474Y45241D01*
X44445Y45382D01*
X44412Y45523D01*
X44376Y45663D01*
X44335Y45802D01*
X44291Y45940D01*
X44244Y46076D01*
X44192Y46211D01*
X44137Y46345D01*
X44079Y46477D01*
X44016Y46607D01*
X43951Y46736D01*
X43881Y46863D01*
X43809Y46988D01*
X43733Y47110D01*
X43653Y47231D01*
X43571Y47350D01*
X43485Y47466D01*
X43396Y47580D01*
X43304Y47691D01*
X43209Y47800D01*
X43111Y47907D01*
X43010Y48010D01*
X42907Y48111D01*
X42800Y48209D01*
X42691Y48304D01*
X42580Y48396D01*
X42466Y48485D01*
X42350Y48571D01*
X42231Y48653D01*
X42110Y48733D01*
X41988Y48809D01*
X41863Y48881D01*
X41736Y48951D01*
X41607Y49016D01*
X41477Y49079D01*
X41345Y49137D01*
X41211Y49192D01*
X41076Y49244D01*
X40940Y49291D01*
X40802Y49335D01*
X40663Y49376D01*
X40523Y49412D01*
X40382Y49445D01*
X40241Y49474D01*
X40098Y49498D01*
X39955Y49519D01*
X39812Y49537D01*
X39811Y48468D01*
X39939Y48449D01*
X40067Y48427D01*
X40193Y48400D01*
X40319Y48370D01*
X40443Y48335D01*
X40567Y48297D01*
X40689Y48255D01*
X40810Y48210D01*
X40930Y48161D01*
X41048Y48108D01*
X41164Y48052D01*
X41279Y47992D01*
X41392Y47928D01*
X41502Y47862D01*
X41611Y47792D01*
X41717Y47718D01*
X41822Y47642D01*
X41924Y47562D01*
X42023Y47480D01*
X42120Y47394D01*
X42214Y47305D01*
X42305Y47214D01*
X42394Y47120D01*
X42480Y47023D01*
X42562Y46924D01*
X42642Y46822D01*
X42718Y46717D01*
X42792Y46611D01*
X42862Y46502D01*
X42928Y46392D01*
X42992Y46279D01*
X43052Y46164D01*
X43108Y46048D01*
X43161Y45930D01*
X43210Y45810D01*
X43255Y45689D01*
X43297Y45567D01*
X43335Y45443D01*
X43370Y45319D01*
X43400Y45193D01*
X43427Y45067D01*
X43449Y44939D01*
X43468Y44811D01*
X42395Y44810D01*
X42374Y44919D01*
X42349Y45028D01*
X42320Y45135D01*
X42287Y45241D01*
X42251Y45347D01*
X42211Y45450D01*
X42168Y45553D01*
X42121Y45653D01*
X42070Y45753D01*
X42016Y45850D01*
X41959Y45945D01*
X41898Y46038D01*
X41834Y46130D01*
X41767Y46218D01*
X41697Y46305D01*
X41625Y46389D01*
X41549Y46470D01*
X41470Y46549D01*
X41389Y46625D01*
X41305Y46697D01*
X41218Y46767D01*
X41130Y46834D01*
X41038Y46898D01*
X40945Y46959D01*
X40850Y47016D01*
X40753Y47070D01*
X40653Y47121D01*
X40553Y47168D01*
X40450Y47211D01*
X40347Y47251D01*
X40241Y47287D01*
X40135Y47320D01*
X40028Y47349D01*
X39919Y47374D01*
X39810Y47395D01*
X39807Y46310D01*
X39892Y46285D01*
X39976Y46257D01*
X40060Y46225D01*
X40141Y46189D01*
X40221Y46151D01*
X40300Y46108D01*
X40376Y46063D01*
X40451Y46015D01*
X40524Y45963D01*
X40594Y45908D01*
X40662Y45851D01*
X40728Y45791D01*
X40791Y45728D01*
X40851Y45662D01*
X40908Y45594D01*
X40963Y45524D01*
X41015Y45451D01*
X41063Y45376D01*
X41108Y45300D01*
X41151Y45221D01*
X41189Y45141D01*
X41225Y45060D01*
X41257Y44976D01*
X41285Y44892D01*
X41310Y44807D01*
X40179Y44788D01*
X40146Y44841D01*
X40111Y44892D01*
X40072Y44940D01*
X40031Y44987D01*
X39987Y45031D01*
X39940Y45072D01*
X39892Y45111D01*
X39841Y45146D01*
X39788Y45179D01*
X28144Y43188D02*
X38351Y43351D01*
X38351Y43351D01*
X38188Y33144D01*
X38187Y33144D01*
X37928Y33161D01*
X37670Y33184D01*
X37413Y33213D01*
X37156Y33249D01*
X36900Y33291D01*
X36645Y33339D01*
X36392Y33393D01*
X36139Y33454D01*
X35889Y33521D01*
X35640Y33594D01*
X35393Y33672D01*
X35148Y33757D01*
X34905Y33848D01*
X34664Y33945D01*
X34426Y34048D01*
X34191Y34156D01*
X33958Y34270D01*
X33728Y34390D01*
X33501Y34515D01*
X33277Y34646D01*
X33056Y34782D01*
X32839Y34924D01*
X32625Y35071D01*
X32415Y35223D01*
X32209Y35380D01*
X32007Y35542D01*
X31808Y35709D01*
X31614Y35881D01*
X31424Y36058D01*
X31239Y36239D01*
X31058Y36424D01*
X30881Y36614D01*
X30709Y36808D01*
X30542Y37007D01*
X30380Y37209D01*
X30223Y37415D01*
X30071Y37625D01*
X29924Y37839D01*
X29782Y38056D01*
X29646Y38277D01*
X29515Y38501D01*
X29390Y38728D01*
X29270Y38958D01*
X29156Y39191D01*
X29048Y39426D01*
X28945Y39664D01*
X28848Y39905D01*
X28757Y40148D01*
X28672Y40393D01*
X28594Y40640D01*
X28521Y40889D01*
X28454Y41139D01*
X28393Y41392D01*
X28339Y41645D01*
X28291Y41900D01*
X28249Y42156D01*
X28213Y42413D01*
X28184Y42670D01*
X28161Y42928D01*
X28144Y43187D01*
X29206Y43187D01*
X29223Y42956D01*
X29245Y42726D01*
X29272Y42496D01*
X29305Y42267D01*
X29344Y42039D01*
X29388Y41811D01*
X29438Y41585D01*
X29493Y41360D01*
X29553Y41137D01*
X29619Y40915D01*
X29690Y40694D01*
X29767Y40476D01*
X29849Y40259D01*
X29936Y40045D01*
X30028Y39832D01*
X30126Y39622D01*
X30228Y39415D01*
X30335Y39210D01*
X30448Y39007D01*
X30565Y38808D01*
X30687Y38611D01*
X30814Y38417D01*
X30945Y38226D01*
X31081Y38039D01*
X31222Y37855D01*
X31367Y37674D01*
X31516Y37497D01*
X31669Y37324D01*
X31827Y37155D01*
X31989Y36989D01*
X32155Y36827D01*
X32324Y36669D01*
X32497Y36516D01*
X32674Y36367D01*
X32855Y36222D01*
X33039Y36081D01*
X33226Y35945D01*
X33417Y35814D01*
X33611Y35687D01*
X33808Y35565D01*
X34007Y35448D01*
X34210Y35335D01*
X34415Y35228D01*
X34622Y35126D01*
X34832Y35028D01*
X35045Y34936D01*
X35259Y34849D01*
X35476Y34767D01*
X35694Y34690D01*
X35915Y34619D01*
X36137Y34553D01*
X36360Y34493D01*
X36585Y34438D01*
X36811Y34388D01*
X37039Y34344D01*
X37267Y34305D01*
X37496Y34272D01*
X37726Y34245D01*
X37956Y34223D01*
X38187Y34206D01*
X38187Y35269D01*
X37981Y35286D01*
X37775Y35307D01*
X37569Y35333D01*
X37364Y35364D01*
X37160Y35400D01*
X36957Y35441D01*
X36755Y35488D01*
X36554Y35539D01*
X36355Y35594D01*
X36157Y35655D01*
X35960Y35721D01*
X35765Y35791D01*
X35572Y35866D01*
X35381Y35946D01*
X35192Y36030D01*
X35004Y36119D01*
X34820Y36213D01*
X34637Y36311D01*
X34457Y36413D01*
X34279Y36520D01*
X34104Y36631D01*
X33932Y36747D01*
X33763Y36866D01*
X33597Y36990D01*
X33433Y37117D01*
X33273Y37249D01*
X33116Y37384D01*
X32963Y37523D01*
X32813Y37666D01*
X32666Y37813D01*
X32523Y37963D01*
X32384Y38116D01*
X32249Y38273D01*
X32117Y38433D01*
X31990Y38597D01*
X31866Y38763D01*
X31747Y38932D01*
X31631Y39104D01*
X31520Y39279D01*
X31413Y39457D01*
X31311Y39637D01*
X31213Y39820D01*
X31119Y40004D01*
X31030Y40192D01*
X30946Y40381D01*
X30866Y40572D01*
X30791Y40765D01*
X30721Y40960D01*
X30655Y41157D01*
X30594Y41355D01*
X30539Y41554D01*
X30488Y41755D01*
X30441Y41957D01*
X30400Y42160D01*
X30364Y42364D01*
X30333Y42569D01*
X30307Y42775D01*
X30286Y42981D01*
X30269Y43187D01*
X31333Y43188D01*
X31349Y43006D01*
X31369Y42825D01*
X31394Y42645D01*
X31423Y42465D01*
X31457Y42286D01*
X31495Y42108D01*
X31537Y41931D01*
X31584Y41755D01*
X31634Y41580D01*
X31690Y41407D01*
X31749Y41235D01*
X31813Y41064D01*
X31880Y40895D01*
X31952Y40728D01*
X32028Y40562D01*
X32108Y40399D01*
X32192Y40237D01*
X32280Y40078D01*
X32372Y39921D01*
X32467Y39766D01*
X32567Y39613D01*
X32670Y39463D01*
X32776Y39316D01*
X32887Y39171D01*
X33000Y39029D01*
X33118Y38889D01*
X33238Y38753D01*
X33362Y38620D01*
X33489Y38489D01*
X33620Y38362D01*
X33753Y38238D01*
X33889Y38118D01*
X34029Y38000D01*
X34171Y37887D01*
X34316Y37776D01*
X34463Y37670D01*
X34613Y37567D01*
X34766Y37467D01*
X34921Y37372D01*
X35078Y37280D01*
X35237Y37192D01*
X35399Y37108D01*
X35562Y37028D01*
X35728Y36952D01*
X35895Y36880D01*
X36064Y36813D01*
X36235Y36749D01*
X36407Y36690D01*
X36580Y36634D01*
X36755Y36584D01*
X36931Y36537D01*
X37108Y36495D01*
X37286Y36457D01*
X37465Y36423D01*
X37645Y36394D01*
X37825Y36369D01*
X38006Y36349D01*
X38188Y36333D01*
X38188Y37398D01*
X38030Y37413D01*
X37872Y37433D01*
X37715Y37457D01*
X37559Y37485D01*
X37403Y37516D01*
X37248Y37551D01*
X37094Y37591D01*
X36942Y37634D01*
X36790Y37681D01*
X36639Y37731D01*
X36490Y37786D01*
X36342Y37844D01*
X36196Y37905D01*
X36051Y37971D01*
X35908Y38040D01*
X35767Y38112D01*
X35628Y38188D01*
X35490Y38267D01*
X35355Y38350D01*
X35221Y38436D01*
X35090Y38526D01*
X34961Y38619D01*
X34835Y38715D01*
X34710Y38814D01*
X34589Y38916D01*
X34470Y39021D01*
X34353Y39129D01*
X34240Y39240D01*
X34129Y39353D01*
X34021Y39470D01*
X33916Y39589D01*
X33814Y39710D01*
X33715Y39835D01*
X33619Y39961D01*
X33526Y40090D01*
X33436Y40221D01*
X33350Y40355D01*
X33267Y40490D01*
X33188Y40628D01*
X33112Y40767D01*
X33040Y40908D01*
X32971Y41051D01*
X32905Y41196D01*
X32844Y41342D01*
X32786Y41490D01*
X32731Y41639D01*
X32681Y41790D01*
X32634Y41942D01*
X32591Y42094D01*
X32551Y42248D01*
X32516Y42403D01*
X32485Y42559D01*
X32457Y42715D01*
X32433Y42872D01*
X32413Y43030D01*
X32398Y43188D01*
X33463Y43188D01*
X33481Y43045D01*
X33502Y42902D01*
X33526Y42759D01*
X33555Y42618D01*
X33588Y42477D01*
X33624Y42337D01*
X33665Y42198D01*
X33709Y42060D01*
X33756Y41924D01*
X33808Y41789D01*
X33863Y41655D01*
X33921Y41523D01*
X33984Y41393D01*
X34049Y41264D01*
X34119Y41137D01*
X34191Y41012D01*
X34267Y40890D01*
X34347Y40769D01*
X34429Y40650D01*
X34515Y40534D01*
X34604Y40420D01*
X34696Y40309D01*
X34791Y40200D01*
X34889Y40093D01*
X34990Y39990D01*
X35093Y39889D01*
X35200Y39791D01*
X35309Y39696D01*
X35420Y39604D01*
X35534Y39515D01*
X35650Y39429D01*
X35769Y39347D01*
X35890Y39267D01*
X36012Y39191D01*
X36137Y39119D01*
X36264Y39049D01*
X36393Y38984D01*
X36523Y38921D01*
X36655Y38863D01*
X36789Y38808D01*
X36924Y38756D01*
X37060Y38709D01*
X37198Y38665D01*
X37337Y38624D01*
X37477Y38588D01*
X37618Y38555D01*
X37759Y38526D01*
X37902Y38502D01*
X38045Y38481D01*
X38188Y38463D01*
X38189Y39532D01*
X38061Y39551D01*
X37933Y39573D01*
X37807Y39600D01*
X37681Y39630D01*
X37557Y39665D01*
X37433Y39703D01*
X37311Y39745D01*
X37190Y39790D01*
X37070Y39839D01*
X36952Y39892D01*
X36836Y39948D01*
X36721Y40008D01*
X36608Y40072D01*
X36498Y40138D01*
X36389Y40208D01*
X36283Y40282D01*
X36178Y40358D01*
X36076Y40438D01*
X35977Y40520D01*
X35880Y40606D01*
X35786Y40695D01*
X35695Y40786D01*
X35606Y40880D01*
X35520Y40977D01*
X35438Y41076D01*
X35358Y41178D01*
X35282Y41283D01*
X35208Y41389D01*
X35138Y41498D01*
X35072Y41608D01*
X35008Y41721D01*
X34948Y41836D01*
X34892Y41952D01*
X34839Y42070D01*
X34790Y42190D01*
X34745Y42311D01*
X34703Y42433D01*
X34665Y42557D01*
X34630Y42681D01*
X34600Y42807D01*
X34573Y42933D01*
X34551Y43061D01*
X34532Y43189D01*
X35605Y43190D01*
X35626Y43081D01*
X35651Y42972D01*
X35680Y42865D01*
X35713Y42759D01*
X35749Y42653D01*
X35789Y42550D01*
X35832Y42447D01*
X35879Y42347D01*
X35930Y42247D01*
X35984Y42150D01*
X36041Y42055D01*
X36102Y41962D01*
X36166Y41870D01*
X36233Y41782D01*
X36303Y41695D01*
X36375Y41611D01*
X36451Y41530D01*
X36530Y41451D01*
X36611Y41375D01*
X36695Y41303D01*
X36782Y41233D01*
X36870Y41166D01*
X36962Y41102D01*
X37055Y41041D01*
X37150Y40984D01*
X37247Y40930D01*
X37347Y40879D01*
X37447Y40832D01*
X37550Y40789D01*
X37653Y40749D01*
X37759Y40713D01*
X37865Y40680D01*
X37972Y40651D01*
X38081Y40626D01*
X38190Y40605D01*
X38193Y41690D01*
X38108Y41715D01*
X38024Y41743D01*
X37940Y41775D01*
X37859Y41811D01*
X37779Y41849D01*
X37700Y41892D01*
X37624Y41937D01*
X37549Y41985D01*
X37476Y42037D01*
X37406Y42092D01*
X37338Y42149D01*
X37272Y42209D01*
X37209Y42272D01*
X37149Y42338D01*
X37092Y42406D01*
X37037Y42476D01*
X36985Y42549D01*
X36937Y42624D01*
X36892Y42700D01*
X36849Y42779D01*
X36811Y42859D01*
X36775Y42940D01*
X36743Y43024D01*
X36715Y43108D01*
X36690Y43193D01*
X37821Y43212D01*
X37854Y43159D01*
X37889Y43108D01*
X37928Y43060D01*
X37969Y43013D01*
X38013Y42969D01*
X38060Y42928D01*
X38108Y42889D01*
X38159Y42854D01*
X38212Y42821D01*
D30*
X26300Y44000D02*
X26304Y44312D01*
X26315Y44623D01*
X26334Y44934D01*
X26361Y45245D01*
X26396Y45555D01*
X26437Y45863D01*
X26487Y46171D01*
X26544Y46478D01*
X26609Y46783D01*
X26681Y47086D01*
X26760Y47387D01*
X26847Y47687D01*
X26941Y47984D01*
X27042Y48279D01*
X27151Y48571D01*
X27267Y48860D01*
X27390Y49147D01*
X27519Y49430D01*
X27656Y49710D01*
X27800Y49987D01*
X27950Y50260D01*
X28107Y50529D01*
X28270Y50794D01*
X28440Y51056D01*
X28617Y51313D01*
X28799Y51565D01*
X28988Y51813D01*
X29183Y52057D01*
X29383Y52295D01*
X29590Y52529D01*
X29802Y52757D01*
X30020Y52980D01*
X30243Y53198D01*
X30471Y53410D01*
X30705Y53617D01*
X30943Y53817D01*
X31187Y54012D01*
X31435Y54201D01*
X31687Y54383D01*
X31944Y54560D01*
X32206Y54730D01*
X32471Y54893D01*
X32740Y55050D01*
X33013Y55200D01*
X33290Y55344D01*
X33570Y55481D01*
X33853Y55610D01*
X34140Y55733D01*
X34429Y55849D01*
X34721Y55958D01*
X35016Y56059D01*
X35313Y56153D01*
X35613Y56240D01*
X35914Y56319D01*
X36217Y56391D01*
X36522Y56456D01*
X36829Y56513D01*
X37137Y56563D01*
X37445Y56604D01*
X37755Y56639D01*
X38066Y56666D01*
X38377Y56685D01*
X38688Y56696D01*
X39000Y56700D01*
X39312Y56696D01*
X39623Y56685D01*
X39934Y56666D01*
X40245Y56639D01*
X40555Y56604D01*
X40863Y56563D01*
X41171Y56513D01*
X41478Y56456D01*
X41783Y56391D01*
X42086Y56319D01*
X42387Y56240D01*
X42687Y56153D01*
X42984Y56059D01*
X43279Y55958D01*
X43571Y55849D01*
X43860Y55733D01*
X44147Y55610D01*
X44430Y55481D01*
X44710Y55344D01*
X44987Y55200D01*
X45260Y55050D01*
X45529Y54893D01*
X45794Y54730D01*
X46056Y54560D01*
X46313Y54383D01*
X46565Y54201D01*
X46813Y54012D01*
X47057Y53817D01*
X47295Y53617D01*
X47529Y53410D01*
X47757Y53198D01*
X47980Y52980D01*
X48198Y52757D01*
X48410Y52529D01*
X48617Y52295D01*
X48817Y52057D01*
X49012Y51813D01*
X49201Y51565D01*
X49383Y51313D01*
X49560Y51056D01*
X49730Y50794D01*
X49893Y50529D01*
X50050Y50260D01*
X50200Y49987D01*
X50344Y49710D01*
X50481Y49430D01*
X50610Y49147D01*
X50733Y48860D01*
X50849Y48571D01*
X50958Y48279D01*
X51059Y47984D01*
X51153Y47687D01*
X51240Y47387D01*
X51319Y47086D01*
X51391Y46783D01*
X51456Y46478D01*
X51513Y46171D01*
X51563Y45863D01*
X51604Y45555D01*
X51639Y45245D01*
X51666Y44934D01*
X51685Y44623D01*
X51696Y44312D01*
X51700Y44000D01*
X51696Y43688D01*
X51685Y43377D01*
X51666Y43066D01*
X51639Y42755D01*
X51604Y42445D01*
X51563Y42137D01*
X51513Y41829D01*
X51456Y41522D01*
X51391Y41217D01*
X51319Y40914D01*
X51240Y40613D01*
X51153Y40313D01*
X51059Y40016D01*
X50958Y39721D01*
X50849Y39429D01*
X50733Y39140D01*
X50610Y38853D01*
X50481Y38570D01*
X50344Y38290D01*
X50200Y38013D01*
X50050Y37740D01*
X49893Y37471D01*
X49730Y37206D01*
X49560Y36944D01*
X49383Y36687D01*
X49201Y36435D01*
X49012Y36187D01*
X48817Y35943D01*
X48617Y35705D01*
X48410Y35471D01*
X48198Y35243D01*
X47980Y35020D01*
X47757Y34802D01*
X47529Y34590D01*
X47295Y34383D01*
X47057Y34183D01*
X46813Y33988D01*
X46565Y33799D01*
X46313Y33617D01*
X46056Y33440D01*
X45794Y33270D01*
X45529Y33107D01*
X45260Y32950D01*
X44987Y32800D01*
X44710Y32656D01*
X44430Y32519D01*
X44147Y32390D01*
X43860Y32267D01*
X43571Y32151D01*
X43279Y32042D01*
X42984Y31941D01*
X42687Y31847D01*
X42387Y31760D01*
X42086Y31681D01*
X41783Y31609D01*
X41478Y31544D01*
X41171Y31487D01*
X40863Y31437D01*
X40555Y31396D01*
X40245Y31361D01*
X39934Y31334D01*
X39623Y31315D01*
X39312Y31304D01*
X39000Y31300D01*
X38688Y31304D01*
X38377Y31315D01*
X38066Y31334D01*
X37755Y31361D01*
X37445Y31396D01*
X37137Y31437D01*
X36829Y31487D01*
X36522Y31544D01*
X36217Y31609D01*
X35914Y31681D01*
X35613Y31760D01*
X35313Y31847D01*
X35016Y31941D01*
X34721Y32042D01*
X34429Y32151D01*
X34140Y32267D01*
X33853Y32390D01*
X33570Y32519D01*
X33290Y32656D01*
X33013Y32800D01*
X32740Y32950D01*
X32471Y33107D01*
X32206Y33270D01*
X31944Y33440D01*
X31687Y33617D01*
X31435Y33799D01*
X31187Y33988D01*
X30943Y34183D01*
X30705Y34383D01*
X30471Y34590D01*
X30243Y34802D01*
X30020Y35020D01*
X29802Y35243D01*
X29590Y35471D01*
X29383Y35705D01*
X29183Y35943D01*
X28988Y36187D01*
X28799Y36435D01*
X28617Y36687D01*
X28440Y36944D01*
X28270Y37206D01*
X28107Y37471D01*
X27950Y37740D01*
X27800Y38013D01*
X27656Y38290D01*
X27519Y38570D01*
X27390Y38853D01*
X27267Y39140D01*
X27151Y39429D01*
X27042Y39721D01*
X26941Y40016D01*
X26847Y40313D01*
X26760Y40613D01*
X26681Y40914D01*
X26609Y41217D01*
X26544Y41522D01*
X26487Y41829D01*
X26437Y42137D01*
X26396Y42445D01*
X26361Y42755D01*
X26334Y43066D01*
X26315Y43377D01*
X26304Y43688D01*
X26300Y44000D01*
D32*
X306000Y710000D03*
X329654Y946232D03*
X987000Y765000D03*
X982000Y712000D03*
X982000Y726000D03*
X1006000Y712000D03*
X1007000Y726000D03*
X1027000Y715000D03*
X763000Y650000D03*
X815000Y446000D03*
X814000Y462000D03*
X837000Y446000D03*
X839000Y462000D03*
X665000Y136000D03*
X716000Y182000D03*
X730000Y183000D03*
X715000Y159000D03*
X730000Y158000D03*
X917000Y239000D03*
X1037000Y722000D03*
X323000Y286000D03*
X396300Y178200D03*
X414000Y171000D03*
X1122000Y139000D03*
X1134000Y2045000D03*
X901000Y2134000D03*
X916000Y2134000D03*
X931000Y2134000D03*
X946000Y2134000D03*
X977062Y2138000D03*
X1432500Y154800D03*
X1442500Y154800D03*
X1451500Y154800D03*
X1461500Y154800D03*
X1433500Y133800D03*
X1432500Y143800D03*
X1442500Y143800D03*
X1451500Y143800D03*
X1461500Y144800D03*
X1462500Y134800D03*
X1447500Y134800D03*
X1437500Y124800D03*
X1447500Y124800D03*
X1459500Y124800D03*
X554000Y979000D03*
X563000Y784000D03*
X573000Y829000D03*
X623500Y897500D03*
X514000Y956000D03*
X537000Y975000D03*
X493000Y956000D03*
X525000Y964000D03*
X471000Y957000D03*
X253614Y1234431D03*
X305000Y1188000D03*
X246000Y1343000D03*
X1002000Y356000D03*
X453000Y1836000D03*
X464000Y1836000D03*
X476000Y1836000D03*
X452000Y1825000D03*
X452000Y1813000D03*
X464000Y1812000D03*
X476000Y1813000D03*
X464000Y1825000D03*
X476000Y1825000D03*
X247500Y1991287D03*
X475000Y1982000D03*
X811000Y378000D03*
X1028000Y663000D03*
X285300Y1507600D03*
X366000Y1404000D03*
X410000Y1644000D03*
X342000Y1598000D03*
X424500Y1584500D03*
X346000Y1387000D03*
X470000Y1534000D03*
X326000Y1587000D03*
X1301000Y347000D03*
X1130000Y423000D03*
X1187000Y414000D03*
X1321000Y1871000D03*
X1309000Y1871000D03*
X1297000Y1871000D03*
X1285000Y1871000D03*
X1273000Y1871000D03*
X1261000Y1871000D03*
X1249000Y1871000D03*
X1237000Y1871000D03*
X1225000Y1871000D03*
X1213000Y1871000D03*
X1201000Y1871000D03*
X1189000Y1871000D03*
X1177000Y1871000D03*
X1165000Y1871000D03*
X1153000Y1871000D03*
X1141000Y1871000D03*
X1321000Y1531000D03*
X1273000Y1531000D03*
X1257000Y1531000D03*
X1229000Y1531000D03*
X1209000Y1531000D03*
X1189000Y1531000D03*
X1169000Y1531000D03*
X1153000Y1531000D03*
X1127000Y1503000D03*
X1143000Y1504000D03*
X1245000Y1531000D03*
X572000Y1834000D03*
X293000Y716000D03*
X317000Y717000D03*
X294000Y702000D03*
X317000Y702000D03*
X359000Y1537000D03*
X359000Y1527000D03*
X359000Y1517000D03*
X359000Y1507000D03*
X370000Y1507000D03*
X370000Y1517000D03*
X369000Y1527000D03*
X369000Y1537000D03*
X380000Y1537000D03*
X380000Y1527000D03*
X380000Y1517000D03*
X380000Y1507000D03*
X391000Y1537000D03*
X391000Y1527000D03*
X391000Y1517000D03*
X391000Y1507000D03*
X243689Y1939213D03*
X246000Y1446000D03*
X468000Y1459000D03*
X509000Y1567000D03*
X280000Y1611000D03*
X964000Y981000D03*
X821000Y503000D03*
X1145000Y161000D03*
X1145000Y152000D03*
X1153000Y157000D03*
X1153000Y145000D03*
D33*
X1146000Y821000D03*
X1222000Y747000D03*
X1273000Y748000D03*
X1400000Y747000D03*
X1579000Y746000D03*
X1527000Y820000D03*
X1323000Y822000D03*
X1263000Y1461000D03*
X1476000Y749000D03*
X309000Y859000D03*
X501000Y1773000D03*
X189000Y1670000D03*
X346000Y1446000D03*
X433000Y1769000D03*
X402000Y1883000D03*
D32*
X277652Y1549500D03*
X459000Y1940000D03*
D33*
X1261000Y2058000D03*
X847000Y2069000D03*
D34*
X1024062Y2152000D02*
X1131062Y2045000D01*
X1024062Y2152000D02*
X991062Y2152000D01*
X977062Y2138000D01*
X1131062Y2045000D02*
X1134000Y2045000D01*
X1147000Y2058000D01*
X1261000Y2058000D01*
X1393000Y2058000D01*
D33*
X1393000Y2058000D03*
X239000Y1907000D03*
X401000Y2027000D03*
X383000Y1980000D03*
X1087000Y371000D03*
X1170000Y343000D03*
X543000Y2042000D03*
X680000Y2043000D03*
X588000Y724000D03*
X559000Y611000D03*
X577000Y611000D03*
X576000Y522000D03*
X514000Y724000D03*
X312000Y647000D03*
X990000Y1653000D03*
D35*
X1028000Y1615000D01*
D33*
X1042917Y1382083D03*
D35*
X1028000Y1397000D01*
X1028000Y1615000D01*
D33*
X197000Y1061000D03*
D35*
X197000Y1080000D01*
X161000Y1116000D01*
X161000Y1335000D01*
D33*
X161000Y1335000D03*
D32*
X311500Y666500D03*
D33*
X1234000Y1318000D03*
X1212000Y1317000D03*
D35*
X1213000Y1318000D01*
X1234000Y1318000D01*
D33*
X484000Y1281000D03*
D35*
X484000Y712000D01*
X438500Y666500D02*
X311500Y666500D01*
X438500Y666500D02*
X484000Y712000D01*
X1057000Y1317000D02*
X1212000Y1317000D01*
X1038000Y1298000D02*
X1038000Y1190000D01*
X988000Y1140000D01*
X1038000Y1298000D02*
X1057000Y1317000D01*
X988000Y1140000D02*
X766000Y1140000D01*
X741000Y1165000D01*
D33*
X741000Y1389000D03*
D35*
X741000Y1165000D01*
D33*
X1242000Y1337000D03*
D35*
X1282000Y1337000D01*
X1284000Y1335000D01*
D33*
X1284000Y1335000D03*
X1310000Y1343000D03*
D35*
X1259000Y1343000D01*
X1256000Y1346000D01*
D33*
X1256000Y1346000D03*
X1244000Y1359000D03*
D35*
X1335000Y1359000D01*
X1336000Y1358000D01*
D33*
X1336000Y1358000D03*
X1254000Y1370000D03*
D35*
X1363000Y1370000D01*
D33*
X1363000Y1370000D03*
X1241000Y1380000D03*
D35*
X1412000Y1380000D01*
D33*
X1412000Y1380000D03*
X1251000Y1390000D03*
D35*
X1439000Y1390000D01*
X1440000Y1389000D01*
D33*
X1440000Y1389000D03*
X1246000Y1411000D03*
D35*
X1513000Y1411000D02*
X1514000Y1410000D01*
X1513000Y1411000D02*
X1246000Y1411000D01*
D33*
X1514000Y1410000D03*
X1246000Y1426000D03*
D35*
X1541000Y1426000D01*
D33*
X1541000Y1426000D03*
X1298000Y1232000D03*
D35*
X1276000Y1210000D01*
X1123000Y1210000D01*
X1122000Y863000D02*
X1090000Y831000D01*
X699000Y831000D01*
X691700Y838300D01*
X691700Y857900D01*
X1122000Y863000D02*
X1122000Y864000D01*
D33*
X1122000Y864000D03*
X1123000Y1210000D03*
D35*
X1122000Y864000D02*
X1122000Y737000D01*
X1130498Y728502D02*
X1303000Y728502D01*
D33*
X1303000Y728502D03*
X1412000Y728502D03*
D35*
X1460000Y680502D01*
X1315000Y288000D02*
X1204400Y288000D01*
X1130498Y728502D02*
X1122000Y737000D01*
X1460000Y680502D02*
X1460000Y433000D01*
X1315000Y288000D01*
D33*
X1317802Y1265000D03*
D35*
X1286802Y1234000D01*
X1117000Y1234000D01*
D33*
X626000Y987000D03*
D35*
X647000Y966000D01*
X647000Y906000D01*
X682000Y871000D01*
X761000Y846000D02*
X1064000Y846000D01*
X736000Y871000D02*
X682000Y871000D01*
X736000Y871000D02*
X761000Y846000D01*
D33*
X1075498Y882000D03*
X1117000Y1234000D03*
D35*
X1075498Y857498D02*
X1064000Y846000D01*
X1075498Y857498D02*
X1075498Y882000D01*
D33*
X1327000Y1275000D03*
D35*
X1307498Y1275000D02*
X1274498Y1242000D01*
X1077498Y1242000D01*
X1075498Y1240000D01*
D33*
X1075498Y1240000D03*
D35*
X1307498Y1275000D02*
X1327000Y1275000D01*
D33*
X1074498Y1042000D03*
X1024000Y1042000D03*
D35*
X1074498Y1042000D01*
D33*
X840000Y1480000D03*
D35*
X835000Y1475000D01*
X703000Y1475000D01*
D33*
X703000Y1475000D03*
X557000Y1473000D03*
D35*
X557000Y1041800D01*
X559000Y1039000D01*
D33*
X559000Y1039000D03*
X647000Y1261000D03*
D35*
X647000Y1170000D02*
X705000Y1112000D01*
X647000Y1170000D02*
X647000Y1261000D01*
X705000Y971600D02*
X717100Y959500D01*
X705000Y971600D02*
X705000Y1112000D01*
X691700Y883300D02*
X686700Y883300D01*
D33*
X628000Y1261000D03*
D35*
X628000Y1168620D01*
X655270Y1141350D02*
X655270Y914730D01*
X655270Y1141350D02*
X628000Y1168620D01*
X655270Y914730D02*
X686700Y883300D01*
D33*
X1169000Y1438000D03*
D35*
X1169000Y1519000D01*
X1162948Y1533507D02*
X1163000Y1533559D01*
X1162948Y1533507D02*
X1162948Y1525052D01*
D33*
X1163000Y1644000D03*
D35*
X1162948Y1525052D02*
X1169000Y1519000D01*
X1163000Y1533559D02*
X1163000Y1644000D01*
D33*
X1198000Y1326000D03*
D35*
X1188000Y1326000D01*
X1177000Y1337000D01*
D33*
X1177000Y1651000D03*
D35*
X1177000Y1337000D01*
D33*
X1183802Y1642000D03*
D35*
X1181000Y1639198D01*
X1181000Y1368000D02*
X1202000Y1347000D01*
D33*
X1202000Y1347000D03*
D35*
X1181000Y1368000D02*
X1181000Y1639198D01*
D33*
X1196000Y1642000D03*
D35*
X1237052Y1536568D02*
X1237052Y1529948D01*
X1248000Y1519000D02*
X1248000Y1449000D01*
D33*
X1248000Y1449000D03*
D35*
X1248000Y1519000D02*
X1237052Y1529948D01*
X1237052Y1536568D02*
X1225000Y1548620D01*
X1225000Y1649000D01*
X1220000Y1654000D01*
X1196000Y1649000D02*
X1196000Y1642000D01*
X1201000Y1654000D02*
X1220000Y1654000D01*
X1201000Y1654000D02*
X1196000Y1649000D01*
D33*
X1271000Y1439000D03*
D35*
X1200000Y1439000D01*
D33*
X1208000Y1643000D03*
D35*
X1195052Y1630052D01*
X1195052Y1443948D01*
X1200000Y1439000D01*
X1272600Y797500D02*
X1281000Y789100D01*
X1281000Y784000D01*
X1285000Y780000D01*
X1285000Y765000D01*
D32*
X576000Y554000D03*
D35*
X810183Y783802D02*
X815818Y783802D01*
X580381Y554000D02*
X576000Y554000D01*
X580381Y554000D02*
X810183Y783802D01*
X815818Y783802D02*
X951620Y648000D01*
X1255000Y648000D02*
X1321000Y714000D01*
X1321000Y737000D01*
X1299000Y751000D02*
X1285000Y765000D01*
X1255000Y648000D02*
X951620Y648000D01*
X1307000Y751000D02*
X1321000Y737000D01*
X1307000Y751000D02*
X1299000Y751000D01*
D33*
X1249000Y1655000D03*
D35*
X1332000Y1655000D01*
X1336000Y1651000D01*
D33*
X1336000Y1651000D03*
X1401000Y1214000D03*
D35*
X1296000Y1214000D01*
D33*
X1296000Y1214000D03*
X1241000Y1643000D03*
D35*
X1349000Y1643000D01*
D33*
X1349000Y1643000D03*
X1418802Y1222000D03*
D35*
X1348270Y1222000D01*
X1348270Y1222000D01*
D33*
X1348270Y1222000D03*
X1254000Y1635000D03*
D35*
X1372000Y1635000D01*
D33*
X1372000Y1635000D03*
X1430000Y1181000D03*
D35*
X1389200Y1181000D01*
D33*
X1389200Y1181000D03*
X1242000Y1626000D03*
D35*
X1243000Y1627000D01*
X1382000Y1627000D01*
D33*
X1382000Y1627000D03*
X1451000Y1202000D03*
D35*
X1450000Y1201000D01*
X1401600Y1201000D01*
D33*
X1401600Y1201000D03*
X1254000Y1618000D03*
D35*
X1389000Y1618000D01*
X1390000Y1617000D01*
D33*
X1390000Y1617000D03*
X1244000Y1610000D03*
D35*
X1403000Y1610000D02*
X1404000Y1609000D01*
X1403000Y1610000D02*
X1244000Y1610000D01*
D33*
X1404000Y1609000D03*
X1254000Y1602000D03*
D35*
X1496000Y1602000D01*
D33*
X1496000Y1602000D03*
X1268000Y1593000D03*
D35*
X1549000Y1593000D01*
D33*
X1549000Y1593000D03*
X1252000Y1581000D03*
D35*
X1576000Y1581000D01*
D33*
X1576000Y1581000D03*
X1266000Y1573000D03*
D35*
X1594000Y1573000D02*
X1601000Y1566000D01*
X1594000Y1573000D02*
X1266000Y1573000D01*
D33*
X1601000Y1566000D03*
X1027000Y591000D03*
X1208000Y596000D03*
D35*
X1032000Y596000D01*
X1027000Y591000D01*
D33*
X1380000Y825000D03*
D35*
X1380000Y807108D01*
X1385095Y802013D01*
X1385095Y622095D01*
X1359000Y596000D02*
X1208000Y596000D01*
X1359000Y596000D02*
X1385095Y622095D01*
D33*
X1370000Y843000D03*
D35*
X1370000Y808708D01*
X1363305Y802013D01*
X1363305Y629305D01*
X1354000Y620000D01*
D33*
X1257500Y620000D03*
D35*
X1354000Y620000D01*
D33*
X1374000Y1251000D03*
D35*
X1324000Y1251000D01*
D33*
X1324000Y1251000D03*
X1323000Y857000D03*
D35*
X1323000Y838620D01*
X1336000Y825620D01*
X1336000Y687000D02*
X1340000Y683000D01*
D33*
X1340000Y683000D03*
D35*
X1336000Y687000D02*
X1336000Y825620D01*
D33*
X1369652Y1281999D03*
D35*
X1368652Y1282999D01*
X1280999Y1282999D02*
X1247000Y1249000D01*
X1120000Y1249000D01*
D33*
X1120000Y1249000D03*
X1062000Y966000D03*
D35*
X1062000Y869000D01*
X1047000Y854000D01*
X789850Y854000D01*
D33*
X789850Y854000D03*
D35*
X1280999Y1282999D02*
X1368652Y1282999D01*
D33*
X1353000Y1300000D03*
D35*
X1082498Y1300000D02*
X1075498Y1293000D01*
D33*
X1075498Y1293000D03*
D35*
X717100Y908700D02*
X763800Y862000D01*
X1082498Y1300000D02*
X1353000Y1300000D01*
X1042600Y862000D02*
X763800Y862000D01*
X1050498Y869898D02*
X1050498Y1002502D01*
D33*
X1050498Y1002502D03*
D35*
X1050498Y869898D02*
X1042600Y862000D01*
D33*
X1344000Y1318000D03*
D35*
X1334000Y1308000D01*
D33*
X725000Y1458000D03*
D35*
X1048000Y1292000D02*
X1064000Y1308000D01*
X1048000Y1292000D02*
X1048000Y1180000D01*
X995000Y1127000D01*
X749000Y1127000D01*
X725000Y1151000D01*
X725000Y1458000D01*
X1064000Y1308000D02*
X1334000Y1308000D01*
D32*
X1307000Y2033000D03*
D36*
X876000Y620000D03*
D37*
X1009500Y535500D02*
X1043000Y502000D01*
X1009500Y535500D02*
X925000Y620000D01*
X876000Y620000D01*
D38*
X1091000Y185000D03*
D32*
X1153000Y385000D03*
X1239000Y392000D03*
X1298000Y1483000D03*
D36*
X1416000Y537000D03*
D39*
X1091000Y185000D02*
X1064000Y212000D01*
X1064000Y481000D02*
X1043000Y502000D01*
X1064000Y385000D02*
X1064000Y212000D01*
X1064000Y385000D02*
X1064000Y481000D01*
D34*
X1064000Y385000D02*
X1153000Y385000D01*
X1232000Y385000D02*
X1239000Y392000D01*
X1232000Y385000D02*
X1153000Y385000D01*
D37*
X1011000Y537000D02*
X1416000Y537000D01*
X1011000Y537000D02*
X1009500Y535500D01*
D33*
X852000Y1837000D03*
D35*
X717300Y1837000D01*
X684200Y1803900D01*
X683000Y1621000D01*
X683000Y1161000D02*
X701000Y1143000D01*
D33*
X701000Y1143000D03*
D35*
X683000Y1161000D02*
X683000Y1621000D01*
D40*
X918000Y1258000D02*
X913230Y1253230D01*
X913230Y1228770D02*
X914500Y1227500D01*
X913230Y1228770D02*
X913230Y1253230D01*
X918000Y1258000D02*
X918000Y1284000D01*
X958364Y1908000D02*
X958364Y1908500D01*
X952094Y1914770D01*
X903853Y1914770D01*
D33*
X958364Y1908000D03*
D40*
X899230Y1302770D02*
X918000Y1284000D01*
X899230Y1302770D02*
X899230Y1910147D01*
X903853Y1914770D01*
X920770Y1256853D02*
X916000Y1252083D01*
X924500Y1247500D02*
X925000Y1247000D01*
X925000Y1244000D01*
X921000Y1240000D01*
X920000Y1240000D01*
X916000Y1244000D01*
X916000Y1252083D01*
X920770Y1256853D02*
X920770Y1285147D01*
X902000Y1909000D02*
X905000Y1912000D01*
X938000Y1912000D01*
X943000Y1907000D01*
D33*
X943000Y1907000D03*
D40*
X902000Y1303917D02*
X920770Y1285147D01*
X902000Y1303917D02*
X902000Y1909000D01*
D33*
X925000Y1896000D03*
D40*
X925770Y1895230D01*
X925770Y1333230D01*
X950770Y1308230D01*
X954500Y1257270D02*
X954500Y1227500D01*
X954500Y1257270D02*
X950770Y1261000D01*
X950770Y1268000D01*
X950770Y1308230D01*
D41*
X950770Y1268000D03*
D33*
X917672Y1888672D03*
D40*
X923000Y1883343D01*
X923000Y1392000D01*
X923000Y1364000D02*
X923000Y1332083D01*
X948000Y1307083D01*
X948000Y1251000D02*
X944500Y1247500D01*
X948000Y1251000D02*
X948000Y1268000D01*
X948000Y1290000D02*
X948000Y1307083D01*
X943000Y1273000D02*
X948000Y1268000D01*
X943000Y1285000D02*
X948000Y1290000D01*
X943000Y1285000D02*
X943000Y1273000D01*
X923000Y1364000D02*
X917000Y1370000D01*
X917000Y1386000D02*
X923000Y1392000D01*
X917000Y1386000D02*
X917000Y1370000D01*
D33*
X888000Y1881000D03*
D40*
X883047Y1237230D02*
X871000Y1237230D01*
X866000Y1232230D01*
X866000Y1196000D02*
X868000Y1194000D01*
X880917Y1194000D02*
X883959Y1190959D01*
X895959Y1190959D01*
X898670Y1193670D02*
X928300Y1193670D01*
X883047Y1237230D02*
X887959Y1242141D01*
X866000Y1232230D02*
X866000Y1196000D01*
X868000Y1194000D02*
X880917Y1194000D01*
X895959Y1190959D02*
X898670Y1193670D01*
X928300Y1193670D02*
X934500Y1199870D01*
X934500Y1202500D01*
X888000Y1823230D02*
X888000Y1881000D01*
X888000Y1823230D02*
X887770Y1823000D01*
X887770Y1297000D01*
X887780Y1296990D01*
X887780Y1286303D01*
X887959Y1286124D01*
X887959Y1242141D01*
D33*
X880672Y1873672D03*
D40*
X869853Y1240000D02*
X863230Y1233377D01*
X882811Y1188189D02*
X897106Y1188189D01*
X899817Y1190900D02*
X916100Y1190900D01*
X877000Y1240000D02*
X869853Y1240000D01*
X863230Y1233377D02*
X863230Y1194853D01*
X866853Y1191230D01*
X879770Y1191230D01*
X882811Y1188189D01*
X897106Y1188189D02*
X899817Y1190900D01*
X916100Y1190900D02*
X924500Y1182500D01*
X877000Y1240000D02*
X885189Y1248189D01*
X885000Y1869343D02*
X880672Y1873672D01*
X885000Y1290083D02*
X885010Y1290073D01*
X885010Y1284116D01*
X885189Y1283937D01*
X885189Y1248189D01*
X885000Y1290083D02*
X885000Y1869343D01*
D33*
X460000Y1982000D03*
D35*
X468000Y1990000D02*
X536000Y1990000D01*
X468000Y1990000D02*
X460000Y1982000D01*
X536000Y1990000D02*
X538000Y1992000D01*
D33*
X538000Y1992000D03*
X1071000Y1757000D03*
X1053000Y1431000D03*
D35*
X1053000Y1739000D02*
X1071000Y1757000D01*
X1053000Y1739000D02*
X1053000Y1431000D01*
D33*
X1397000Y1884000D03*
D35*
X1379000Y1902000D01*
X1055000Y1902000D01*
X957000Y2000000D01*
X957000Y2133000D01*
D33*
X957000Y2133000D03*
D32*
X911000Y917000D03*
X920000Y917000D03*
X929000Y917000D03*
X940000Y917000D03*
X911000Y927000D03*
X911000Y936000D03*
X911000Y945000D03*
X911000Y954000D03*
X920000Y927000D03*
X920000Y936000D03*
X920000Y945000D03*
X920000Y954000D03*
X930000Y927000D03*
X930000Y936000D03*
X930000Y945000D03*
X930000Y954000D03*
X940000Y927000D03*
X940000Y936000D03*
X913000Y1011000D03*
X922000Y1011000D03*
X913000Y965000D03*
X922000Y964000D03*
X931000Y964000D03*
X940000Y964000D03*
X913000Y975000D03*
X913000Y984000D03*
X913000Y993000D03*
X913000Y1002000D03*
X932000Y1011000D03*
X942000Y993000D03*
X942000Y1002000D03*
X932000Y975000D03*
X932000Y984000D03*
X932000Y993000D03*
X932000Y1002000D03*
X922000Y975000D03*
X922000Y984000D03*
X922000Y993000D03*
X922000Y1002000D03*
X911000Y907000D03*
X911000Y898000D03*
X911000Y889000D03*
X919000Y889000D03*
X920000Y898000D03*
X920000Y907000D03*
X929000Y907000D03*
X929000Y898000D03*
X929000Y889000D03*
X938000Y889000D03*
X938000Y898000D03*
X938000Y907000D03*
X1179000Y164000D03*
X540000Y1824000D03*
X507000Y1856000D03*
X417000Y1415000D03*
X384000Y1477000D03*
X434000Y1462000D03*
X391052Y1563611D03*
X417000Y1554000D03*
X358948Y1560571D03*
X460000Y1567000D03*
X1043000Y307000D03*
D42*
X1281000Y1564000D03*
D32*
X304000Y1611000D03*
D33*
X1627000Y821000D03*
X1425000Y822000D03*
X513000Y1784000D03*
D34*
X537000Y1808000D01*
X540000Y1811000D01*
X540000Y1824000D01*
D33*
X505000Y1458000D03*
X346000Y1481000D03*
X532000Y1914000D03*
X537000Y1808000D03*
D39*
X20100Y1451016D02*
X20100Y1365900D01*
X46100Y1339900D02*
X46100Y1289884D01*
X46100Y1339900D02*
X20100Y1365900D01*
D43*
X190000Y987000D03*
D33*
X398000Y1981000D03*
D32*
X1212000Y149676D03*
D35*
X1501000Y438676D01*
X1501000Y687000D01*
D33*
X1501000Y687000D03*
X1238000Y1401000D03*
D35*
X1489000Y1401000D01*
X1489500Y1400500D01*
D33*
X1489500Y1400500D03*
X813000Y777000D03*
D35*
X705000Y669000D01*
X1112000Y120441D02*
X1102559Y111000D01*
X1112000Y120441D02*
X1112000Y279000D01*
X1317000Y326000D02*
X1347000Y356000D01*
X1347000Y430000D01*
X1335000Y442000D01*
D33*
X1335000Y442000D03*
D35*
X705000Y344000D02*
X705000Y669000D01*
X705000Y344000D02*
X938000Y111000D01*
X1102559Y111000D01*
X1112000Y279000D02*
X1159000Y326000D01*
X1317000Y326000D01*
D32*
X456000Y952000D03*
D39*
X436900Y1718600D02*
X436900Y1744000D01*
X153600Y2017600D02*
X127400Y2017600D01*
X153600Y2013600D02*
X423200Y1744000D01*
X153600Y2013600D02*
X153600Y2017600D01*
X423200Y1744000D02*
X436900Y1744000D01*
X456000Y952000D02*
X374000Y952000D01*
X262000Y1064000D01*
X262000Y1644000D01*
X336600Y1718600D01*
X436900Y1718600D01*
D33*
X526000Y1665000D03*
D35*
X526000Y1046000D02*
X574000Y998000D01*
D33*
X574000Y998000D03*
D35*
X526000Y1046000D02*
X526000Y1665000D01*
D33*
X616000Y861000D03*
X584000Y1751000D03*
D35*
X584000Y1005000D01*
X632000Y877000D02*
X616000Y861000D01*
X632000Y957000D02*
X584000Y1005000D01*
X632000Y957000D02*
X632000Y877000D01*
D33*
X489372Y1891729D03*
X377000Y2015000D03*
D40*
X373203Y2011203D01*
X467917Y1896000D02*
X474459Y1889459D01*
X486972Y1889329D02*
X489372Y1891729D01*
X486972Y1889329D02*
X474329Y1889329D01*
X474459Y1889459D01*
X373203Y1916797D02*
X373203Y2011203D01*
X373203Y1916797D02*
X394000Y1896000D01*
X467917Y1896000D01*
D33*
X486000Y1878000D03*
X366636Y2015000D03*
D40*
X370433Y2011203D01*
X479000Y1878000D02*
X486000Y1878000D01*
X370433Y1915650D02*
X370433Y2011203D01*
X370433Y1915650D02*
X392853Y1893230D01*
X463770Y1893230D01*
X479000Y1878000D01*
X487700Y1744000D02*
X488000Y1744000D01*
X498000Y1734000D01*
X498000Y1709000D01*
X482000Y1693000D01*
X482000Y1502000D01*
X477000Y1497000D02*
X460000Y1497000D01*
D33*
X460000Y1497000D03*
D40*
X477000Y1497000D02*
X482000Y1502000D01*
D32*
X476000Y1508000D03*
D40*
X462300Y1740700D02*
X462300Y1744000D01*
X477075Y1725925D02*
X477027Y1609973D01*
X477075Y1609925D01*
X477075Y1508000D01*
X476000Y1508000D01*
X477075Y1725925D02*
X462300Y1740700D01*
D32*
X512000Y1874000D03*
D40*
X512000Y1875000D02*
X514000Y1877000D01*
X512000Y1875000D02*
X512000Y1874000D01*
X514000Y1971000D02*
X513000Y1972000D01*
X514000Y1971000D02*
X514000Y1877000D01*
D32*
X513000Y1972000D03*
D33*
X211000Y1528000D03*
D44*
X204038Y1528000D01*
X203203Y1528836D01*
X189881Y1528836D01*
X188293Y1527247D01*
X183753Y1527247D01*
X175040Y1535960D01*
X175040Y1536360D01*
D33*
X243000Y1536636D03*
D44*
X242270Y1535906D01*
X195814Y1535906D01*
X175040Y1556680D01*
D33*
X227553Y1485447D03*
D44*
X227440Y1485560D02*
X200440Y1485560D01*
X227440Y1485560D02*
X227553Y1485447D01*
D33*
X243882Y1488118D03*
D44*
X200560Y1506000D02*
X200440Y1505880D01*
X200560Y1506000D02*
X226000Y1506000D01*
X243882Y1488118D01*
D32*
X418000Y1404000D03*
D35*
X403000Y1419000D01*
X352000Y1419000D01*
D32*
X352000Y1419000D03*
X424000Y1485000D03*
D35*
X424000Y1551000D01*
X435000Y1562000D01*
X435000Y1682000D01*
X430000Y1687000D01*
D33*
X430000Y1687000D03*
D32*
X448500Y1672500D03*
D35*
X449000Y1672000D01*
D32*
X449000Y1525000D03*
D35*
X449000Y1672000D01*
D32*
X1187000Y153912D03*
D35*
X1179000Y181000D02*
X1179000Y288000D01*
X1187000Y173000D02*
X1187000Y153912D01*
X1187000Y173000D02*
X1179000Y181000D01*
D32*
X258000Y1048000D03*
D35*
X183000Y142986D02*
X229986Y96000D01*
X1150000Y96000D01*
X1163000Y109000D02*
X1163000Y256600D01*
X1153600Y266000D01*
X1153600Y288000D01*
X258000Y1030000D02*
X258000Y1048000D01*
X258000Y1030000D02*
X183000Y955000D01*
X183000Y142986D01*
X1150000Y96000D02*
X1163000Y109000D01*
D32*
X310000Y1537000D03*
X310000Y1507000D03*
X310000Y1487000D03*
D35*
X310000Y1507000D02*
X310000Y1523000D01*
X310000Y1537000D01*
X310000Y1507000D02*
X310000Y1487000D01*
D32*
X365000Y1569000D03*
X298000Y1523000D03*
D35*
X310000Y1537000D02*
X342000Y1569000D01*
X365000Y1569000D01*
X310000Y1523000D02*
X298000Y1523000D01*
D33*
X291000Y1568000D03*
D35*
X310000Y1549000D01*
X310000Y1537000D01*
D32*
X374948Y1562000D03*
D35*
X413948Y1523000D01*
D32*
X417000Y1523000D03*
D35*
X416000Y1523000D02*
X413948Y1523000D01*
D32*
X354000Y1434000D03*
D35*
X416000Y1523000D02*
X417000Y1523000D01*
X363000Y1434000D02*
X354000Y1434000D01*
X363000Y1434000D02*
X416000Y1487000D01*
X416000Y1523000D01*
D32*
X388000Y1828787D03*
X433000Y1781000D03*
X483000Y1865166D03*
D33*
X547000Y1882000D03*
D34*
X485000Y1865166D02*
X483000Y1865166D01*
X485000Y1865166D02*
X538166Y1865166D01*
X547000Y1874000D02*
X547000Y1882000D01*
X547000Y1874000D02*
X538166Y1865166D01*
X484166Y1866000D02*
X428000Y1866000D01*
X484166Y1866000D02*
X485000Y1865166D01*
D33*
X428000Y1866000D03*
D34*
X428000Y1825000D01*
X428000Y1786000D01*
X433000Y1781000D01*
X428000Y1825000D02*
X391787Y1825000D01*
X388000Y1828787D01*
D36*
X158000Y1680000D03*
X170000Y1396000D03*
D33*
X996000Y635000D03*
M02*
