G04 EAGLE Gerber RS-274X export*
G75*
%MOMM*%
%FSLAX34Y34*%
%LPD*%
%INSoldermask Top*%
%IPPOS*%
%AMOC8*
5,1,8,0,0,1.08239X$1,22.5*%
G01*
%ADD10R,4.101600X4.101600*%
%ADD11R,5.301600X5.301600*%
%ADD12R,1.566900X1.266200*%
%ADD13R,0.661600X0.730700*%
%ADD14R,0.730700X0.661600*%
%ADD15R,2.551600X2.401600*%
%ADD16R,1.266200X1.566900*%
%ADD17R,1.501600X1.101600*%
%ADD18R,1.101600X1.501600*%
%ADD19R,1.301600X0.901600*%
%ADD20C,1.529600*%
%ADD21C,2.401600*%
%ADD22C,2.692400*%
%ADD23R,1.631600X1.631600*%
%ADD24C,1.631600*%
%ADD25C,2.006600*%
%ADD26C,2.456600*%
%ADD27C,3.352800*%
%ADD28C,1.625600*%
%ADD29P,1.759533X8X112.500000*%
%ADD30R,1.826600X1.826600*%
%ADD31C,1.826600*%
%ADD32R,0.401600X2.001600*%
%ADD33C,2.096600*%
%ADD34R,1.309600X1.309600*%
%ADD35C,1.309600*%
%ADD36C,2.451600*%
%ADD37P,1.759533X8X22.500000*%
%ADD38R,2.451600X5.201600*%
%ADD39R,5.201600X2.451600*%
%ADD40R,0.901600X0.901600*%
%ADD41R,0.745600X0.636700*%
%ADD42R,0.636700X0.745600*%
%ADD43R,0.705000X0.340000*%
%ADD44R,0.705000X0.540000*%
%ADD45C,0.200637*%
%ADD46C,0.119325*%
%ADD47R,3.801600X3.801600*%
%ADD48R,1.001600X0.301600*%
%ADD49R,0.301600X1.001600*%
%ADD50R,1.681600X0.690700*%
%ADD51R,2.714600X3.603600*%
%ADD52R,1.501600X0.701600*%
%ADD53R,0.901600X0.401600*%
%ADD54R,1.851600X2.601600*%
%ADD55R,0.690700X1.681600*%
%ADD56R,3.603600X2.714600*%
%ADD57C,0.252575*%
%ADD58C,0.616509*%
%ADD59R,1.301600X1.501600*%
%ADD60C,4.546600*%
%ADD61R,0.501600X1.451600*%
%ADD62R,1.901600X2.001600*%
%ADD63R,2.201600X1.701600*%
%ADD64R,2.001600X2.001600*%
%ADD65R,1.751600X1.751600*%
%ADD66C,1.751600*%
%ADD67R,0.601600X0.571600*%
%ADD68R,0.651600X0.571600*%
%ADD69R,1.951600X2.801600*%
%ADD70R,0.301600X0.801600*%
%ADD71C,2.651600*%
%ADD72R,1.551600X0.551600*%
%ADD73R,0.951600X0.301600*%
%ADD74R,0.301600X0.951600*%
%ADD75R,4.501600X4.501600*%
%ADD76R,2.701600X1.801600*%
%ADD77R,0.801600X0.751600*%
%ADD78R,0.901600X1.301600*%
%ADD79R,2.001600X1.201600*%
%ADD80C,1.676600*%
%ADD81C,1.801600*%
%ADD82C,5.080000*%
%ADD83C,0.858000*%
%ADD84C,1.008000*%
%ADD85C,1.601600*%
%ADD86C,1.108000*%
%ADD87C,0.908000*%
%ADD88C,1.401600*%


D10*
X1447000Y139700D03*
D11*
X1576500Y139700D03*
X1317500Y139700D03*
X1265500Y139700D03*
X1628500Y139700D03*
D12*
X562500Y814954D03*
X562500Y797446D03*
D13*
X995846Y784500D03*
X986154Y784500D03*
X830646Y513500D03*
X820954Y513500D03*
D14*
X985000Y809246D03*
X985000Y799554D03*
X815000Y543446D03*
X815000Y533754D03*
X1049000Y766646D03*
X1049000Y756954D03*
X880000Y508446D03*
X880000Y498754D03*
D13*
X943554Y981500D03*
X953246Y981500D03*
X744754Y650500D03*
X754446Y650500D03*
X943954Y950500D03*
X953646Y950500D03*
D14*
X232000Y1332854D03*
X232000Y1342546D03*
D13*
X1291154Y364500D03*
X1300846Y364500D03*
X943354Y1018500D03*
X953046Y1018500D03*
X744554Y686500D03*
X754246Y686500D03*
D15*
X553700Y893500D03*
X553700Y955500D03*
D13*
X743754Y718500D03*
X753446Y718500D03*
D12*
X514500Y925046D03*
X514500Y942554D03*
X493000Y924846D03*
X493000Y942354D03*
X471000Y925046D03*
X471000Y942554D03*
D14*
X1002000Y336854D03*
X1002000Y346546D03*
D13*
X1151646Y423000D03*
X1141954Y423000D03*
X1155646Y2045000D03*
X1145954Y2045000D03*
D14*
X1212000Y353854D03*
X1212000Y363546D03*
D16*
X300754Y1626000D03*
X283246Y1626000D03*
X300554Y1597000D03*
X283046Y1597000D03*
D13*
X493246Y1435600D03*
X483554Y1435600D03*
X493146Y1458000D03*
X483454Y1458000D03*
X492946Y1477500D03*
X483254Y1477500D03*
X488054Y1587500D03*
X497746Y1587500D03*
X488554Y1548500D03*
X498246Y1548500D03*
X488054Y1566500D03*
X497746Y1566500D03*
X426446Y1927000D03*
X416754Y1927000D03*
D16*
X995646Y663500D03*
X1013154Y663500D03*
D14*
X488400Y1917554D03*
X488400Y1927246D03*
D12*
X665000Y167954D03*
X665000Y150446D03*
D13*
X698954Y126000D03*
X708646Y126000D03*
D14*
X665500Y199446D03*
X665500Y189754D03*
X396500Y196446D03*
X396500Y186754D03*
D12*
X414000Y200554D03*
X414000Y183046D03*
D14*
X779000Y165554D03*
X779000Y175246D03*
D13*
X806646Y178000D03*
X796954Y178000D03*
D16*
X841154Y378500D03*
X823646Y378500D03*
D13*
X784246Y123000D03*
X774554Y123000D03*
D14*
X956000Y257246D03*
X956000Y247554D03*
X936000Y257046D03*
X936000Y247354D03*
X917000Y256846D03*
X917000Y247154D03*
D13*
X426646Y1606000D03*
X416954Y1606000D03*
X342446Y1629000D03*
X332754Y1629000D03*
D14*
X155500Y1649054D03*
X155500Y1658746D03*
X1041000Y691754D03*
X1041000Y701446D03*
X869000Y426854D03*
X869000Y436546D03*
D13*
X964854Y664000D03*
X974546Y664000D03*
X797354Y395000D03*
X807046Y395000D03*
D17*
X1023900Y288000D03*
X1023900Y307000D03*
X1001900Y297500D03*
D18*
X356900Y285500D03*
X337900Y285500D03*
X347400Y263500D03*
D19*
X921000Y279200D03*
X921000Y297200D03*
D20*
X153600Y2017600D03*
X153600Y1992600D03*
X153600Y1972600D03*
X153600Y1947600D03*
X127400Y2017600D03*
X127400Y1992600D03*
X127400Y1972600D03*
X127400Y1947600D03*
D21*
X157100Y2048300D03*
X100300Y2048300D03*
X157100Y1916900D03*
X100300Y1916900D03*
D22*
X156800Y265220D03*
X100920Y232200D03*
X156800Y199180D03*
D23*
X175040Y1475400D03*
D24*
X175040Y1495720D03*
X175040Y1516040D03*
X175040Y1536360D03*
X175040Y1556680D03*
X175040Y1577000D03*
X200440Y1465240D03*
X200440Y1485560D03*
X200440Y1505880D03*
X200440Y1546520D03*
X200440Y1566840D03*
X200440Y1587160D03*
D25*
X45500Y1451016D03*
X20100Y1451016D03*
X70900Y1601384D03*
X45500Y1601384D03*
X20100Y1601384D03*
D26*
X109000Y1438316D03*
X109000Y1614084D03*
D27*
X109000Y1477940D03*
X109000Y1574460D03*
D28*
X1369280Y417400D02*
X1384520Y417400D01*
X1384520Y442800D02*
X1369280Y442800D01*
X1369280Y468200D02*
X1384520Y468200D01*
D29*
X717100Y857900D03*
X691700Y857900D03*
X717100Y883300D03*
X691700Y883300D03*
X717100Y908700D03*
X691700Y908700D03*
X717100Y934100D03*
X691700Y934100D03*
X717100Y959500D03*
X691700Y959500D03*
X717100Y984900D03*
X691700Y984900D03*
X717100Y1010300D03*
X691700Y1010300D03*
D23*
X175640Y1163900D03*
D24*
X175640Y1184220D03*
X175640Y1204540D03*
X175640Y1224860D03*
X175640Y1245180D03*
X175640Y1265500D03*
X201040Y1153740D03*
X201040Y1174060D03*
X201040Y1194380D03*
X201040Y1235020D03*
X201040Y1255340D03*
X201040Y1275660D03*
D25*
X46100Y1139516D03*
X20700Y1139516D03*
X71500Y1289884D03*
X46100Y1289884D03*
X20700Y1289884D03*
D26*
X109600Y1126816D03*
X109600Y1302584D03*
D27*
X109600Y1166440D03*
X109600Y1262960D03*
D30*
X1628200Y797500D03*
D31*
X1628200Y772100D03*
X1602800Y797500D03*
X1602800Y772100D03*
X1577400Y797500D03*
X1577400Y772100D03*
X1552000Y797500D03*
X1552000Y772100D03*
X1526600Y797500D03*
X1526600Y772100D03*
X1501200Y797500D03*
X1501200Y772100D03*
X1475800Y797500D03*
X1475800Y772100D03*
X1450400Y797500D03*
X1450400Y772100D03*
X1425000Y797500D03*
X1425000Y772100D03*
X1399600Y797500D03*
X1399600Y772100D03*
X1374200Y797500D03*
X1374200Y772100D03*
X1348800Y797500D03*
X1348800Y772100D03*
X1323400Y797500D03*
X1323400Y772100D03*
X1298000Y797500D03*
X1298000Y772100D03*
X1272600Y797500D03*
X1272600Y772100D03*
X1247200Y797500D03*
X1247200Y772100D03*
X1221800Y797500D03*
X1221800Y772100D03*
X1196400Y797500D03*
X1196400Y772100D03*
X1171000Y797500D03*
X1171000Y772100D03*
X1145600Y797500D03*
X1145600Y772100D03*
D32*
X896400Y2115000D03*
X901400Y2115000D03*
X906400Y2115000D03*
X911400Y2115000D03*
X916400Y2115000D03*
X921400Y2115000D03*
X926400Y2115000D03*
X931400Y2115000D03*
X936400Y2115000D03*
X941400Y2115000D03*
X946400Y2115000D03*
X951400Y2115000D03*
X956400Y2115000D03*
X961400Y2115000D03*
X966400Y2115000D03*
X971400Y2115000D03*
X976400Y2115000D03*
X981400Y2115000D03*
X986400Y2115000D03*
D33*
X871400Y2124000D03*
X1016400Y2124000D03*
X1022400Y2173000D03*
X865400Y2173000D03*
D34*
X774500Y1227500D03*
D35*
X784500Y1247500D03*
X794500Y1227500D03*
X804500Y1247500D03*
X814500Y1227500D03*
X824500Y1247500D03*
X834500Y1227500D03*
X844500Y1247500D03*
X854500Y1227500D03*
X864500Y1247500D03*
X874500Y1227500D03*
X904500Y1247500D03*
X914500Y1227500D03*
X924500Y1247500D03*
X934500Y1227500D03*
X944500Y1247500D03*
X954500Y1227500D03*
X964500Y1247500D03*
D34*
X774500Y1202500D03*
D35*
X784500Y1182500D03*
X794500Y1202500D03*
X804500Y1182500D03*
X814500Y1202500D03*
X824500Y1182500D03*
X834500Y1202500D03*
X844500Y1182500D03*
X854500Y1202500D03*
X864500Y1182500D03*
X874500Y1202500D03*
X904500Y1182500D03*
X914500Y1202500D03*
X924500Y1182500D03*
X934500Y1202500D03*
X944500Y1182500D03*
X954500Y1202500D03*
X964500Y1182500D03*
D36*
X891000Y1215000D03*
X982500Y1215000D03*
D37*
X436900Y1718600D03*
X436900Y1744000D03*
X462300Y1718600D03*
X462300Y1744000D03*
X487700Y1718600D03*
X487700Y1744000D03*
X513100Y1718600D03*
X513100Y1744000D03*
X538500Y1718600D03*
X538500Y1744000D03*
D38*
X960750Y812700D03*
X919250Y812700D03*
X782750Y521700D03*
X741250Y521700D03*
D39*
X816400Y215350D03*
X816400Y256850D03*
D40*
X200600Y973700D03*
X215600Y973700D03*
X201600Y1009500D03*
X216600Y1009500D03*
D41*
X1000300Y809275D03*
X1000300Y799125D03*
X831300Y543775D03*
X831300Y533625D03*
X1029700Y756725D03*
X1029700Y766875D03*
X1029500Y733325D03*
X1029500Y743475D03*
X862500Y498825D03*
X862500Y508975D03*
X864500Y467325D03*
X864500Y477475D03*
D42*
X623475Y882500D03*
X613325Y882500D03*
X438275Y991900D03*
X428125Y991900D03*
X383075Y1011500D03*
X372925Y1011500D03*
D41*
X1238500Y353525D03*
X1238500Y363675D03*
D42*
X1210725Y391500D03*
X1220875Y391500D03*
X556575Y1851700D03*
X546425Y1851700D03*
X556675Y1833500D03*
X546525Y1833500D03*
X556475Y1815500D03*
X546325Y1815500D03*
D41*
X632500Y1959925D03*
X632500Y1970075D03*
D42*
X460125Y1995500D03*
X470275Y1995500D03*
D41*
X398500Y1926275D03*
X398500Y1916125D03*
X499500Y1982075D03*
X499500Y1971925D03*
D42*
X314675Y285500D03*
X304525Y285500D03*
X807175Y162500D03*
X797025Y162500D03*
X773925Y148500D03*
X784075Y148500D03*
X739325Y124500D03*
X749475Y124500D03*
X198075Y1691000D03*
X187925Y1691000D03*
X200525Y1099000D03*
X210675Y1099000D03*
X217725Y1361000D03*
X227875Y1361000D03*
X137925Y1342000D03*
X148075Y1342000D03*
X1256125Y2044000D03*
X1266275Y2044000D03*
D41*
X1198000Y154025D03*
X1198000Y164175D03*
D43*
X288775Y1227000D03*
X288775Y1232000D03*
X288775Y1242000D03*
X288775Y1247000D03*
X280425Y1227000D03*
X280425Y1232000D03*
X280425Y1242000D03*
X280425Y1247000D03*
D44*
X288775Y1237000D03*
X280425Y1237000D03*
D45*
X1180745Y386505D02*
X1191655Y386505D01*
X1191655Y383495D01*
X1180745Y383495D01*
X1180745Y386505D01*
X1180745Y385401D02*
X1191655Y385401D01*
X1191655Y393005D02*
X1180745Y393005D01*
X1191655Y393005D02*
X1191655Y389995D01*
X1180745Y389995D01*
X1180745Y393005D01*
X1180745Y391901D02*
X1191655Y391901D01*
X1191655Y399505D02*
X1180745Y399505D01*
X1191655Y399505D02*
X1191655Y396495D01*
X1180745Y396495D01*
X1180745Y399505D01*
X1180745Y398401D02*
X1191655Y398401D01*
X1172455Y399505D02*
X1161545Y399505D01*
X1172455Y399505D02*
X1172455Y396495D01*
X1161545Y396495D01*
X1161545Y399505D01*
X1161545Y398401D02*
X1172455Y398401D01*
X1172455Y386505D02*
X1161545Y386505D01*
X1172455Y386505D02*
X1172455Y383495D01*
X1161545Y383495D01*
X1161545Y386505D01*
X1161545Y385401D02*
X1172455Y385401D01*
D43*
X257425Y2000500D03*
X257425Y1995500D03*
X257425Y1985500D03*
X257425Y1980500D03*
X265775Y2000500D03*
X265775Y1995500D03*
X265775Y1985500D03*
X265775Y1980500D03*
D44*
X257425Y1990500D03*
X265775Y1990500D03*
D46*
X441262Y1845212D02*
X441262Y1842788D01*
X430438Y1842788D01*
X430438Y1845212D01*
X441262Y1845212D01*
X441262Y1843921D02*
X430438Y1843921D01*
X430438Y1845054D02*
X441262Y1845054D01*
X441262Y1840212D02*
X441262Y1837788D01*
X430438Y1837788D01*
X430438Y1840212D01*
X441262Y1840212D01*
X441262Y1838921D02*
X430438Y1838921D01*
X430438Y1840054D02*
X441262Y1840054D01*
X441262Y1835212D02*
X441262Y1832788D01*
X430438Y1832788D01*
X430438Y1835212D01*
X441262Y1835212D01*
X441262Y1833921D02*
X430438Y1833921D01*
X430438Y1835054D02*
X441262Y1835054D01*
X441262Y1830212D02*
X441262Y1827788D01*
X430438Y1827788D01*
X430438Y1830212D01*
X441262Y1830212D01*
X441262Y1828921D02*
X430438Y1828921D01*
X430438Y1830054D02*
X441262Y1830054D01*
X441262Y1825212D02*
X441262Y1822788D01*
X430438Y1822788D01*
X430438Y1825212D01*
X441262Y1825212D01*
X441262Y1823921D02*
X430438Y1823921D01*
X430438Y1825054D02*
X441262Y1825054D01*
X441262Y1820212D02*
X441262Y1817788D01*
X430438Y1817788D01*
X430438Y1820212D01*
X441262Y1820212D01*
X441262Y1818921D02*
X430438Y1818921D01*
X430438Y1820054D02*
X441262Y1820054D01*
X441262Y1815212D02*
X441262Y1812788D01*
X430438Y1812788D01*
X430438Y1815212D01*
X441262Y1815212D01*
X441262Y1813921D02*
X430438Y1813921D01*
X430438Y1815054D02*
X441262Y1815054D01*
X441262Y1810212D02*
X441262Y1807788D01*
X430438Y1807788D01*
X430438Y1810212D01*
X441262Y1810212D01*
X441262Y1808921D02*
X430438Y1808921D01*
X430438Y1810054D02*
X441262Y1810054D01*
X441262Y1805212D02*
X441262Y1802788D01*
X430438Y1802788D01*
X430438Y1805212D01*
X441262Y1805212D01*
X441262Y1803921D02*
X430438Y1803921D01*
X430438Y1805054D02*
X441262Y1805054D01*
X442788Y1801262D02*
X445212Y1801262D01*
X445212Y1790438D01*
X442788Y1790438D01*
X442788Y1801262D01*
X442788Y1791571D02*
X445212Y1791571D01*
X445212Y1792704D02*
X442788Y1792704D01*
X442788Y1793837D02*
X445212Y1793837D01*
X445212Y1794970D02*
X442788Y1794970D01*
X442788Y1796103D02*
X445212Y1796103D01*
X445212Y1797236D02*
X442788Y1797236D01*
X442788Y1798369D02*
X445212Y1798369D01*
X445212Y1799502D02*
X442788Y1799502D01*
X442788Y1800635D02*
X445212Y1800635D01*
X447788Y1801262D02*
X450212Y1801262D01*
X450212Y1790438D01*
X447788Y1790438D01*
X447788Y1801262D01*
X447788Y1791571D02*
X450212Y1791571D01*
X450212Y1792704D02*
X447788Y1792704D01*
X447788Y1793837D02*
X450212Y1793837D01*
X450212Y1794970D02*
X447788Y1794970D01*
X447788Y1796103D02*
X450212Y1796103D01*
X450212Y1797236D02*
X447788Y1797236D01*
X447788Y1798369D02*
X450212Y1798369D01*
X450212Y1799502D02*
X447788Y1799502D01*
X447788Y1800635D02*
X450212Y1800635D01*
X452788Y1801262D02*
X455212Y1801262D01*
X455212Y1790438D01*
X452788Y1790438D01*
X452788Y1801262D01*
X452788Y1791571D02*
X455212Y1791571D01*
X455212Y1792704D02*
X452788Y1792704D01*
X452788Y1793837D02*
X455212Y1793837D01*
X455212Y1794970D02*
X452788Y1794970D01*
X452788Y1796103D02*
X455212Y1796103D01*
X455212Y1797236D02*
X452788Y1797236D01*
X452788Y1798369D02*
X455212Y1798369D01*
X455212Y1799502D02*
X452788Y1799502D01*
X452788Y1800635D02*
X455212Y1800635D01*
X457788Y1801262D02*
X460212Y1801262D01*
X460212Y1790438D01*
X457788Y1790438D01*
X457788Y1801262D01*
X457788Y1791571D02*
X460212Y1791571D01*
X460212Y1792704D02*
X457788Y1792704D01*
X457788Y1793837D02*
X460212Y1793837D01*
X460212Y1794970D02*
X457788Y1794970D01*
X457788Y1796103D02*
X460212Y1796103D01*
X460212Y1797236D02*
X457788Y1797236D01*
X457788Y1798369D02*
X460212Y1798369D01*
X460212Y1799502D02*
X457788Y1799502D01*
X457788Y1800635D02*
X460212Y1800635D01*
X462788Y1801262D02*
X465212Y1801262D01*
X465212Y1790438D01*
X462788Y1790438D01*
X462788Y1801262D01*
X462788Y1791571D02*
X465212Y1791571D01*
X465212Y1792704D02*
X462788Y1792704D01*
X462788Y1793837D02*
X465212Y1793837D01*
X465212Y1794970D02*
X462788Y1794970D01*
X462788Y1796103D02*
X465212Y1796103D01*
X465212Y1797236D02*
X462788Y1797236D01*
X462788Y1798369D02*
X465212Y1798369D01*
X465212Y1799502D02*
X462788Y1799502D01*
X462788Y1800635D02*
X465212Y1800635D01*
X467788Y1801262D02*
X470212Y1801262D01*
X470212Y1790438D01*
X467788Y1790438D01*
X467788Y1801262D01*
X467788Y1791571D02*
X470212Y1791571D01*
X470212Y1792704D02*
X467788Y1792704D01*
X467788Y1793837D02*
X470212Y1793837D01*
X470212Y1794970D02*
X467788Y1794970D01*
X467788Y1796103D02*
X470212Y1796103D01*
X470212Y1797236D02*
X467788Y1797236D01*
X467788Y1798369D02*
X470212Y1798369D01*
X470212Y1799502D02*
X467788Y1799502D01*
X467788Y1800635D02*
X470212Y1800635D01*
X472788Y1801262D02*
X475212Y1801262D01*
X475212Y1790438D01*
X472788Y1790438D01*
X472788Y1801262D01*
X472788Y1791571D02*
X475212Y1791571D01*
X475212Y1792704D02*
X472788Y1792704D01*
X472788Y1793837D02*
X475212Y1793837D01*
X475212Y1794970D02*
X472788Y1794970D01*
X472788Y1796103D02*
X475212Y1796103D01*
X475212Y1797236D02*
X472788Y1797236D01*
X472788Y1798369D02*
X475212Y1798369D01*
X475212Y1799502D02*
X472788Y1799502D01*
X472788Y1800635D02*
X475212Y1800635D01*
X477788Y1801262D02*
X480212Y1801262D01*
X480212Y1790438D01*
X477788Y1790438D01*
X477788Y1801262D01*
X477788Y1791571D02*
X480212Y1791571D01*
X480212Y1792704D02*
X477788Y1792704D01*
X477788Y1793837D02*
X480212Y1793837D01*
X480212Y1794970D02*
X477788Y1794970D01*
X477788Y1796103D02*
X480212Y1796103D01*
X480212Y1797236D02*
X477788Y1797236D01*
X477788Y1798369D02*
X480212Y1798369D01*
X480212Y1799502D02*
X477788Y1799502D01*
X477788Y1800635D02*
X480212Y1800635D01*
X482788Y1801262D02*
X485212Y1801262D01*
X485212Y1790438D01*
X482788Y1790438D01*
X482788Y1801262D01*
X482788Y1791571D02*
X485212Y1791571D01*
X485212Y1792704D02*
X482788Y1792704D01*
X482788Y1793837D02*
X485212Y1793837D01*
X485212Y1794970D02*
X482788Y1794970D01*
X482788Y1796103D02*
X485212Y1796103D01*
X485212Y1797236D02*
X482788Y1797236D01*
X482788Y1798369D02*
X485212Y1798369D01*
X485212Y1799502D02*
X482788Y1799502D01*
X482788Y1800635D02*
X485212Y1800635D01*
X486738Y1802788D02*
X486738Y1805212D01*
X497562Y1805212D01*
X497562Y1802788D01*
X486738Y1802788D01*
X486738Y1803921D02*
X497562Y1803921D01*
X497562Y1805054D02*
X486738Y1805054D01*
X486738Y1807788D02*
X486738Y1810212D01*
X497562Y1810212D01*
X497562Y1807788D01*
X486738Y1807788D01*
X486738Y1808921D02*
X497562Y1808921D01*
X497562Y1810054D02*
X486738Y1810054D01*
X486738Y1812788D02*
X486738Y1815212D01*
X497562Y1815212D01*
X497562Y1812788D01*
X486738Y1812788D01*
X486738Y1813921D02*
X497562Y1813921D01*
X497562Y1815054D02*
X486738Y1815054D01*
X486738Y1817788D02*
X486738Y1820212D01*
X497562Y1820212D01*
X497562Y1817788D01*
X486738Y1817788D01*
X486738Y1818921D02*
X497562Y1818921D01*
X497562Y1820054D02*
X486738Y1820054D01*
X486738Y1822788D02*
X486738Y1825212D01*
X497562Y1825212D01*
X497562Y1822788D01*
X486738Y1822788D01*
X486738Y1823921D02*
X497562Y1823921D01*
X497562Y1825054D02*
X486738Y1825054D01*
X486738Y1827788D02*
X486738Y1830212D01*
X497562Y1830212D01*
X497562Y1827788D01*
X486738Y1827788D01*
X486738Y1828921D02*
X497562Y1828921D01*
X497562Y1830054D02*
X486738Y1830054D01*
X486738Y1832788D02*
X486738Y1835212D01*
X497562Y1835212D01*
X497562Y1832788D01*
X486738Y1832788D01*
X486738Y1833921D02*
X497562Y1833921D01*
X497562Y1835054D02*
X486738Y1835054D01*
X486738Y1837788D02*
X486738Y1840212D01*
X497562Y1840212D01*
X497562Y1837788D01*
X486738Y1837788D01*
X486738Y1838921D02*
X497562Y1838921D01*
X497562Y1840054D02*
X486738Y1840054D01*
X486738Y1842788D02*
X486738Y1845212D01*
X497562Y1845212D01*
X497562Y1842788D01*
X486738Y1842788D01*
X486738Y1843921D02*
X497562Y1843921D01*
X497562Y1845054D02*
X486738Y1845054D01*
X485212Y1846738D02*
X482788Y1846738D01*
X482788Y1857562D01*
X485212Y1857562D01*
X485212Y1846738D01*
X485212Y1847871D02*
X482788Y1847871D01*
X482788Y1849004D02*
X485212Y1849004D01*
X485212Y1850137D02*
X482788Y1850137D01*
X482788Y1851270D02*
X485212Y1851270D01*
X485212Y1852403D02*
X482788Y1852403D01*
X482788Y1853536D02*
X485212Y1853536D01*
X485212Y1854669D02*
X482788Y1854669D01*
X482788Y1855802D02*
X485212Y1855802D01*
X485212Y1856935D02*
X482788Y1856935D01*
X480212Y1846738D02*
X477788Y1846738D01*
X477788Y1857562D01*
X480212Y1857562D01*
X480212Y1846738D01*
X480212Y1847871D02*
X477788Y1847871D01*
X477788Y1849004D02*
X480212Y1849004D01*
X480212Y1850137D02*
X477788Y1850137D01*
X477788Y1851270D02*
X480212Y1851270D01*
X480212Y1852403D02*
X477788Y1852403D01*
X477788Y1853536D02*
X480212Y1853536D01*
X480212Y1854669D02*
X477788Y1854669D01*
X477788Y1855802D02*
X480212Y1855802D01*
X480212Y1856935D02*
X477788Y1856935D01*
X475212Y1846738D02*
X472788Y1846738D01*
X472788Y1857562D01*
X475212Y1857562D01*
X475212Y1846738D01*
X475212Y1847871D02*
X472788Y1847871D01*
X472788Y1849004D02*
X475212Y1849004D01*
X475212Y1850137D02*
X472788Y1850137D01*
X472788Y1851270D02*
X475212Y1851270D01*
X475212Y1852403D02*
X472788Y1852403D01*
X472788Y1853536D02*
X475212Y1853536D01*
X475212Y1854669D02*
X472788Y1854669D01*
X472788Y1855802D02*
X475212Y1855802D01*
X475212Y1856935D02*
X472788Y1856935D01*
X470212Y1846738D02*
X467788Y1846738D01*
X467788Y1857562D01*
X470212Y1857562D01*
X470212Y1846738D01*
X470212Y1847871D02*
X467788Y1847871D01*
X467788Y1849004D02*
X470212Y1849004D01*
X470212Y1850137D02*
X467788Y1850137D01*
X467788Y1851270D02*
X470212Y1851270D01*
X470212Y1852403D02*
X467788Y1852403D01*
X467788Y1853536D02*
X470212Y1853536D01*
X470212Y1854669D02*
X467788Y1854669D01*
X467788Y1855802D02*
X470212Y1855802D01*
X470212Y1856935D02*
X467788Y1856935D01*
X465212Y1846738D02*
X462788Y1846738D01*
X462788Y1857562D01*
X465212Y1857562D01*
X465212Y1846738D01*
X465212Y1847871D02*
X462788Y1847871D01*
X462788Y1849004D02*
X465212Y1849004D01*
X465212Y1850137D02*
X462788Y1850137D01*
X462788Y1851270D02*
X465212Y1851270D01*
X465212Y1852403D02*
X462788Y1852403D01*
X462788Y1853536D02*
X465212Y1853536D01*
X465212Y1854669D02*
X462788Y1854669D01*
X462788Y1855802D02*
X465212Y1855802D01*
X465212Y1856935D02*
X462788Y1856935D01*
X460212Y1846738D02*
X457788Y1846738D01*
X457788Y1857562D01*
X460212Y1857562D01*
X460212Y1846738D01*
X460212Y1847871D02*
X457788Y1847871D01*
X457788Y1849004D02*
X460212Y1849004D01*
X460212Y1850137D02*
X457788Y1850137D01*
X457788Y1851270D02*
X460212Y1851270D01*
X460212Y1852403D02*
X457788Y1852403D01*
X457788Y1853536D02*
X460212Y1853536D01*
X460212Y1854669D02*
X457788Y1854669D01*
X457788Y1855802D02*
X460212Y1855802D01*
X460212Y1856935D02*
X457788Y1856935D01*
X455212Y1846738D02*
X452788Y1846738D01*
X452788Y1857562D01*
X455212Y1857562D01*
X455212Y1846738D01*
X455212Y1847871D02*
X452788Y1847871D01*
X452788Y1849004D02*
X455212Y1849004D01*
X455212Y1850137D02*
X452788Y1850137D01*
X452788Y1851270D02*
X455212Y1851270D01*
X455212Y1852403D02*
X452788Y1852403D01*
X452788Y1853536D02*
X455212Y1853536D01*
X455212Y1854669D02*
X452788Y1854669D01*
X452788Y1855802D02*
X455212Y1855802D01*
X455212Y1856935D02*
X452788Y1856935D01*
X450212Y1846738D02*
X447788Y1846738D01*
X447788Y1857562D01*
X450212Y1857562D01*
X450212Y1846738D01*
X450212Y1847871D02*
X447788Y1847871D01*
X447788Y1849004D02*
X450212Y1849004D01*
X450212Y1850137D02*
X447788Y1850137D01*
X447788Y1851270D02*
X450212Y1851270D01*
X450212Y1852403D02*
X447788Y1852403D01*
X447788Y1853536D02*
X450212Y1853536D01*
X450212Y1854669D02*
X447788Y1854669D01*
X447788Y1855802D02*
X450212Y1855802D01*
X450212Y1856935D02*
X447788Y1856935D01*
X445212Y1846738D02*
X442788Y1846738D01*
X442788Y1857562D01*
X445212Y1857562D01*
X445212Y1846738D01*
X445212Y1847871D02*
X442788Y1847871D01*
X442788Y1849004D02*
X445212Y1849004D01*
X445212Y1850137D02*
X442788Y1850137D01*
X442788Y1851270D02*
X445212Y1851270D01*
X445212Y1852403D02*
X442788Y1852403D01*
X442788Y1853536D02*
X445212Y1853536D01*
X445212Y1854669D02*
X442788Y1854669D01*
X442788Y1855802D02*
X445212Y1855802D01*
X445212Y1856935D02*
X442788Y1856935D01*
D47*
X464000Y1824000D03*
D48*
X403900Y2000700D03*
X403900Y2004700D03*
D49*
X401400Y2011200D03*
X397400Y2011200D03*
X393400Y2011200D03*
D48*
X390900Y2004700D03*
X390900Y2000700D03*
D49*
X393400Y1994200D03*
X397400Y1994200D03*
X401400Y1994200D03*
D50*
X696654Y189650D03*
X696654Y176950D03*
X696654Y164250D03*
X696654Y151550D03*
X749146Y151550D03*
X749146Y164250D03*
X749146Y176950D03*
X749146Y189650D03*
D51*
X722900Y170600D03*
D52*
X378900Y1413600D03*
X378900Y1404100D03*
X378900Y1394600D03*
X403900Y1394600D03*
X403900Y1404100D03*
X403900Y1413600D03*
D43*
X269775Y1539500D03*
X269775Y1544500D03*
X269775Y1554500D03*
X269775Y1559500D03*
X261425Y1539500D03*
X261425Y1544500D03*
X261425Y1554500D03*
X261425Y1559500D03*
D44*
X269775Y1549500D03*
X261425Y1549500D03*
D43*
X269775Y1495500D03*
X269775Y1500500D03*
X269775Y1510500D03*
X269775Y1515500D03*
X261425Y1495500D03*
X261425Y1500500D03*
X261425Y1510500D03*
X261425Y1515500D03*
D44*
X269775Y1505500D03*
X261425Y1505500D03*
D43*
X288775Y1178500D03*
X288775Y1183500D03*
X288775Y1193500D03*
X288775Y1198500D03*
X280425Y1178500D03*
X280425Y1183500D03*
X280425Y1193500D03*
X280425Y1198500D03*
D44*
X288775Y1188500D03*
X280425Y1188500D03*
D45*
X1289505Y401455D02*
X1289505Y390545D01*
X1286495Y390545D01*
X1286495Y401455D01*
X1289505Y401455D01*
X1289505Y392451D02*
X1286495Y392451D01*
X1286495Y394357D02*
X1289505Y394357D01*
X1289505Y396263D02*
X1286495Y396263D01*
X1286495Y398169D02*
X1289505Y398169D01*
X1289505Y400075D02*
X1286495Y400075D01*
X1296005Y401455D02*
X1296005Y390545D01*
X1292995Y390545D01*
X1292995Y401455D01*
X1296005Y401455D01*
X1296005Y392451D02*
X1292995Y392451D01*
X1292995Y394357D02*
X1296005Y394357D01*
X1296005Y396263D02*
X1292995Y396263D01*
X1292995Y398169D02*
X1296005Y398169D01*
X1296005Y400075D02*
X1292995Y400075D01*
X1302505Y401455D02*
X1302505Y390545D01*
X1299495Y390545D01*
X1299495Y401455D01*
X1302505Y401455D01*
X1302505Y392451D02*
X1299495Y392451D01*
X1299495Y394357D02*
X1302505Y394357D01*
X1302505Y396263D02*
X1299495Y396263D01*
X1299495Y398169D02*
X1302505Y398169D01*
X1302505Y400075D02*
X1299495Y400075D01*
X1302505Y409745D02*
X1302505Y420655D01*
X1302505Y409745D02*
X1299495Y409745D01*
X1299495Y420655D01*
X1302505Y420655D01*
X1302505Y411651D02*
X1299495Y411651D01*
X1299495Y413557D02*
X1302505Y413557D01*
X1302505Y415463D02*
X1299495Y415463D01*
X1299495Y417369D02*
X1302505Y417369D01*
X1302505Y419275D02*
X1299495Y419275D01*
X1289505Y420655D02*
X1289505Y409745D01*
X1286495Y409745D01*
X1286495Y420655D01*
X1289505Y420655D01*
X1289505Y411651D02*
X1286495Y411651D01*
X1286495Y413557D02*
X1289505Y413557D01*
X1289505Y415463D02*
X1286495Y415463D01*
X1286495Y417369D02*
X1289505Y417369D01*
X1289505Y419275D02*
X1286495Y419275D01*
D53*
X1134300Y163100D03*
X1134300Y158100D03*
X1134300Y153100D03*
X1134300Y148100D03*
X1134300Y143100D03*
X1164300Y143100D03*
X1164300Y148100D03*
X1164300Y153100D03*
X1164300Y158100D03*
X1164300Y163100D03*
D54*
X1149300Y153100D03*
D55*
X974350Y692654D03*
X987050Y692654D03*
X999750Y692654D03*
X1012450Y692654D03*
X1012450Y745146D03*
X999750Y745146D03*
X987050Y745146D03*
X974350Y745146D03*
D56*
X993400Y718900D03*
D55*
X807350Y427154D03*
X820050Y427154D03*
X832750Y427154D03*
X845450Y427154D03*
X845450Y479646D03*
X832750Y479646D03*
X820050Y479646D03*
X807350Y479646D03*
D56*
X826400Y453400D03*
D57*
X565245Y837755D02*
X565245Y849745D01*
X565245Y837755D02*
X560755Y837755D01*
X560755Y849745D01*
X565245Y849745D01*
X565245Y840155D02*
X560755Y840155D01*
X560755Y842555D02*
X565245Y842555D01*
X565245Y844955D02*
X560755Y844955D01*
X560755Y847355D02*
X565245Y847355D01*
X574745Y849745D02*
X574745Y837755D01*
X570255Y837755D01*
X570255Y849745D01*
X574745Y849745D01*
X574745Y840155D02*
X570255Y840155D01*
X570255Y842555D02*
X574745Y842555D01*
X574745Y844955D02*
X570255Y844955D01*
X570255Y847355D02*
X574745Y847355D01*
X584245Y849745D02*
X584245Y837755D01*
X579755Y837755D01*
X579755Y849745D01*
X584245Y849745D01*
X584245Y840155D02*
X579755Y840155D01*
X579755Y842555D02*
X584245Y842555D01*
X584245Y844955D02*
X579755Y844955D01*
X579755Y847355D02*
X584245Y847355D01*
X584245Y861455D02*
X584245Y873445D01*
X584245Y861455D02*
X579755Y861455D01*
X579755Y873445D01*
X584245Y873445D01*
X584245Y863855D02*
X579755Y863855D01*
X579755Y866255D02*
X584245Y866255D01*
X584245Y868655D02*
X579755Y868655D01*
X579755Y871055D02*
X584245Y871055D01*
X574745Y873445D02*
X574745Y861455D01*
X570255Y861455D01*
X570255Y873445D01*
X574745Y873445D01*
X574745Y863855D02*
X570255Y863855D01*
X570255Y866255D02*
X574745Y866255D01*
X574745Y868655D02*
X570255Y868655D01*
X570255Y871055D02*
X574745Y871055D01*
X565245Y873445D02*
X565245Y861455D01*
X560755Y861455D01*
X560755Y873445D01*
X565245Y873445D01*
X565245Y863855D02*
X560755Y863855D01*
X560755Y866255D02*
X565245Y866255D01*
X565245Y868655D02*
X560755Y868655D01*
X560755Y871055D02*
X565245Y871055D01*
D58*
X471726Y1902574D02*
X471726Y1908426D01*
X471726Y1902574D02*
X467074Y1902574D01*
X467074Y1908426D01*
X471726Y1908426D01*
X471726Y1924574D02*
X471726Y1930426D01*
X471726Y1924574D02*
X467074Y1924574D01*
X467074Y1930426D01*
X471726Y1930426D01*
X454726Y1930426D02*
X454726Y1924574D01*
X450074Y1924574D01*
X450074Y1930426D01*
X454726Y1930426D01*
X454726Y1908426D02*
X454726Y1902574D01*
X450074Y1902574D01*
X450074Y1908426D01*
X454726Y1908426D01*
D59*
X373100Y1628700D03*
X373100Y1606700D03*
X390100Y1606700D03*
X390100Y1628700D03*
D55*
X285950Y683754D03*
X298650Y683754D03*
X311350Y683754D03*
X324050Y683754D03*
X324050Y736246D03*
X311350Y736246D03*
X298650Y736246D03*
X285950Y736246D03*
D56*
X305000Y710000D03*
D14*
X367000Y881846D03*
X367000Y872154D03*
X346000Y881846D03*
X346000Y872154D03*
X323000Y881846D03*
X323000Y872154D03*
X296000Y881846D03*
X296000Y872154D03*
X380000Y845846D03*
X380000Y836154D03*
X296000Y836154D03*
X296000Y845846D03*
D41*
X311000Y803075D03*
X311000Y792925D03*
D14*
X263000Y715846D03*
X263000Y706154D03*
X324000Y656846D03*
X324000Y647154D03*
D12*
X298000Y660754D03*
X298000Y643246D03*
D41*
X324000Y846075D03*
X324000Y835925D03*
D22*
X158000Y882020D03*
X102120Y849000D03*
X158000Y815980D03*
D60*
X80000Y2120000D03*
X80000Y80000D03*
X1620000Y80000D03*
X1620000Y2120000D03*
X850000Y1600000D03*
X850000Y700000D03*
D43*
X256425Y1949000D03*
X256425Y1944000D03*
X256425Y1934000D03*
X256425Y1929000D03*
X264775Y1949000D03*
X264775Y1944000D03*
X264775Y1934000D03*
X264775Y1929000D03*
D44*
X256425Y1939000D03*
X264775Y1939000D03*
D40*
X202588Y947178D03*
X217588Y947178D03*
D42*
X264421Y945768D03*
X254271Y945768D03*
D61*
X632000Y2015750D03*
X625500Y2015750D03*
X619000Y2015750D03*
X612500Y2015750D03*
X606000Y2015750D03*
D62*
X659000Y2042500D03*
X579000Y2042500D03*
D63*
X650000Y2017000D03*
X588000Y2017000D03*
D64*
X631000Y2042500D03*
X607000Y2042500D03*
D28*
X1153600Y295620D02*
X1153600Y280380D01*
X1179000Y280380D02*
X1179000Y295620D01*
X1204400Y295620D02*
X1204400Y280380D01*
D40*
X200500Y1048000D03*
X215500Y1048000D03*
D42*
X240075Y1048000D03*
X229925Y1048000D03*
D65*
X994000Y126000D03*
D66*
X994000Y151400D03*
X994000Y176800D03*
X1019400Y126000D03*
X1019400Y151400D03*
X1019400Y176800D03*
X1044800Y126000D03*
X1044800Y151400D03*
X1044800Y176800D03*
D67*
X291500Y266250D03*
X291500Y272750D03*
X291500Y279250D03*
X291500Y285750D03*
D68*
X262750Y285750D03*
X262750Y279250D03*
X262750Y272750D03*
X262750Y266250D03*
D69*
X274750Y276000D03*
D70*
X1129000Y1513600D03*
X1129000Y1544400D03*
X1133000Y1513600D03*
X1133000Y1544400D03*
X1137000Y1513600D03*
X1137000Y1544400D03*
X1141000Y1513600D03*
X1141000Y1544400D03*
X1145000Y1513600D03*
X1145000Y1544400D03*
X1149000Y1513600D03*
X1149000Y1544400D03*
X1153000Y1513600D03*
X1153000Y1544400D03*
X1157000Y1513600D03*
X1157000Y1544400D03*
X1161000Y1513600D03*
X1161000Y1544400D03*
X1165000Y1513600D03*
X1165000Y1544400D03*
X1169000Y1513600D03*
X1169000Y1544400D03*
X1173000Y1513600D03*
X1173000Y1544400D03*
X1177000Y1513600D03*
X1177000Y1544400D03*
X1181000Y1513600D03*
X1181000Y1544400D03*
X1185000Y1513600D03*
X1185000Y1544400D03*
X1189000Y1513600D03*
X1189000Y1544400D03*
X1193000Y1513600D03*
X1193000Y1544400D03*
X1197000Y1513600D03*
X1197000Y1544400D03*
X1201000Y1513600D03*
X1201000Y1544400D03*
X1205000Y1513600D03*
X1205000Y1544400D03*
X1209000Y1513600D03*
X1209000Y1544400D03*
X1213000Y1513600D03*
X1213000Y1544400D03*
X1217000Y1513600D03*
X1217000Y1544400D03*
X1221000Y1513600D03*
X1221000Y1544400D03*
X1225000Y1513600D03*
X1225000Y1544400D03*
X1229000Y1513600D03*
X1229000Y1544400D03*
X1233000Y1513600D03*
X1233000Y1544400D03*
X1237000Y1513600D03*
X1237000Y1544400D03*
X1241000Y1513600D03*
X1241000Y1544400D03*
X1245000Y1513600D03*
X1245000Y1544400D03*
X1249000Y1513600D03*
X1249000Y1544400D03*
X1253000Y1513600D03*
X1253000Y1544400D03*
X1257000Y1513600D03*
X1257000Y1544400D03*
X1261000Y1513600D03*
X1261000Y1544400D03*
X1265000Y1513600D03*
X1265000Y1544400D03*
X1269000Y1513600D03*
X1269000Y1544400D03*
X1273000Y1513600D03*
X1273000Y1544400D03*
X1277000Y1513600D03*
X1277000Y1544400D03*
X1281000Y1513600D03*
X1281000Y1544400D03*
X1285000Y1513600D03*
X1285000Y1544400D03*
X1289000Y1513600D03*
X1289000Y1544400D03*
X1293000Y1513600D03*
X1293000Y1544400D03*
X1297000Y1513600D03*
X1297000Y1544400D03*
X1301000Y1513600D03*
X1301000Y1544400D03*
X1305000Y1513600D03*
X1305000Y1544400D03*
X1309000Y1513600D03*
X1309000Y1544400D03*
X1313000Y1513600D03*
X1313000Y1544400D03*
X1317000Y1513600D03*
X1317000Y1544400D03*
X1321000Y1513600D03*
X1321000Y1544400D03*
X1325000Y1513600D03*
X1325000Y1544400D03*
X1129000Y1853600D03*
X1129000Y1884400D03*
X1133000Y1853600D03*
X1133000Y1884400D03*
X1137000Y1853600D03*
X1137000Y1884400D03*
X1141000Y1853600D03*
X1141000Y1884400D03*
X1145000Y1853600D03*
X1145000Y1884400D03*
X1149000Y1853600D03*
X1149000Y1884400D03*
X1153000Y1853600D03*
X1153000Y1884400D03*
X1157000Y1853600D03*
X1157000Y1884400D03*
X1161000Y1853600D03*
X1161000Y1884400D03*
X1165000Y1853600D03*
X1165000Y1884400D03*
X1169000Y1853600D03*
X1169000Y1884400D03*
X1173000Y1853600D03*
X1173000Y1884400D03*
X1177000Y1853600D03*
X1177000Y1884400D03*
X1181000Y1853600D03*
X1181000Y1884400D03*
X1185000Y1853600D03*
X1185000Y1884400D03*
X1189000Y1853600D03*
X1189000Y1884400D03*
X1193000Y1853600D03*
X1193000Y1884400D03*
X1197000Y1853600D03*
X1197000Y1884400D03*
X1201000Y1853600D03*
X1201000Y1884400D03*
X1205000Y1853600D03*
X1205000Y1884400D03*
X1209000Y1853600D03*
X1209000Y1884400D03*
X1213000Y1853600D03*
X1213000Y1884400D03*
X1217000Y1853600D03*
X1217000Y1884400D03*
X1221000Y1853600D03*
X1221000Y1884400D03*
X1225000Y1853600D03*
X1225000Y1884400D03*
X1229000Y1853600D03*
X1229000Y1884400D03*
X1233000Y1853600D03*
X1233000Y1884400D03*
X1237000Y1853600D03*
X1237000Y1884400D03*
X1241000Y1853600D03*
X1241000Y1884400D03*
X1245000Y1853600D03*
X1245000Y1884400D03*
X1249000Y1853600D03*
X1249000Y1884400D03*
X1253000Y1853600D03*
X1253000Y1884400D03*
X1257000Y1853600D03*
X1257000Y1884400D03*
X1261000Y1853600D03*
X1261000Y1884400D03*
X1265000Y1853600D03*
X1265000Y1884400D03*
X1269000Y1853600D03*
X1269000Y1884400D03*
X1273000Y1853600D03*
X1273000Y1884400D03*
X1277000Y1853600D03*
X1277000Y1884400D03*
X1281000Y1853600D03*
X1281000Y1884400D03*
X1285000Y1853600D03*
X1285000Y1884400D03*
X1289000Y1853600D03*
X1289000Y1884400D03*
X1293000Y1853600D03*
X1293000Y1884400D03*
X1297000Y1853600D03*
X1297000Y1884400D03*
X1301000Y1853600D03*
X1301000Y1884400D03*
X1305000Y1853600D03*
X1305000Y1884400D03*
X1309000Y1853600D03*
X1309000Y1884400D03*
X1313000Y1853600D03*
X1313000Y1884400D03*
X1317000Y1853600D03*
X1317000Y1884400D03*
X1321000Y1853600D03*
X1321000Y1884400D03*
X1325000Y1853600D03*
X1325000Y1884400D03*
D71*
X1442000Y1864000D03*
X1442000Y1534000D03*
X962000Y1534000D03*
X962000Y1864000D03*
D72*
X1087250Y336250D03*
X1087250Y342750D03*
X1087250Y349250D03*
X1087250Y355750D03*
X1042750Y355750D03*
X1042750Y349250D03*
X1042750Y342750D03*
X1042750Y336250D03*
D42*
X303075Y1378000D03*
X292925Y1378000D03*
X198075Y1721000D03*
X187925Y1721000D03*
D73*
X345500Y1542000D03*
X345500Y1538000D03*
X345500Y1534000D03*
X345500Y1530000D03*
X345500Y1526000D03*
X345500Y1522000D03*
X345500Y1518000D03*
X345500Y1514000D03*
X345500Y1510000D03*
X345500Y1506000D03*
X345500Y1502000D03*
X345500Y1498000D03*
D74*
X353000Y1490500D03*
X357000Y1490500D03*
X361000Y1490500D03*
X365000Y1490500D03*
X369000Y1490500D03*
X373000Y1490500D03*
X377000Y1490500D03*
X381000Y1490500D03*
X385000Y1490500D03*
X389000Y1490500D03*
X393000Y1490500D03*
X397000Y1490500D03*
D73*
X404500Y1498000D03*
X404500Y1502000D03*
X404500Y1506000D03*
X404500Y1510000D03*
X404500Y1514000D03*
X404500Y1518000D03*
X404500Y1522000D03*
X404500Y1526000D03*
X404500Y1530000D03*
X404500Y1534000D03*
X404500Y1538000D03*
X404500Y1542000D03*
D74*
X397000Y1549500D03*
X393000Y1549500D03*
X389000Y1549500D03*
X385000Y1549500D03*
X381000Y1549500D03*
X377000Y1549500D03*
X373000Y1549500D03*
X369000Y1549500D03*
X365000Y1549500D03*
X361000Y1549500D03*
X357000Y1549500D03*
X353000Y1549500D03*
D75*
X375000Y1520000D03*
D42*
X432075Y1473000D03*
X421925Y1473000D03*
D41*
X460000Y1559075D03*
X460000Y1548925D03*
D42*
X414925Y1570000D03*
X425075Y1570000D03*
X445075Y1534000D03*
X434925Y1534000D03*
D41*
X326000Y1566925D03*
X326000Y1577075D03*
D14*
X305000Y1567154D03*
X305000Y1576846D03*
D42*
X457075Y1452000D03*
X446925Y1452000D03*
D14*
X345000Y1568154D03*
X345000Y1577846D03*
X460000Y1575154D03*
X460000Y1584846D03*
D76*
X303000Y1433500D03*
X303000Y1458500D03*
D13*
X277846Y1426000D03*
X268154Y1426000D03*
X277846Y1446000D03*
X268154Y1446000D03*
D77*
X495000Y1499250D03*
X495000Y1512750D03*
D14*
X510000Y1533846D03*
X510000Y1524154D03*
D41*
X346000Y1405075D03*
X346000Y1394925D03*
D78*
X1282000Y1466000D03*
X1300000Y1466000D03*
X1286000Y1444000D03*
X1304000Y1444000D03*
D14*
X432000Y1903846D03*
X432000Y1894154D03*
X464000Y1772154D03*
X464000Y1781846D03*
X179000Y1648154D03*
X179000Y1657846D03*
X198000Y1648154D03*
X198000Y1657846D03*
X223000Y1648154D03*
X223000Y1657846D03*
X353000Y1471846D03*
X353000Y1462154D03*
D12*
X331000Y1460754D03*
X331000Y1443246D03*
D14*
X278000Y1568154D03*
X278000Y1577846D03*
D13*
X299846Y1485000D03*
X290154Y1485000D03*
D14*
X374000Y1571154D03*
X374000Y1580846D03*
D19*
X528000Y1900000D03*
X528000Y1882000D03*
D14*
X444000Y1779846D03*
X444000Y1770154D03*
D13*
X420846Y1877000D03*
X411154Y1877000D03*
D14*
X530000Y1773154D03*
X530000Y1782846D03*
D13*
X571846Y1795000D03*
X562154Y1795000D03*
D79*
X1129000Y355500D03*
X1129000Y330500D03*
D72*
X1230250Y2044250D03*
X1230250Y2050750D03*
X1230250Y2057250D03*
X1230250Y2063750D03*
X1185750Y2063750D03*
X1185750Y2057250D03*
X1185750Y2050750D03*
X1185750Y2044250D03*
D60*
X1674000Y784000D03*
X1674000Y1274000D03*
X1096600Y1274000D03*
X1096600Y784000D03*
D80*
X164000Y1003300D03*
X164000Y1028700D03*
X166000Y946300D03*
X166000Y971700D03*
X163000Y1059300D03*
X163000Y1084700D03*
D13*
X1154154Y331000D03*
X1163846Y331000D03*
X1154154Y356000D03*
X1163846Y356000D03*
D39*
X220000Y755250D03*
X220000Y796750D03*
D41*
X353000Y835925D03*
X353000Y846075D03*
D14*
X286000Y802846D03*
X286000Y793154D03*
D78*
X220000Y882000D03*
X202000Y882000D03*
D55*
X549950Y579754D03*
X562650Y579754D03*
X575350Y579754D03*
X588050Y579754D03*
X588050Y632246D03*
X575350Y632246D03*
X562650Y632246D03*
X549950Y632246D03*
D56*
X569000Y606000D03*
D39*
X447000Y632250D03*
X447000Y673750D03*
D14*
X563000Y746846D03*
X563000Y737154D03*
X588000Y746846D03*
X588000Y737154D03*
X538000Y746846D03*
X538000Y737154D03*
X514000Y746846D03*
X514000Y737154D03*
X636000Y708846D03*
X636000Y699154D03*
X563000Y699154D03*
X563000Y708846D03*
D41*
X612000Y698925D03*
X612000Y709075D03*
X575000Y684075D03*
X575000Y673925D03*
D14*
X550000Y683846D03*
X550000Y674154D03*
X530000Y608846D03*
X530000Y599154D03*
X588000Y531846D03*
X588000Y522154D03*
D12*
X560000Y534754D03*
X560000Y517246D03*
D41*
X588000Y709075D03*
X588000Y698925D03*
D81*
X447000Y771500D03*
X447000Y806500D03*
D82*
X43000Y2156000D03*
X1660000Y2154000D03*
X1662000Y52000D03*
X39000Y44000D03*
D83*
X306000Y710000D03*
X329654Y946232D03*
X987000Y765000D03*
X982000Y712000D03*
X982000Y726000D03*
X1006000Y712000D03*
X1007000Y726000D03*
X1027000Y715000D03*
X763000Y650000D03*
X815000Y446000D03*
X814000Y462000D03*
X837000Y446000D03*
X839000Y462000D03*
X665000Y136000D03*
X716000Y182000D03*
X730000Y183000D03*
X715000Y159000D03*
X730000Y158000D03*
X917000Y239000D03*
X1037000Y722000D03*
X323000Y286000D03*
X396300Y178200D03*
X414000Y171000D03*
X1122000Y139000D03*
X1134000Y2045000D03*
X901000Y2134000D03*
X916000Y2134000D03*
X931000Y2134000D03*
X946000Y2134000D03*
X977062Y2138000D03*
X1432500Y154800D03*
X1442500Y154800D03*
X1451500Y154800D03*
X1461500Y154800D03*
X1433500Y133800D03*
X1432500Y143800D03*
X1442500Y143800D03*
X1451500Y143800D03*
X1461500Y144800D03*
X1462500Y134800D03*
X1447500Y134800D03*
X1437500Y124800D03*
X1447500Y124800D03*
X1459500Y124800D03*
X554000Y979000D03*
X563000Y784000D03*
X573000Y829000D03*
X623500Y897500D03*
X514000Y956000D03*
X537000Y975000D03*
X493000Y956000D03*
X525000Y964000D03*
X471000Y957000D03*
X253614Y1234431D03*
X305000Y1188000D03*
X246000Y1343000D03*
X1002000Y356000D03*
X453000Y1836000D03*
X464000Y1836000D03*
X476000Y1836000D03*
X452000Y1825000D03*
X452000Y1813000D03*
X464000Y1812000D03*
X476000Y1813000D03*
X464000Y1825000D03*
X476000Y1825000D03*
X247500Y1991287D03*
X475000Y1982000D03*
X811000Y378000D03*
X1028000Y663000D03*
X285300Y1507600D03*
X366000Y1404000D03*
X410000Y1644000D03*
X342000Y1598000D03*
X424500Y1584500D03*
X346000Y1387000D03*
X470000Y1534000D03*
X326000Y1587000D03*
X1301000Y347000D03*
X1130000Y423000D03*
X1187000Y414000D03*
X1321000Y1871000D03*
X1309000Y1871000D03*
X1297000Y1871000D03*
X1285000Y1871000D03*
X1273000Y1871000D03*
X1261000Y1871000D03*
X1249000Y1871000D03*
X1237000Y1871000D03*
X1225000Y1871000D03*
X1213000Y1871000D03*
X1201000Y1871000D03*
X1189000Y1871000D03*
X1177000Y1871000D03*
X1165000Y1871000D03*
X1153000Y1871000D03*
X1141000Y1871000D03*
X1321000Y1531000D03*
X1273000Y1531000D03*
X1257000Y1531000D03*
X1229000Y1531000D03*
X1209000Y1531000D03*
X1189000Y1531000D03*
X1169000Y1531000D03*
X1153000Y1531000D03*
X1127000Y1503000D03*
X1143000Y1504000D03*
X1245000Y1531000D03*
X572000Y1834000D03*
X293000Y716000D03*
X317000Y717000D03*
X294000Y702000D03*
X317000Y702000D03*
X359000Y1537000D03*
X359000Y1527000D03*
X359000Y1517000D03*
X359000Y1507000D03*
X370000Y1507000D03*
X370000Y1517000D03*
X369000Y1527000D03*
X369000Y1537000D03*
X380000Y1537000D03*
X380000Y1527000D03*
X380000Y1517000D03*
X380000Y1507000D03*
X391000Y1537000D03*
X391000Y1527000D03*
X391000Y1517000D03*
X391000Y1507000D03*
X243689Y1939213D03*
X246000Y1446000D03*
X468000Y1459000D03*
X509000Y1567000D03*
X280000Y1611000D03*
X964000Y981000D03*
X821000Y503000D03*
X1145000Y161000D03*
X1145000Y152000D03*
X1153000Y157000D03*
X1153000Y145000D03*
D84*
X1146000Y821000D03*
X1222000Y747000D03*
X1273000Y748000D03*
X1400000Y747000D03*
X1579000Y746000D03*
X1527000Y820000D03*
X1323000Y822000D03*
X1263000Y1461000D03*
X1476000Y749000D03*
X309000Y859000D03*
X501000Y1773000D03*
X189000Y1670000D03*
X346000Y1446000D03*
X433000Y1769000D03*
X402000Y1883000D03*
D83*
X277652Y1549500D03*
X459000Y1940000D03*
D84*
X1261000Y2058000D03*
X847000Y2069000D03*
X1393000Y2058000D03*
X239000Y1907000D03*
X401000Y2027000D03*
X383000Y1980000D03*
X1087000Y371000D03*
X1170000Y343000D03*
X543000Y2042000D03*
X680000Y2043000D03*
X588000Y724000D03*
X559000Y611000D03*
X577000Y611000D03*
X576000Y522000D03*
X514000Y724000D03*
X312000Y647000D03*
X990000Y1653000D03*
X1042917Y1382083D03*
X197000Y1061000D03*
X161000Y1335000D03*
D83*
X311500Y666500D03*
D84*
X1234000Y1318000D03*
X1212000Y1317000D03*
X484000Y1281000D03*
X741000Y1389000D03*
X1242000Y1337000D03*
X1284000Y1335000D03*
X1310000Y1343000D03*
X1256000Y1346000D03*
X1244000Y1359000D03*
X1336000Y1358000D03*
X1254000Y1370000D03*
X1363000Y1370000D03*
X1241000Y1380000D03*
X1412000Y1380000D03*
X1251000Y1390000D03*
X1440000Y1389000D03*
X1246000Y1411000D03*
X1514000Y1410000D03*
X1246000Y1426000D03*
X1541000Y1426000D03*
X1298000Y1232000D03*
X1122000Y864000D03*
X1123000Y1210000D03*
X1303000Y728502D03*
X1412000Y728502D03*
X1317802Y1265000D03*
X626000Y987000D03*
X1075498Y882000D03*
X1117000Y1234000D03*
X1327000Y1275000D03*
X1075498Y1240000D03*
X1074498Y1042000D03*
X1024000Y1042000D03*
X840000Y1480000D03*
X703000Y1475000D03*
X557000Y1473000D03*
X559000Y1039000D03*
X647000Y1261000D03*
X628000Y1261000D03*
X1169000Y1438000D03*
X1163000Y1644000D03*
X1198000Y1326000D03*
X1177000Y1651000D03*
X1183802Y1642000D03*
X1202000Y1347000D03*
X1196000Y1642000D03*
X1248000Y1449000D03*
X1271000Y1439000D03*
X1208000Y1643000D03*
D83*
X576000Y554000D03*
D84*
X1249000Y1655000D03*
X1336000Y1651000D03*
X1401000Y1214000D03*
X1296000Y1214000D03*
X1241000Y1643000D03*
X1349000Y1643000D03*
X1418802Y1222000D03*
X1348270Y1222000D03*
X1254000Y1635000D03*
X1372000Y1635000D03*
X1430000Y1181000D03*
X1389200Y1181000D03*
X1242000Y1626000D03*
X1382000Y1627000D03*
X1451000Y1202000D03*
X1401600Y1201000D03*
X1254000Y1618000D03*
X1390000Y1617000D03*
X1244000Y1610000D03*
X1404000Y1609000D03*
X1254000Y1602000D03*
X1496000Y1602000D03*
X1268000Y1593000D03*
X1549000Y1593000D03*
X1252000Y1581000D03*
X1576000Y1581000D03*
X1266000Y1573000D03*
X1601000Y1566000D03*
X1027000Y591000D03*
X1208000Y596000D03*
X1380000Y825000D03*
X1370000Y843000D03*
X1257500Y620000D03*
X1374000Y1251000D03*
X1324000Y1251000D03*
X1323000Y857000D03*
X1340000Y683000D03*
X1369652Y1281999D03*
X1120000Y1249000D03*
X1062000Y966000D03*
X789850Y854000D03*
X1353000Y1300000D03*
X1075498Y1293000D03*
X1050498Y1002502D03*
X1344000Y1318000D03*
X725000Y1458000D03*
D83*
X1307000Y2033000D03*
D85*
X876000Y620000D03*
D86*
X1091000Y185000D03*
D83*
X1153000Y385000D03*
X1239000Y392000D03*
X1298000Y1483000D03*
D85*
X1416000Y537000D03*
D84*
X852000Y1837000D03*
X701000Y1143000D03*
X958364Y1908000D03*
X943000Y1907000D03*
X925000Y1896000D03*
X917672Y1888672D03*
X888000Y1881000D03*
X880672Y1873672D03*
X460000Y1982000D03*
X538000Y1992000D03*
X1071000Y1757000D03*
X1053000Y1431000D03*
X1397000Y1884000D03*
X957000Y2133000D03*
D83*
X911000Y917000D03*
X920000Y917000D03*
X929000Y917000D03*
X940000Y917000D03*
X911000Y927000D03*
X911000Y936000D03*
X911000Y945000D03*
X911000Y954000D03*
X920000Y927000D03*
X920000Y936000D03*
X920000Y945000D03*
X920000Y954000D03*
X930000Y927000D03*
X930000Y936000D03*
X930000Y945000D03*
X930000Y954000D03*
X940000Y927000D03*
X940000Y936000D03*
X913000Y1011000D03*
X922000Y1011000D03*
X913000Y965000D03*
X922000Y964000D03*
X931000Y964000D03*
X940000Y964000D03*
X913000Y975000D03*
X913000Y984000D03*
X913000Y993000D03*
X913000Y1002000D03*
X932000Y1011000D03*
X942000Y993000D03*
X942000Y1002000D03*
X932000Y975000D03*
X932000Y984000D03*
X932000Y993000D03*
X932000Y1002000D03*
X922000Y975000D03*
X922000Y984000D03*
X922000Y993000D03*
X922000Y1002000D03*
X911000Y907000D03*
X911000Y898000D03*
X911000Y889000D03*
X919000Y889000D03*
X920000Y898000D03*
X920000Y907000D03*
X929000Y907000D03*
X929000Y898000D03*
X929000Y889000D03*
X938000Y889000D03*
X938000Y898000D03*
X938000Y907000D03*
X1179000Y164000D03*
X540000Y1824000D03*
X507000Y1856000D03*
X417000Y1415000D03*
X384000Y1477000D03*
X434000Y1462000D03*
X391052Y1563611D03*
X417000Y1554000D03*
X358948Y1560571D03*
X460000Y1567000D03*
X1043000Y307000D03*
D87*
X1281000Y1564000D03*
D83*
X304000Y1611000D03*
D84*
X1627000Y821000D03*
X1425000Y822000D03*
X513000Y1784000D03*
X505000Y1458000D03*
X346000Y1481000D03*
X532000Y1914000D03*
X537000Y1808000D03*
D88*
X190000Y987000D03*
D84*
X398000Y1981000D03*
D83*
X1212000Y149676D03*
D84*
X1501000Y687000D03*
X1238000Y1401000D03*
X1489500Y1400500D03*
X813000Y777000D03*
X1335000Y442000D03*
D83*
X456000Y952000D03*
D84*
X526000Y1665000D03*
X574000Y998000D03*
X616000Y861000D03*
X584000Y1751000D03*
X489372Y1891729D03*
X377000Y2015000D03*
X486000Y1878000D03*
X366636Y2015000D03*
X460000Y1497000D03*
D83*
X476000Y1508000D03*
X512000Y1874000D03*
X513000Y1972000D03*
D84*
X211000Y1528000D03*
X243000Y1536636D03*
X227553Y1485447D03*
X243882Y1488118D03*
D83*
X418000Y1404000D03*
X352000Y1419000D03*
X424000Y1485000D03*
D84*
X430000Y1687000D03*
D83*
X448500Y1672500D03*
X449000Y1525000D03*
X1187000Y153912D03*
X258000Y1048000D03*
X310000Y1537000D03*
X310000Y1507000D03*
X310000Y1487000D03*
X365000Y1569000D03*
X298000Y1523000D03*
D84*
X291000Y1568000D03*
D83*
X374948Y1562000D03*
X417000Y1523000D03*
X354000Y1434000D03*
X388000Y1828787D03*
X433000Y1781000D03*
X483000Y1865166D03*
D84*
X547000Y1882000D03*
X428000Y1866000D03*
D85*
X158000Y1680000D03*
X170000Y1396000D03*
D84*
X996000Y635000D03*
M02*
